<svg width="14" height="14" viewBox="0 0 14 14" fill="none" xmlns="http://www.w3.org/2000/svg">
<g clip-path="url(#clip0_10_153)">
<path d="M7 0C4.54002 0 2.48828 1.9816 2.48828 4.51172C2.48828 5.47427 2.77752 6.33259 3.33263 7.13688L6.65473 12.3207C6.81589 12.5727 7.18443 12.5722 7.34527 12.3207L10.6818 7.11925C11.2249 6.35141 11.5117 5.4498 11.5117 4.51172C11.5117 2.02396 9.48776 0 7 0ZM7 6.5625C5.86925 6.5625 4.94922 5.64246 4.94922 4.51172C4.94922 3.38097 5.86925 2.46094 7 2.46094C8.13075 2.46094 9.05078 3.38097 9.05078 4.51172C9.05078 5.64246 8.13075 6.5625 7 6.5625Z" fill="#4D8C99"/>
<path d="M10.2064 9.42529L8.14114 12.6542C7.60654 13.4877 6.39048 13.485 5.85845 12.655L3.78979 9.42614C1.96968 9.84696 0.847656 10.6179 0.847656 11.5391C0.847656 13.1377 4.01756 14 7 14C9.98244 14 13.1523 13.1377 13.1523 11.5391C13.1523 10.6172 12.0288 9.84589 10.2064 9.42529Z" fill="#4D8C99"/>
</g>
<defs>
<clipPath id="clip0_10_153">
<rect width="14" height="14" fill="white"/>
</clipPath>
</defs>
</svg>
