<svg width="260" height="99" viewBox="0 0 260 99" fill="none" xmlns="http://www.w3.org/2000/svg">
<g clip-path="url(#clip0_12_412)">
<path d="M259.105 87.7109H136.511V88.341H259.105V87.7109Z" fill="#26B3BB"/>
<path d="M194.931 8.75743C195.106 10.5609 197.072 11.8997 198.839 11.4586C200.097 11.1909 201.02 10.1277 201.339 8.93068C200.988 9.4032 200.686 9.93084 200.185 10.2616C198.943 11.1121 197.048 10.4979 196.523 9.11181C195.902 7.71002 196.953 5.95383 198.473 5.76482C199.293 5.58369 200.017 6.06408 200.71 6.4106C200.025 5.59157 198.967 5.0718 197.884 5.1663C196.109 5.24506 194.636 7.00912 194.939 8.75743M197.836 0.00012554C198.234 1.35467 198.688 2.69347 199.317 3.96139C200.073 3.15811 200.909 2.32333 202.039 2.08707C203.775 1.66181 205.589 2.44933 206.712 3.74875C204.889 3.15811 202.668 3.50462 201.434 5.05605C203.17 4.63866 205.088 4.71741 206.656 5.63094C208.121 6.40272 209.156 7.89902 209.291 9.55283C208.766 8.99368 208.32 8.35579 207.683 7.91477C206.314 6.95399 204.563 6.62323 202.907 6.82799C204.459 7.206 205.932 7.98565 206.982 9.19057C208.598 10.994 208.988 13.6952 208.169 15.9318C208.009 14.4355 207.691 12.9077 206.815 11.6477C205.924 10.301 204.523 9.26932 202.931 8.89918C204.372 10.2065 205.542 11.8682 205.979 13.774C206.433 15.7743 206.194 17.9557 205.176 19.7592C205.271 17.8455 205.263 15.8294 204.34 14.089C203.854 13.1125 203.154 12.2383 202.31 11.5374C203.138 13.4983 203.528 15.6877 203.05 17.7825C202.716 19.2867 202.007 20.7357 200.925 21.854C201.442 19.9167 201.729 17.8455 201.195 15.8845C200.933 14.8844 200.344 13.9866 199.532 13.333C198.959 19.074 198.449 24.823 197.844 30.5562C197.271 24.8151 196.746 19.0662 196.189 13.3251C195.098 14.1835 194.477 15.4987 194.326 16.8532C194.079 18.5306 194.358 20.2317 194.811 21.854C192.861 19.8379 192.105 16.8532 192.614 14.1441C192.766 13.2385 193.108 12.3879 193.426 11.5295C191.978 12.7187 190.983 14.4355 190.664 16.2704C190.441 17.4202 190.521 18.5936 190.545 19.7513C189.327 17.562 189.2 14.8214 190.155 12.5061C190.704 11.0964 191.699 9.92297 192.79 8.89131C190.807 9.3402 189.16 10.8207 188.34 12.6399C187.854 13.6716 187.687 14.8056 187.536 15.916C186.947 14.278 187.01 12.4116 187.687 10.8129C188.587 8.74955 190.616 7.3005 192.813 6.83586C191.166 6.58385 189.406 6.95399 188.037 7.89902C187.401 8.33216 186.955 8.97006 186.445 9.53708C186.541 7.67851 187.87 6.07196 189.566 5.36318C191.03 4.67804 192.718 4.67016 194.278 5.04817C193.044 3.48099 190.823 3.15023 188.993 3.72513C190.035 2.56746 191.603 1.77994 193.203 1.99257C194.501 2.10282 195.576 2.96123 196.348 3.94564C197.064 2.71709 197.502 1.35467 197.828 -0.015625" fill="#C29F68"/>
<path d="M178.079 27.0042C182.68 26.0434 187.536 26.7837 191.811 28.6422C195.345 30.1858 198.481 32.4932 201.403 34.9582C200.678 35.604 199.946 36.234 199.237 36.8955C196.356 34.5959 193.411 32.32 190.035 30.7764C186.7 29.2171 183.031 28.1855 179.313 28.2642C176.79 28.3115 174.306 28.8076 171.854 29.351C173.709 28.0989 175.898 27.461 178.071 27.0042" fill="#C29F68"/>
<path d="M206.187 27.7764C210.223 26.4455 214.64 26.1777 218.772 27.2566C220.515 27.6977 222.266 28.2726 223.763 29.2885C221.709 28.9262 219.679 28.4379 217.594 28.3198C213.677 27.9969 209.761 28.9498 206.203 30.5328C204.149 31.4305 202.254 32.6355 200.384 33.864C199.612 33.2182 198.808 32.6197 198.012 32.0133C200.583 30.3438 203.226 28.7057 206.179 27.7843" fill="#C29F68"/>
<path d="M179.074 30.808C180.045 30.6427 181.032 30.5482 182.019 30.5088C182.131 31.3199 182.234 32.1311 182.338 32.9422C181.327 32.9107 180.324 32.9895 179.329 33.1155C179.241 32.3437 179.154 31.5719 179.074 30.808Z" fill="#C29F68"/>
<path d="M210.851 33.3205C210.779 34.0529 210.692 34.7853 210.596 35.5177C213.39 35.5728 216.184 35.5177 218.978 35.5492C219.082 34.8011 219.146 34.0529 219.201 33.2969C216.463 32.7062 213.589 32.6511 210.851 33.3205ZM204.141 33.3048C207.158 31.4777 210.7 30.4145 214.25 30.5484C217.004 30.6587 219.774 31.3911 222.139 32.8165C221.924 34.486 221.581 37.8252 221.581 37.8252H207.508C207.508 37.8252 207.771 35.5413 207.882 34.3994C203.974 36.384 200.821 39.4868 197.924 42.6921C196.523 41.2273 193.474 38.5576 193.474 38.5576L196.141 36.8486C196.141 36.8486 197.343 38.0142 197.924 38.6127C199.787 36.6281 201.761 34.6908 204.141 33.2969" fill="#C29F68"/>
<path d="M184.79 30.6739C188.077 30.9653 191.062 32.6191 193.586 34.643C192.67 35.2415 191.739 35.8086 190.831 36.4071C189.9 35.6747 188.929 34.9817 187.862 34.454C187.958 35.5723 188.189 37.8325 188.189 37.8325H174.227C174.227 37.8325 173.908 34.4619 173.701 32.8317C174.537 32.2804 175.476 31.9024 176.408 31.5402C176.559 32.8711 176.67 34.2099 176.814 35.5408C179.647 35.5251 182.481 35.5566 185.315 35.5172C185.124 33.9028 184.981 32.2804 184.806 30.666" fill="#C29F68"/>
<path d="M190.322 36.9665C191.914 35.9821 195.067 33.9424 195.067 33.9424L197.455 35.7616C197.455 35.7616 194.605 37.6123 193.18 38.5258C193.403 40.4867 193.61 42.4556 193.841 44.4165C195.178 45.2355 196.515 46.0624 197.861 46.8815C199.214 46.0624 200.551 45.2355 201.912 44.4244C202.119 42.6839 202.278 40.9277 202.485 39.1873C202.374 39.0928 202.143 38.9117 202.032 38.8172C202.772 38.1793 203.48 37.4941 204.308 36.9507C204.682 37.1476 205.009 37.4154 205.343 37.6674C205.025 40.4159 204.754 43.1643 204.436 45.9128C202.239 47.2516 200.05 48.614 197.861 49.9607C195.664 48.6298 193.498 47.2437 191.293 45.9285C190.943 42.9438 190.617 39.9591 190.33 36.9665" fill="#C29F68"/>
<path d="M174.338 39.6441C179.018 39.6599 183.707 39.6205 188.388 39.6678C188.475 40.5892 188.594 41.5027 188.698 42.4241C184.997 42.4241 181.295 42.4241 177.594 42.4241C177.984 46.3854 178.413 50.3387 178.788 54.2921C180.762 55.5601 182.768 56.7728 184.758 58.0171C185.243 57.2532 185.729 56.4893 186.198 55.7176C184.591 54.7095 182.967 53.733 181.375 52.7092C181.152 50.1812 180.849 47.6612 180.65 45.1332C183.436 45.1489 186.214 45.1332 189 45.1332C189.088 46.0546 189.16 46.9839 189.263 47.8974C190.521 48.6377 191.747 49.4173 193.004 50.1576C192.535 50.9688 192.033 51.7563 191.516 52.5359C190.035 51.5909 188.531 50.6853 187.034 49.7639C186.31 49.4095 186.604 48.4566 186.437 47.8108C185.514 47.8108 184.591 47.8108 183.675 47.8108C183.802 48.8267 183.874 49.8505 184.017 50.8664C184.017 51.1893 184.368 51.2917 184.583 51.457C186.421 52.5517 190.067 54.804 190.067 54.804L185.673 61.8603L176.113 55.9932C176.113 55.9932 174.927 44.9914 174.338 39.652" fill="#26B3BB"/>
<path d="M194.414 57.4663C195.56 58.1987 196.73 58.9074 197.884 59.632C199.015 58.8838 200.248 58.2617 201.323 57.4426C201.02 56.6 200.607 55.8125 200.256 54.9934C199.468 55.4738 198.68 55.9621 197.892 56.4425C197.096 55.9621 196.3 55.4738 195.504 54.9934C195.13 55.8125 194.788 56.6394 194.429 57.4663M209.864 42.4245C209.713 43.8735 209.562 45.3226 209.418 46.7716C210.286 47.315 211.146 47.8742 212.037 48.3703C212.236 46.3858 212.443 44.4012 212.642 42.4166C211.719 42.4166 210.788 42.4166 209.864 42.4166M207.389 39.6445H221.414L219.615 55.9778C219.615 55.9778 205.128 64.9163 197.868 69.3579C194.804 67.4836 191.747 65.5778 188.674 63.7114C189.017 62.8293 189.399 61.963 189.797 61.1046C192.487 62.7821 195.194 64.428 197.892 66.1054C199.803 64.9399 201.697 63.7665 203.6 62.5931C203.233 61.7583 202.859 60.9314 202.517 60.0887C200.949 60.9944 199.428 61.9945 197.876 62.9317C195.544 61.4748 193.204 60.0336 190.879 58.5609C191.994 56.0093 193.116 53.4656 194.207 50.914C195.448 51.6386 196.666 52.4182 197.892 53.1664C199.126 52.4261 200.336 51.6386 201.578 50.914C203.026 54.3162 204.531 57.6946 205.956 61.1046C209.657 58.8917 213.303 56.5764 216.981 54.3083C217.371 50.3391 217.816 46.3858 218.183 42.4166C217.267 42.4245 216.352 42.4245 215.436 42.4166C215.046 45.8502 214.76 49.2996 214.362 52.7332C211.751 51.1109 209.124 49.5122 206.505 47.8978C206.8 45.1493 207.102 42.4009 207.397 39.6445" fill="#26B3BB"/>
<path d="M202.748 50.1807C203.472 49.7161 204.212 49.2751 204.937 48.8262C205.685 49.4247 206.425 50.0311 207.15 50.6611C206.226 51.2596 205.279 51.8266 204.348 52.4015C203.814 51.6613 203.289 50.921 202.756 50.1886" fill="#26B3BB"/>
<path d="M205.948 54.654C207.078 53.9058 208.248 53.2128 209.402 52.4883C210.175 53.1104 210.939 53.7405 211.703 54.3783C210.342 55.2289 208.973 56.0715 207.603 56.9142C207.046 56.166 206.505 55.3943 205.948 54.654Z" fill="#26B3BB"/>
<path d="M140.452 82.5104H141.352V83.7862H140.325C139.775 83.7862 139.346 83.6208 139.027 83.2821C138.78 83.4396 138.478 83.5184 138.128 83.5184C137.555 83.5184 137.093 83.3058 136.751 82.8805C136.464 82.5261 136.321 82.1166 136.321 81.6362C136.321 81.0298 136.528 80.5337 136.934 80.1557C137.268 79.8406 137.65 79.6831 138.096 79.6831C138.263 79.6831 138.43 79.7068 138.589 79.754V79.5729L139.927 78.8799V81.9827C139.927 82.1796 139.967 82.3135 140.046 82.3922C140.126 82.471 140.261 82.5104 140.46 82.5104H140.452ZM137.435 78.6436C137.228 78.6436 137.061 78.5806 136.934 78.4546C136.806 78.3286 136.743 78.1632 136.743 77.9506C136.743 77.738 136.806 77.5883 136.934 77.4702C137.061 77.3521 137.228 77.2891 137.435 77.2891C137.642 77.2891 137.801 77.3521 137.921 77.4702C138.04 77.5883 138.104 77.7537 138.104 77.9506C138.104 78.1632 138.04 78.3286 137.921 78.4546C137.801 78.5806 137.634 78.6436 137.435 78.6436ZM138.581 81.0377C138.462 80.9668 138.335 80.9274 138.183 80.9274C138.008 80.9274 137.873 80.9904 137.778 81.1243C137.674 81.2582 137.626 81.4393 137.626 81.6598C137.626 82.1481 137.817 82.4001 138.207 82.4001C138.382 82.4001 138.51 82.3529 138.597 82.2584C138.597 82.2111 138.589 82.1402 138.589 82.0378V81.0377H138.581ZM138.964 78.6436C138.765 78.6436 138.597 78.5806 138.47 78.4546C138.343 78.3286 138.279 78.1632 138.279 77.9506C138.279 77.738 138.343 77.5883 138.47 77.4702C138.597 77.3521 138.757 77.2891 138.964 77.2891C139.171 77.2891 139.33 77.3521 139.457 77.4702C139.584 77.5883 139.648 77.7537 139.648 77.9506C139.648 78.1632 139.584 78.3286 139.465 78.4546C139.346 78.5806 139.178 78.6436 138.972 78.6436H138.964ZM144.154 82.5104H145.045V83.7862H144.026C143.596 83.7862 143.238 83.6838 142.96 83.479C142.665 83.6838 142.307 83.7862 141.885 83.7862H140.858V82.5104H141.758C141.957 82.5104 142.092 82.471 142.171 82.3922C142.251 82.3135 142.291 82.1796 142.291 81.9827V80.3919L143.62 79.691V81.9827C143.62 82.1796 143.66 82.3135 143.732 82.3922C143.811 82.471 143.947 82.5104 144.154 82.5104ZM141.662 84.5658C141.861 84.5658 142.028 84.6288 142.156 84.7548C142.283 84.8808 142.347 85.0383 142.347 85.2431C142.347 85.4478 142.283 85.6132 142.156 85.7392C142.028 85.8652 141.869 85.9282 141.662 85.9282C141.455 85.9282 141.288 85.8652 141.161 85.7392C141.033 85.6132 140.97 85.4478 140.97 85.251C140.97 85.0541 141.033 84.8887 141.161 84.7627C141.288 84.6367 141.455 84.5737 141.662 84.5737V84.5658ZM143.198 84.5658C143.397 84.5658 143.565 84.6288 143.684 84.7469C143.803 84.8651 143.867 85.0305 143.867 85.2352C143.867 85.44 143.803 85.6053 143.684 85.7314C143.565 85.8574 143.397 85.9204 143.198 85.9204C142.999 85.9204 142.824 85.8574 142.697 85.7314C142.57 85.6053 142.506 85.44 142.506 85.2431C142.506 85.0462 142.57 84.8808 142.697 84.7548C142.824 84.6288 142.991 84.5658 143.198 84.5658ZM147.712 82.5104H148.603V83.7862H147.584C147.115 83.7862 146.733 83.668 146.446 83.4239C146.112 83.668 145.698 83.7862 145.22 83.7862H144.56V82.5104H145.157C145.411 82.5104 145.594 82.4552 145.698 82.3529C145.801 82.2505 145.849 82.0615 145.849 81.7937V78.62L147.186 77.9191V81.9827C147.186 82.1796 147.226 82.3135 147.298 82.3922C147.377 82.471 147.513 82.5104 147.72 82.5104H147.712ZM148.118 83.7862V82.5104H149.503C150.506 82.5104 151.302 82.2347 151.907 81.6756C151.517 81.0534 151.063 80.7463 150.546 80.7463C150.076 80.7463 149.527 81.0141 148.906 81.5417V80.3919C149.423 79.817 150.02 79.5256 150.681 79.5256H150.697C151.19 79.5256 151.66 79.6989 152.122 80.0454C152.583 80.3919 152.989 80.8881 153.348 81.5338V82.0142C152.902 82.5812 152.345 83.0144 151.676 83.3215C151.007 83.6287 150.283 83.7783 149.495 83.7783H148.118V83.7862ZM150.983 78.872C150.776 78.872 150.609 78.809 150.482 78.683C150.355 78.557 150.291 78.3916 150.291 78.1868C150.291 77.9821 150.355 77.8167 150.482 77.6986C150.609 77.5805 150.776 77.5174 150.983 77.5174C151.19 77.5174 151.35 77.5805 151.469 77.6986C151.588 77.8167 151.652 77.9821 151.652 78.1868C151.652 78.3916 151.588 78.557 151.469 78.683C151.35 78.809 151.182 78.872 150.983 78.872ZM154.637 83.7862V78.62L155.974 77.9191V83.7862H154.637ZM156.89 83.7862L157.558 82.5104H158.928C159.174 82.5104 159.294 82.3765 159.294 82.1009C159.294 81.5023 158.991 81.0298 158.394 80.6991L159.047 79.5886C159.994 80.132 160.512 80.8644 160.607 81.7937C160.647 82.0851 160.711 82.2741 160.798 82.3686C160.886 82.4631 161.061 82.5104 161.316 82.5104H162.048V83.7862H161.244C160.798 83.7862 160.416 83.6759 160.114 83.4554C159.883 83.6759 159.572 83.7862 159.166 83.7862H156.874H156.89ZM161.562 83.7862V82.5104H162.159C162.414 82.5104 162.597 82.4552 162.701 82.3529C162.804 82.2505 162.852 82.0615 162.852 81.7937V78.62L164.189 77.9191V81.8016C164.189 82.4237 163.998 82.912 163.616 83.2743C163.266 83.6129 162.804 83.7862 162.231 83.7862H161.57H161.562ZM165.837 83.7862V78.62L167.174 77.9191V83.7862H165.837ZM172.826 83.7862C172.229 83.7862 171.759 83.5893 171.417 83.1876C171.13 82.8411 170.987 82.408 170.987 81.8803C170.987 81.2897 171.17 80.7857 171.544 80.3604C171.879 79.9824 172.317 79.7068 172.866 79.5335C173.503 79.7383 173.988 80.069 174.322 80.5179C174.609 80.9196 174.752 81.3763 174.752 81.8803C174.752 82.4946 174.561 82.975 174.195 83.3294C173.861 83.6365 173.439 83.794 172.914 83.794H172.818L172.826 83.7862ZM172.062 78.6436C171.855 78.6436 171.688 78.5806 171.56 78.4546C171.433 78.3286 171.369 78.1632 171.369 77.9506C171.369 77.738 171.433 77.5883 171.56 77.4702C171.688 77.3521 171.855 77.2891 172.054 77.2891C172.253 77.2891 172.42 77.3521 172.539 77.4702C172.659 77.5883 172.722 77.7537 172.722 77.9506C172.722 78.1632 172.659 78.3286 172.539 78.4546C172.42 78.5806 172.253 78.6436 172.054 78.6436H172.062ZM172.317 81.8646C172.317 82.2977 172.492 82.5104 172.834 82.5104H172.937C173.288 82.5104 173.463 82.2977 173.463 81.8803C173.463 81.3921 173.272 81.0219 172.882 80.7699C172.508 81.0219 172.324 81.3842 172.324 81.8646H172.317ZM173.598 78.6436C173.391 78.6436 173.224 78.5806 173.097 78.4546C172.969 78.3286 172.906 78.1632 172.906 77.9506C172.906 77.738 172.969 77.5883 173.097 77.4702C173.224 77.3521 173.391 77.2891 173.598 77.2891C173.805 77.2891 173.964 77.3521 174.084 77.4702C174.203 77.5883 174.267 77.7537 174.267 77.9506C174.267 78.1632 174.203 78.3286 174.084 78.4546C173.964 78.5806 173.797 78.6436 173.598 78.6436ZM177.968 83.1719C177.968 83.6917 177.865 84.1484 177.65 84.5343C177.435 84.9202 177.132 85.2037 176.742 85.377C176.488 85.4951 176.209 85.5581 175.907 85.5581C175.501 85.5581 175.103 85.4557 174.72 85.2431V84.0933C175.039 84.2665 175.349 84.3611 175.652 84.3611C175.803 84.3611 175.946 84.3374 176.074 84.2902C176.448 84.1642 176.631 83.8255 176.631 83.2743V80.4077L177.976 79.6989V83.1798L177.968 83.1719ZM179.624 83.7862V78.62L180.961 77.9191V83.7862H179.624ZM185.021 83.1719C185.021 83.6917 184.917 84.1484 184.702 84.5343C184.488 84.9202 184.185 85.2037 183.795 85.377C183.54 85.4951 183.262 85.5581 182.959 85.5581C182.553 85.5581 182.155 85.4557 181.773 85.2431V84.0933C182.092 84.2665 182.402 84.3611 182.704 84.3611C182.856 84.3611 182.999 84.3374 183.126 84.2902C183.501 84.1642 183.684 83.8255 183.684 83.2743V80.4077L185.029 79.6989V83.1798L185.021 83.1719ZM184.352 78.872C184.145 78.872 183.978 78.809 183.851 78.683C183.723 78.557 183.66 78.3916 183.66 78.1868C183.66 77.9821 183.723 77.8167 183.851 77.6986C183.978 77.5805 184.145 77.5174 184.352 77.5174C184.559 77.5174 184.718 77.5805 184.838 77.6986C184.957 77.8167 185.021 77.9821 185.021 78.1868C185.021 78.3916 184.957 78.557 184.838 78.683C184.718 78.809 184.551 78.872 184.352 78.872ZM191.182 83.7862H190.091C190.052 84.3296 189.805 84.7706 189.359 85.0935C188.993 85.3691 188.555 85.503 188.062 85.503C187.664 85.503 187.258 85.3927 186.86 85.1643V84.0067C187.226 84.2114 187.576 84.3138 187.91 84.3138C188.117 84.3138 188.308 84.2587 188.484 84.1405C188.659 84.0224 188.754 83.8885 188.778 83.7389C188.643 83.7389 188.484 83.7153 188.293 83.6917C187.68 83.6129 187.202 83.3609 186.852 82.9278C186.565 82.5655 186.422 82.1324 186.422 81.6441C186.422 80.9668 186.613 80.4313 186.995 80.0454C187.329 79.691 187.783 79.5178 188.34 79.5178C188.929 79.5178 189.383 79.691 189.709 80.0454C189.988 80.3525 190.123 80.7463 190.123 81.2346V82.5025H191.206V83.7783L191.182 83.7862ZM188.762 81.2503C188.762 80.9196 188.611 80.7621 188.308 80.7621C187.91 80.7621 187.711 81.0456 187.711 81.6047C187.711 82.1639 188.062 82.4867 188.762 82.4867V81.2503ZM190.689 83.7862V82.5104H191.588C191.787 82.5104 191.922 82.471 192.002 82.3922C192.082 82.3135 192.121 82.1796 192.121 81.9827V80.3919L193.451 79.691V82.0378C193.451 82.6049 193.276 83.0459 192.917 83.3688C192.607 83.6444 192.201 83.7862 191.715 83.7862H190.689ZM192.4 85.9204C192.193 85.9204 192.026 85.8574 191.898 85.7314C191.771 85.6053 191.707 85.44 191.707 85.2352C191.707 85.0305 191.771 84.8651 191.898 84.7469C192.026 84.6288 192.193 84.5658 192.4 84.5658C192.607 84.5658 192.766 84.6288 192.886 84.7469C193.005 84.8651 193.069 85.0305 193.069 85.2352C193.069 85.44 193.005 85.6053 192.886 85.7314C192.766 85.8574 192.599 85.9204 192.4 85.9204ZM200.965 82.5104H201.865V83.7862H200.838C200.288 83.7862 199.859 83.6208 199.54 83.2821C199.293 83.4396 198.991 83.5184 198.641 83.5184C198.068 83.5184 197.606 83.3058 197.264 82.8805C196.977 82.5261 196.834 82.1166 196.834 81.6362C196.834 81.0298 197.041 80.5337 197.447 80.1557C197.781 79.8406 198.163 79.6831 198.609 79.6831C198.776 79.6831 198.943 79.7068 199.102 79.754V79.5729L200.44 78.8799V81.9827C200.44 82.1796 200.479 82.3135 200.559 82.3922C200.639 82.471 200.774 82.5104 200.973 82.5104H200.965ZM197.948 78.6436C197.741 78.6436 197.574 78.5806 197.447 78.4546C197.319 78.3286 197.256 78.1632 197.256 77.9506C197.256 77.738 197.319 77.5883 197.447 77.4702C197.574 77.3521 197.741 77.2891 197.948 77.2891C198.155 77.2891 198.314 77.3521 198.434 77.4702C198.553 77.5883 198.617 77.7537 198.617 77.9506C198.617 78.1632 198.553 78.3286 198.434 78.4546C198.314 78.5806 198.147 78.6436 197.948 78.6436ZM199.102 81.0377C198.983 80.9668 198.856 80.9274 198.704 80.9274C198.529 80.9274 198.394 80.9904 198.298 81.1243C198.195 81.2582 198.147 81.4393 198.147 81.6598C198.147 82.1481 198.338 82.4001 198.728 82.4001C198.903 82.4001 199.031 82.3529 199.118 82.2584C199.118 82.2111 199.11 82.1402 199.11 82.0378V81.0377H199.102ZM199.476 78.6436C199.277 78.6436 199.11 78.5806 198.983 78.4546C198.856 78.3286 198.792 78.1632 198.792 77.9506C198.792 77.738 198.856 77.5883 198.983 77.4702C199.11 77.3521 199.27 77.2891 199.476 77.2891C199.683 77.2891 199.843 77.3521 199.97 77.4702C200.097 77.5883 200.161 77.7537 200.161 77.9506C200.161 78.1632 200.097 78.3286 199.978 78.4546C199.859 78.5806 199.691 78.6436 199.484 78.6436H199.476ZM204.674 82.5104H205.566V83.7862H204.547C204.117 83.7862 203.759 83.6838 203.48 83.479C203.186 83.6838 202.828 83.7862 202.406 83.7862H201.379V82.5104H202.278C202.477 82.5104 202.613 82.471 202.692 82.3922C202.772 82.3135 202.812 82.1796 202.812 81.9827V80.3919L204.141 79.691V81.9827C204.141 82.1796 204.181 82.3135 204.253 82.3922C204.332 82.471 204.468 82.5104 204.674 82.5104ZM202.183 84.5658C202.382 84.5658 202.549 84.6288 202.676 84.7548C202.804 84.8808 202.868 85.0383 202.868 85.2431C202.868 85.4478 202.804 85.6132 202.676 85.7392C202.549 85.8652 202.39 85.9282 202.183 85.9282C201.976 85.9282 201.809 85.8652 201.681 85.7392C201.554 85.6132 201.49 85.4478 201.49 85.251C201.49 85.0541 201.554 84.8887 201.681 84.7627C201.809 84.6367 201.976 84.5737 202.183 84.5737V84.5658ZM203.719 84.5658C203.918 84.5658 204.085 84.6288 204.205 84.7469C204.324 84.8651 204.388 85.0305 204.388 85.2352C204.388 85.44 204.324 85.6053 204.205 85.7314C204.085 85.8574 203.918 85.9204 203.719 85.9204C203.52 85.9204 203.345 85.8574 203.218 85.7314C203.09 85.6053 203.027 85.44 203.027 85.2431C203.027 85.0462 203.09 84.8808 203.218 84.7548C203.345 84.6288 203.512 84.5658 203.719 84.5658ZM208.376 82.5104H209.267V83.7862H208.249C207.819 83.7862 207.461 83.6838 207.182 83.479C206.887 83.6838 206.529 83.7862 206.107 83.7862H205.08V82.5104H205.98C206.179 82.5104 206.314 82.471 206.394 82.3922C206.473 82.3135 206.513 82.1796 206.513 81.9827V80.3919L207.843 79.691V81.9827C207.843 82.1796 207.882 82.3135 207.954 82.3922C208.034 82.471 208.169 82.5104 208.376 82.5104ZM207.293 84.5658C207.492 84.5658 207.66 84.6288 207.779 84.7469C207.898 84.8651 207.962 85.0305 207.962 85.2352C207.962 85.44 207.898 85.6053 207.779 85.7314C207.66 85.8574 207.492 85.9204 207.293 85.9204C207.094 85.9204 206.919 85.8574 206.792 85.7314C206.665 85.6053 206.601 85.44 206.601 85.2352C206.601 85.0305 206.665 84.8651 206.792 84.7469C206.919 84.6288 207.086 84.5658 207.293 84.5658ZM217.251 82.5104V83.7862H216.376C215.97 83.7862 215.62 83.6838 215.317 83.4869C215.039 83.6838 214.696 83.7862 214.274 83.7862H208.774V82.5104H210.207V78.62L211.536 77.9191V80.384C212.157 79.817 212.85 79.5256 213.622 79.5256C214.394 79.5256 214.951 79.7777 215.397 80.2895C215.771 80.7227 215.954 81.2425 215.954 81.8646V82.0378C215.954 82.3529 216.129 82.5104 216.487 82.5104H217.236H217.251ZM214.235 82.5104C214.41 82.5104 214.513 82.4789 214.569 82.4159C214.617 82.3529 214.641 82.2111 214.641 81.9906V81.8646C214.641 81.5338 214.545 81.274 214.362 81.0692C214.179 80.8644 213.94 80.7621 213.646 80.7621C213.232 80.7621 212.834 80.9196 212.459 81.2267C212.085 81.5417 211.783 81.967 211.552 82.5025H214.235V82.5104ZM216.758 83.7862V82.5104H217.355C217.61 82.5104 217.793 82.4552 217.896 82.3529C218 82.2505 218.047 82.0615 218.047 81.7937V78.62L219.385 77.9191V81.8016C219.385 82.4237 219.194 82.912 218.812 83.2743C218.461 83.6129 218 83.7862 217.427 83.7862H216.766H216.758ZM221.033 83.7862V78.62L222.37 77.9191V83.7862H221.033ZM227.958 83.7862C227.425 83.7862 227.003 83.605 226.7 83.2506C226.43 82.9435 226.294 82.5419 226.294 82.0536V81.2188L227.631 80.5179V81.9827C227.631 82.1796 227.671 82.3214 227.743 82.4001C227.823 82.4789 227.958 82.5182 228.149 82.5182H231.118C231.317 82.5182 231.452 82.4789 231.524 82.4001C231.604 82.3214 231.635 82.1796 231.635 81.9827V80.3998L232.973 79.6989V82.0536C232.973 82.6206 232.798 83.0538 232.439 83.3766C232.129 83.6523 231.723 83.794 231.237 83.794H227.958V83.7862ZM228.818 79.5493C228.611 79.5493 228.443 79.4863 228.316 79.3603C228.189 79.2343 228.125 79.0689 228.125 78.8562C228.125 78.6436 228.189 78.494 228.316 78.3759C228.443 78.2577 228.611 78.1947 228.818 78.1947C229.025 78.1947 229.184 78.2577 229.303 78.3759C229.423 78.494 229.486 78.6594 229.486 78.8562C229.486 79.0689 229.423 79.2343 229.303 79.3603C229.184 79.4863 229.017 79.5493 228.818 79.5493ZM230.354 79.5493C230.147 79.5493 229.98 79.4863 229.852 79.3603C229.725 79.2343 229.661 79.0689 229.661 78.8562C229.661 78.6436 229.725 78.494 229.852 78.3759C229.98 78.2577 230.147 78.1947 230.354 78.1947C230.561 78.1947 230.72 78.2577 230.839 78.3759C230.959 78.494 231.023 78.6594 231.023 78.8562C231.023 79.0689 230.959 79.2343 230.839 79.3603C230.72 79.4863 230.553 79.5493 230.354 79.5493ZM236.372 83.7862C235.807 83.7862 235.369 83.605 235.05 83.2506C234.772 82.9356 234.636 82.534 234.636 82.0378V78.62L235.974 77.9191V81.9827C235.974 82.1796 236.014 82.3135 236.093 82.3922C236.173 82.471 236.308 82.5104 236.507 82.5104H237.407V83.7862H236.38H236.372ZM238.338 81.2425C238.338 80.6833 238.513 80.2502 238.863 79.9352C239.174 79.6595 239.572 79.5256 240.057 79.5256C240.678 79.5256 241.156 79.754 241.498 80.195C241.793 80.5809 241.936 81.0613 241.936 81.652C241.936 82.3214 241.745 82.8569 241.379 83.2506C241.052 83.605 240.63 83.7783 240.121 83.7783C239.635 83.7783 239.245 83.6838 238.943 83.5026C238.664 83.6838 238.33 83.7783 237.932 83.7783H236.905V82.5025H237.805C238.004 82.5025 238.139 82.4631 238.218 82.3844C238.298 82.3056 238.338 82.1717 238.338 81.9749V81.2346V81.2425ZM239.667 82.156C239.667 82.3922 239.795 82.5104 240.057 82.5104C240.439 82.5104 240.63 82.2111 240.63 81.6126C240.63 81.0456 240.439 80.7699 240.057 80.7699C239.803 80.7699 239.667 80.9196 239.667 81.2188V82.1639V82.156ZM242.724 83.7862L243.393 82.5104H244.762C245.008 82.5104 245.128 82.3765 245.128 82.1009C245.128 81.5023 244.825 81.0298 244.228 80.6991L244.881 79.5886C245.828 80.132 246.346 80.8644 246.441 81.7937C246.481 82.0851 246.545 82.2741 246.632 82.3686C246.72 82.4631 246.895 82.5104 247.15 82.5104H247.882V83.7862H247.078C246.632 83.7862 246.25 83.6759 245.948 83.4554C245.717 83.6759 245.406 83.7862 245.001 83.7862H242.708H242.724ZM252.324 82.3686C252.539 82.4631 252.881 82.5025 253.367 82.5025H254.194V83.7783H253.359C252.889 83.7783 252.507 83.7232 252.212 83.6208C251.918 83.5184 251.655 83.3373 251.408 83.0853C250.628 83.5499 249.753 83.7783 248.782 83.7783H247.404V82.5025H248.79C249.793 82.5025 250.589 82.2269 251.193 81.6677C250.803 81.0456 250.35 80.7384 249.832 80.7384C249.363 80.7384 248.813 81.0062 248.193 81.5338V80.384C248.71 79.8091 249.307 79.5178 249.968 79.5178H249.984C250.477 79.5178 250.947 79.691 251.408 80.0375C251.87 80.384 252.276 80.8802 252.634 81.526V82.0064C252.531 82.1324 252.427 82.2505 252.332 82.3607L252.324 82.3686ZM250.254 78.872C250.047 78.872 249.88 78.809 249.753 78.683C249.625 78.557 249.562 78.3916 249.562 78.1868C249.562 77.9821 249.625 77.8167 249.753 77.6986C249.88 77.5805 250.047 77.5174 250.254 77.5174C250.461 77.5174 250.62 77.5805 250.74 77.6986C250.859 77.8167 250.923 77.9821 250.923 78.1868C250.923 78.3916 250.859 78.557 250.74 78.683C250.62 78.809 250.453 78.872 250.254 78.872ZM253.701 83.7862V82.5104H254.298C254.553 82.5104 254.736 82.4552 254.839 82.3529C254.943 82.2505 254.99 82.0615 254.99 81.7937V78.62L256.328 77.9191V81.8016C256.328 82.4237 256.137 82.912 255.755 83.2743C255.404 83.6129 254.943 83.7862 254.37 83.7862H253.709H253.701ZM257.976 83.7862V78.62L259.313 77.9191V83.7862H257.976Z" fill="#6D6F71"/>
<path d="M154.486 91.3342C155.067 92.9093 155.552 94.3898 155.926 95.7837C156.277 94.5237 156.738 93.0431 157.319 91.3342H159.087V97.1619H157.861V92.4289C157.566 93.6732 157.089 95.2561 156.428 97.1619H155.417C154.716 95.0592 154.239 93.492 153.992 92.4761V97.1619H152.79V91.3342H154.486ZM164.38 95.453H161.475C161.498 95.7365 161.618 95.9727 161.825 96.1539C162.032 96.3429 162.279 96.4374 162.565 96.4374C162.971 96.4374 163.393 96.3114 163.831 96.0672L164.125 96.6815C163.68 97.0753 163.122 97.2721 162.446 97.2721C161.729 97.2721 161.164 97.0674 160.758 96.6658C160.376 96.2877 160.177 95.7601 160.177 95.0907C160.177 94.4213 160.392 93.8937 160.83 93.4605C161.22 93.0668 161.713 92.8699 162.318 92.8699C162.987 92.8699 163.512 93.0904 163.879 93.5393C164.205 93.9173 164.364 94.4134 164.364 95.0198V95.4451L164.38 95.453ZM162.326 93.6889C161.785 93.6889 161.483 93.9882 161.411 94.5946H163.21C163.178 93.996 162.883 93.6889 162.326 93.6889ZM168.384 97.1619L168.217 96.7209C168.121 96.8784 167.954 97.0123 167.731 97.1146C167.508 97.217 167.277 97.2721 167.039 97.2721C166.378 97.2721 165.869 97.0516 165.518 96.6185C165.224 96.2562 165.08 95.7916 165.08 95.2167C165.08 94.4134 165.319 93.7913 165.789 93.3581C166.139 93.0353 166.569 92.8699 167.063 92.8699C167.492 92.8699 167.851 92.988 168.145 93.2164V91.8776L169.315 91.2318V97.154H168.376L168.384 97.1619ZM168.153 95.5711V94.3977C168.113 94.1929 168.01 94.0275 167.859 93.8937C167.707 93.7598 167.524 93.6968 167.325 93.6968C167.007 93.6968 166.76 93.8228 166.569 94.0669C166.386 94.311 166.29 94.6418 166.29 95.0592C166.29 95.9727 166.593 96.4295 167.19 96.4295C167.413 96.4295 167.62 96.3429 167.811 96.1696C168.002 95.9964 168.113 95.7916 168.145 95.5632L168.153 95.5711ZM170.406 91.9091C170.406 91.7122 170.477 91.539 170.613 91.3972C170.756 91.2554 170.915 91.1846 171.114 91.1846C171.321 91.1846 171.496 91.2554 171.64 91.3972C171.783 91.539 171.855 91.7122 171.855 91.9091C171.855 92.1217 171.783 92.3029 171.648 92.4367C171.504 92.5706 171.329 92.6415 171.114 92.6415C170.907 92.6415 170.74 92.5706 170.605 92.4367C170.469 92.295 170.406 92.1217 170.406 91.917V91.9091ZM171.727 92.9801V97.1619H170.541V92.9801H171.727ZM176.487 96.6264C176.05 97.0595 175.524 97.2721 174.927 97.2721C174.211 97.2721 173.638 97.0438 173.216 96.587C172.85 96.1854 172.666 95.6892 172.666 95.0828C172.666 94.4056 172.905 93.8543 173.375 93.4211C173.781 93.0431 174.282 92.862 174.871 92.862C175.524 92.862 176.05 93.0668 176.448 93.4684L176.097 94.0984C175.779 93.8228 175.437 93.681 175.062 93.681C174.712 93.681 174.426 93.8149 174.203 94.0827C173.98 94.3504 173.868 94.6891 173.868 95.1065C173.868 95.4923 173.98 95.8073 174.203 96.0594C174.426 96.3114 174.704 96.4295 175.047 96.4295C175.453 96.4295 175.811 96.2799 176.097 95.9806L176.495 96.6185L176.487 96.6264ZM180.786 97.1619H179.847L179.751 96.7681C179.345 97.1068 178.923 97.2721 178.501 97.2721C177.562 97.2721 177.092 96.8233 177.092 95.9176C177.092 95.4687 177.291 95.1222 177.681 94.8702C178.079 94.6103 178.668 94.4843 179.441 94.4843H179.64V94.4686C179.64 94.2008 179.584 94.0197 179.472 93.9252C179.361 93.8307 179.162 93.7755 178.867 93.7755C178.461 93.7755 178.079 93.9015 177.737 94.1614C177.626 93.9567 177.522 93.7598 177.419 93.5629C177.769 93.2951 178.079 93.114 178.342 93.0116C178.605 92.9171 178.923 92.8699 179.289 92.8699C180.284 92.8699 180.778 93.4841 180.778 94.7127V97.1619H180.786ZM179.6 95.1931H179.456C179.106 95.1931 178.82 95.2561 178.597 95.3742C178.382 95.5002 178.27 95.6577 178.27 95.8625C178.27 96.2405 178.438 96.4374 178.772 96.4374C178.979 96.4374 179.154 96.3822 179.313 96.2641C179.464 96.146 179.56 95.9964 179.592 95.8231V95.1931H179.6ZM183.222 91.2239V97.1619H182.051V91.8303L183.222 91.2239ZM188.642 91.2239C189.303 91.2239 189.916 91.4208 190.489 91.8146C190.378 91.98 190.203 92.232 189.972 92.5627C189.478 92.3501 189.033 92.2399 188.642 92.2399C188.125 92.2399 187.87 92.4289 187.87 92.8148C187.87 92.988 187.926 93.1219 188.045 93.2164C188.165 93.3109 188.412 93.4369 188.778 93.5786C189.446 93.8385 189.932 94.1142 190.227 94.4134C190.521 94.7127 190.672 95.0749 190.672 95.5002C190.672 96.0987 190.449 96.5555 189.996 96.8784C189.622 97.1461 189.16 97.2721 188.611 97.2721C187.958 97.2721 187.265 97.0359 186.525 96.5713L187.066 95.8231C187.425 96.0594 187.886 96.1854 188.451 96.1854C189.088 96.1854 189.407 95.9334 189.407 95.4215C189.407 95.0907 189.064 94.8072 188.372 94.5709C187.257 94.2008 186.708 93.6101 186.708 92.799C186.708 92.3107 186.891 91.917 187.265 91.6256C187.616 91.3499 188.077 91.2082 188.65 91.2082L188.642 91.2239ZM195.624 95.453H192.718C192.742 95.7365 192.861 95.9727 193.068 96.1539C193.275 96.3429 193.522 96.4374 193.809 96.4374C194.215 96.4374 194.636 96.3114 195.074 96.0672L195.369 96.6815C194.923 97.0753 194.366 97.2721 193.689 97.2721C192.973 97.2721 192.408 97.0674 192.002 96.6658C191.62 96.2877 191.421 95.7601 191.421 95.0907C191.421 94.4213 191.635 93.8937 192.073 93.4605C192.463 93.0668 192.957 92.8699 193.562 92.8699C194.23 92.8699 194.756 93.0904 195.122 93.5393C195.448 93.9173 195.608 94.4134 195.608 95.0198V95.4451L195.624 95.453ZM193.57 93.6889C193.029 93.6889 192.726 93.9882 192.654 94.5946H194.453C194.422 93.996 194.127 93.6889 193.57 93.6889ZM197.606 92.9801L197.717 93.3503C197.781 93.2243 197.9 93.1061 198.075 93.0116C198.25 92.9171 198.433 92.8699 198.617 92.8699C199.174 92.8699 199.588 93.1298 199.866 93.6495L198.879 94.185C198.672 93.9488 198.457 93.8385 198.226 93.8385C198.012 93.8385 197.86 93.9488 197.765 94.1614V97.1619H196.611V92.9801H197.606ZM204.125 93.9094C203.544 95.3191 203.106 96.4059 202.796 97.1619H201.88L200.232 92.9801H201.418L202.318 95.7443L203.273 92.9801H204.499L204.324 93.4133L204.117 93.9094H204.125ZM205.096 91.9091C205.096 91.7122 205.168 91.539 205.303 91.3972C205.446 91.2554 205.606 91.1846 205.805 91.1846C206.012 91.1846 206.187 91.2554 206.33 91.3972C206.473 91.539 206.545 91.7122 206.545 91.9091C206.545 92.1217 206.473 92.3029 206.338 92.4367C206.195 92.5706 206.019 92.6415 205.805 92.6415C205.598 92.6415 205.43 92.5706 205.295 92.4367C205.16 92.295 205.096 92.1217 205.096 91.917V91.9091ZM206.417 92.9801V97.1619H205.231V92.9801H206.417ZM211.17 96.6264C210.732 97.0595 210.206 97.2721 209.609 97.2721C208.893 97.2721 208.32 97.0438 207.898 96.587C207.532 96.1854 207.349 95.6892 207.349 95.0828C207.349 94.4056 207.588 93.8543 208.057 93.4211C208.463 93.0431 208.965 92.862 209.554 92.862C210.206 92.862 210.732 93.0668 211.13 93.4684L210.78 94.0984C210.461 93.8228 210.119 93.681 209.745 93.681C209.395 93.681 209.108 93.8149 208.885 94.0827C208.662 94.3504 208.551 94.6891 208.551 95.1065C208.551 95.4923 208.662 95.8073 208.885 96.0594C209.108 96.3114 209.387 96.4295 209.729 96.4295C210.135 96.4295 210.493 96.2799 210.78 95.9806L211.178 96.6185L211.17 96.6264ZM215.978 95.453H213.072C213.096 95.7365 213.215 95.9727 213.422 96.1539C213.629 96.3429 213.876 96.4374 214.163 96.4374C214.569 96.4374 214.991 96.3114 215.428 96.0672L215.723 96.6815C215.277 97.0753 214.72 97.2721 214.043 97.2721C213.327 97.2721 212.762 97.0674 212.356 96.6658C211.974 96.2877 211.775 95.7601 211.775 95.0907C211.775 94.4213 211.99 93.8937 212.427 93.4605C212.817 93.0668 213.311 92.8699 213.916 92.8699C214.585 92.8699 215.11 93.0904 215.476 93.5393C215.802 93.9173 215.962 94.4134 215.962 95.0198V95.4451L215.978 95.453ZM213.924 93.6889C213.383 93.6889 213.08 93.9882 213.008 94.5946H214.807C214.776 93.996 214.481 93.6889 213.924 93.6889ZM219.432 93.996C219.13 93.7992 218.78 93.7047 218.39 93.7047C218.095 93.7047 217.944 93.8307 217.944 94.0827C217.944 94.3189 218.143 94.4843 218.549 94.5788C219.05 94.7048 219.392 94.8387 219.576 94.9962C219.838 95.2167 219.966 95.5475 219.966 95.9885C219.966 96.3822 219.822 96.6973 219.544 96.9256C219.265 97.1619 218.883 97.2721 218.405 97.2721C217.729 97.2721 217.156 97.0831 216.694 96.6973L217.124 96.0515C217.45 96.3035 217.832 96.4295 218.286 96.4295C218.469 96.4295 218.612 96.3901 218.724 96.3035C218.835 96.2169 218.891 96.1066 218.891 95.9649C218.891 95.705 218.668 95.5396 218.23 95.4608C217.283 95.2797 216.813 94.8308 216.813 94.0984C216.813 93.7519 216.957 93.4605 217.243 93.2243C217.53 92.988 217.896 92.8777 218.326 92.8777C218.915 92.8777 219.424 93.0431 219.862 93.3818L219.432 93.996ZM225.187 95.4293H222.696V94.5079H225.187V95.4293ZM229.995 91.3342C230.576 92.9093 231.062 94.3898 231.436 95.7837C231.786 94.5237 232.248 93.0431 232.829 91.3342H234.596V97.1619H233.37V92.4289C233.076 93.6732 232.598 95.2561 231.938 97.1619H230.927C230.226 95.0592 229.749 93.492 229.502 92.4761V97.1619H228.3V91.3342H229.995ZM236.475 92.0587C236.953 91.4996 237.589 91.2239 238.393 91.2239C239.301 91.2239 240.001 91.5783 240.487 92.295C240.869 92.8541 241.068 93.5314 241.068 94.3189C241.068 95.2246 240.813 95.957 240.312 96.5004C239.834 97.0123 239.197 97.2721 238.393 97.2721C237.478 97.2721 236.777 96.9414 236.3 96.2799C235.918 95.7601 235.719 95.1065 235.719 94.3189C235.719 93.3975 235.973 92.6494 236.475 92.0587ZM236.992 94.3189C236.992 95.6183 237.462 96.2641 238.401 96.2641C238.847 96.2641 239.189 96.0987 239.436 95.7601C239.675 95.4293 239.802 94.9411 239.802 94.3189C239.802 93.6495 239.667 93.1298 239.404 92.7517C239.157 92.421 238.823 92.2556 238.409 92.2556C237.963 92.2556 237.613 92.4367 237.374 92.799C237.128 93.1613 237.008 93.6653 237.008 94.3189H236.992ZM243.384 91.3342V97.1619H242.182V91.3342H243.384Z" fill="#6D6F71"/>
</g>
<path d="M53.6741 8.26244C53.7849 9.91492 55.6687 11.2369 57.3308 10.7963C58.5496 10.5759 59.4361 9.58443 59.6577 8.3726C59.3253 8.81327 58.9929 9.3641 58.5496 9.58443C57.3308 10.3556 55.5579 9.80476 55.1146 8.48277C54.5606 7.16078 55.5579 5.50829 56.9983 5.28796C57.774 5.06763 58.4388 5.61846 59.1037 5.94896C58.4388 5.17779 57.4416 4.62696 56.4443 4.73713C54.7822 4.73713 53.3417 6.49978 53.6741 8.15227M56.3335 0C56.6659 1.32199 57.1091 2.53381 57.774 3.74564C58.4388 2.97448 59.3253 2.20332 60.3225 1.98298C61.9846 1.54232 63.6467 2.31348 64.7548 3.52531C62.9819 2.97448 60.9874 3.30498 59.7685 4.73713C61.4306 4.29647 63.2035 4.40663 64.644 5.28796C65.9737 6.05912 66.9709 7.38111 67.0817 9.0336C66.6385 8.48277 66.1953 7.93194 65.5304 7.49128C64.2008 6.60995 62.6495 6.27945 60.9874 6.49978C62.4279 6.83028 63.8683 7.60144 64.8656 8.7031C66.4169 10.4658 66.7493 12.9996 65.9737 15.0927C65.8629 13.6606 65.5304 12.2284 64.7548 11.0166C63.8683 9.69459 62.6495 8.81327 61.0982 8.3726C62.4279 9.58443 63.5359 11.2369 63.9792 12.9996C64.4224 14.8724 64.2008 16.9655 63.2035 18.618C63.2035 16.8554 63.2035 14.8724 62.4279 13.2199C61.9846 12.3386 61.3198 11.4572 60.5441 10.7963C61.3198 12.6691 61.6522 14.7622 61.209 16.7452C60.8766 18.1774 60.2117 19.4994 59.2145 20.601C59.6577 18.7282 59.9901 16.8554 59.4361 14.9826C59.2145 13.9911 58.6604 13.2199 57.8848 12.5589C57.3308 17.957 56.8875 23.4653 56.3335 28.8634C55.7795 23.4653 55.3362 17.957 54.7822 12.5589C53.7849 13.3301 53.2309 14.6521 53.0093 15.8639C52.7877 17.4062 53.0093 19.0587 53.4525 20.601C51.5688 18.7282 50.904 15.8639 51.3472 13.3301C51.458 12.4487 51.7904 11.6776 52.1228 10.9064C50.7932 12.0081 49.7959 13.6606 49.5743 15.4232C49.3527 16.5249 49.4635 17.6265 49.4635 18.7282C48.3554 16.635 48.2446 14.1012 49.1311 11.8979C49.6851 10.5759 50.5715 9.47426 51.5688 8.48277C49.6851 8.92343 48.1338 10.3556 47.3582 12.0081C46.9149 12.9996 46.6933 14.1012 46.5825 15.0927C46.0285 13.5504 46.1393 11.7877 46.6933 10.2454C47.5798 8.26244 49.4635 6.94045 51.5688 6.49978C50.0175 6.27945 48.3554 6.49978 47.0257 7.49128C46.4717 7.93194 46.0285 8.48277 45.4744 9.0336C45.4744 7.27094 46.8041 5.72862 48.3554 5.06763C49.6851 4.40663 51.3472 4.40663 52.7877 4.73713C51.5688 3.30498 49.5743 2.97448 47.8014 3.52531C48.7987 2.42365 50.2391 1.65249 51.7904 1.87282C53.0093 1.98298 54.0066 2.75415 54.7822 3.74564C55.447 2.64398 55.8903 1.32199 56.2227 0" fill="#C29F68"/>
<path d="M37.8288 25.5584C42.1503 24.6771 46.6933 25.3381 50.7932 27.1008C54.1174 28.5329 57.1092 30.7362 59.7685 33.0497C59.1037 33.6005 58.4388 34.2615 57.774 34.9225C55.1146 32.7192 52.3445 30.6261 49.1311 29.0837C46.0285 27.6516 42.5935 26.6601 39.0477 26.6601C35.5019 26.6601 34.3938 27.2109 32.0669 27.6516C33.8398 26.4398 35.8343 25.8889 37.9396 25.4483" fill="#C29F68"/>
<path d="M64.2008 26.3297C67.9682 25.1179 72.1788 24.7874 76.0571 25.7789C77.7192 26.2196 79.3812 26.7704 80.7109 27.6517C78.8272 27.3212 76.8327 26.8806 74.949 26.7704C71.2924 26.4399 67.5249 27.3212 64.2008 28.8635C62.2062 29.7449 60.4333 30.8465 58.7712 32.0583C57.9956 31.5075 57.3307 30.8465 56.5551 30.2957C58.9928 28.7534 61.4306 27.211 64.2008 26.3297Z" fill="#C29F68"/>
<path d="M38.7151 29.1939C39.6015 29.0838 40.5988 28.9736 41.4853 28.9736C41.4853 29.7447 41.7069 30.5159 41.8177 31.2871C40.8204 31.2871 39.934 31.2871 38.9367 31.3972C38.9367 30.6261 38.8259 29.9651 38.7151 29.1939Z" fill="#C29F68"/>
<path d="M68.6332 31.5075C68.6332 32.1685 68.5224 32.9396 68.4116 33.6006H76.2788C76.2788 32.9396 76.3896 32.1685 76.5004 31.5075C73.9519 30.9567 71.1817 30.9567 68.6332 31.5075ZM62.3172 31.5075C65.1982 29.7448 68.5224 28.7534 71.8466 28.8635C74.3951 28.9737 77.0545 29.6347 79.2706 31.0668C79.049 32.6092 78.7166 35.804 78.7166 35.804H65.5306C65.5306 35.804 65.7522 33.6006 65.863 32.6092C62.2064 34.482 59.2146 37.4564 56.4445 40.4309C55.1148 38.9988 52.2338 36.5751 52.2338 36.5751L54.7824 34.9226L56.4445 36.5751C58.2174 34.7023 60.1011 32.8295 62.3172 31.5075Z" fill="#C29F68"/>
<path d="M44.1448 28.9736C47.2474 29.1939 50.0175 30.8464 52.4553 32.7192C51.5688 33.2701 50.6824 33.8209 49.9067 34.3717C49.0203 33.7107 48.1338 33.0497 47.1365 32.4989C47.1365 33.6006 47.469 35.6937 47.469 35.6937H34.283C34.283 35.6937 33.9506 32.4989 33.8398 30.9566C34.6154 30.4058 35.5019 30.0753 36.3883 29.7448C36.4991 30.9566 36.6099 32.2786 36.7207 33.4904H44.6988C44.4772 31.9481 44.3664 30.4058 44.2556 28.8634" fill="#C29F68"/>
<path d="M49.3529 34.9226C50.9042 33.9312 53.7851 32.0583 53.7851 32.0583L56.0013 33.821C56.0013 33.821 53.3419 35.5836 52.0123 36.465C52.2339 38.3378 52.4555 40.2106 52.6771 42.0834C53.896 42.8546 55.2256 43.6257 56.4445 44.3969C57.6634 43.6257 58.9931 42.8546 60.2119 42.0834C60.4335 40.4309 60.5444 38.7784 60.766 37.126C60.6552 37.126 60.4336 36.9056 60.3227 36.7955C60.9876 36.2446 61.6524 35.5836 62.4281 35.0328C62.7605 35.2531 63.0929 35.4735 63.4253 35.6938C63.0929 38.3378 62.8713 40.8716 62.5389 43.5156C60.4336 44.8376 58.439 46.0494 56.3337 47.3714C54.2284 46.0494 52.2339 44.8376 50.1285 43.5156C49.7961 40.6513 49.4637 37.8971 49.2421 35.0328" fill="#C29F68"/>
<path d="M34.2831 37.4563H47.4691C47.4691 38.3377 47.6907 39.219 47.8015 40.1003H37.3857C37.7181 43.8459 38.1613 47.5916 38.4937 51.3372C40.3774 52.549 42.2611 53.6507 44.1449 54.8625C44.5881 54.0914 45.0313 53.4304 45.4745 52.6592C43.9232 51.6677 42.372 50.7864 40.9315 49.7949C40.7099 47.3713 40.4882 45.0578 40.2666 42.6341H48.1339C48.1339 43.5155 48.2447 44.3968 48.3555 45.2781C49.5744 45.9391 50.6824 46.7103 51.9013 47.3713C51.4581 48.1424 51.0149 48.9136 50.4608 49.5746C49.0203 48.6932 47.6907 47.8119 46.2502 46.9306C45.5854 46.6001 45.807 45.7188 45.6962 45.0578H43.0368C43.1476 46.0493 43.2584 47.0408 43.3692 47.9221C43.3692 48.2526 43.7016 48.3627 43.9232 48.4729C45.6962 49.4644 49.1312 51.6677 49.1312 51.6677L45.0313 58.3878L36.056 52.8795C36.056 52.8795 34.9479 42.4138 34.3939 37.4563H34.2831Z" fill="#26B3BB"/>
<path d="M53.1201 54.3117C54.2282 54.9727 55.3362 55.6337 56.3335 56.4049C57.4416 55.7439 58.5496 55.0829 59.5469 54.3117C59.2145 53.5405 58.882 52.7694 58.5496 51.9982C57.774 52.4389 57.1091 52.8795 56.3335 53.3202C55.5578 52.8795 54.7822 52.4389 54.1174 51.9982C53.7849 52.7694 53.4525 53.5405 53.1201 54.3117ZM67.7466 40.1003C67.6358 41.4223 67.525 42.8545 67.3033 44.1764C68.079 44.7273 68.9654 45.2781 69.7411 45.7188C69.9627 43.8459 70.0735 41.9731 70.2951 40.1003H67.6358M65.4196 37.4563H78.6056L76.9435 52.8795C76.9435 52.8795 63.3143 61.3623 56.4443 65.5486C53.5633 63.786 50.6824 62.0233 47.8014 60.2607C48.1338 59.3793 48.4662 58.6082 48.7986 57.837C51.3472 59.3793 53.8958 61.0318 56.4443 62.5741C58.2172 61.4725 59.9901 60.3708 61.8738 59.2692C61.5414 58.498 61.209 57.7268 60.8766 56.8455C59.4361 57.7268 57.9956 58.6082 56.5551 59.4895C54.339 58.1675 52.1228 56.7353 50.0175 55.3032C51.0148 52.8795 52.1228 50.4559 53.1201 48.0322C54.339 48.6932 55.447 49.4644 56.5551 50.1254C57.774 49.4644 58.882 48.6932 59.9901 48.0322C61.3198 51.2271 62.7603 54.4219 64.09 57.7268C67.525 55.6337 70.96 53.4304 74.5058 51.3372C74.8382 47.5916 75.2814 43.8459 75.6138 40.1003H73.0653C72.7329 43.4053 72.4004 46.6001 72.068 49.9051C69.6303 48.3627 67.1925 46.8204 64.644 45.2781C64.8656 42.6341 65.198 40.1003 65.5304 37.4563" fill="#26B3BB"/>
<path d="M60.9875 47.4816C61.6523 47.0409 62.3172 46.6002 63.0928 46.1596C63.7577 46.7104 64.5333 47.2612 65.1982 47.9222C64.3117 48.4731 63.4253 49.0239 62.5388 49.5747C62.0956 48.9137 61.5415 48.1426 60.9875 47.4816Z" fill="#26B3BB"/>
<path d="M63.9792 51.6677C65.0873 51.0067 66.1954 50.3457 67.1926 49.5746C67.9683 50.1254 68.6331 50.7864 69.4087 51.3372C68.0791 52.1084 66.8602 52.9897 65.5305 53.7609C64.9765 53.0999 64.5333 52.3287 63.9792 51.6677Z" fill="#26B3BB"/>
<path d="M12.8172 95.6073C13.1751 94.3039 13.6544 92.7685 14.2551 91.001H16.0766V97.0378H14.8112V92.1359C14.5108 93.4265 14.0187 95.0605 13.3348 97.0378H12.2899C11.5677 94.8571 11.0788 93.239 10.8232 92.1836V97.0378H9.58651V91.001H11.3313C11.932 92.6286 12.4273 94.1641 12.8172 95.6073Z" fill="#6D6F71"/>
<path d="M21.425 95.264H18.434C18.4596 95.5564 18.5778 95.8012 18.7887 95.9983C19.006 96.189 19.2617 96.2844 19.5556 96.2844C19.9711 96.2844 20.4057 96.1573 20.8594 95.9029L21.1662 96.5419C20.706 96.9488 20.1308 97.1523 19.4406 97.1523C18.6993 97.1523 18.1209 96.9425 17.7055 96.5228C17.3092 96.1286 17.1111 95.585 17.1111 94.892C17.1111 94.2117 17.3348 93.6491 17.7821 93.204C18.1848 92.7971 18.6961 92.5936 19.316 92.5936C20.0062 92.5936 20.5431 92.8257 20.9265 93.2898C21.2588 93.684 21.425 94.1958 21.425 94.8253V95.264ZM18.3669 94.377H20.2171C20.1852 93.754 19.8816 93.4424 19.3064 93.4424C18.7504 93.4424 18.4372 93.754 18.3669 94.377Z" fill="#6D6F71"/>
<path d="M25.4549 97.0378L25.2823 96.5801C25.1801 96.7454 25.0139 96.8821 24.7838 96.9901C24.5537 97.0982 24.3173 97.1523 24.0744 97.1523C23.3906 97.1523 22.8697 96.9266 22.5118 96.4752C22.2114 96.1 22.0612 95.6168 22.0612 95.0256C22.0612 94.1927 22.3041 93.5505 22.7898 93.0991C23.1541 92.7621 23.5919 92.5936 24.1032 92.5936C24.5442 92.5936 24.9148 92.7144 25.2152 92.956V91.5732L26.4231 90.9056V97.0378H25.4549ZM25.2152 95.3879V94.1768C25.1705 93.967 25.0682 93.7953 24.9084 93.6618C24.7551 93.5219 24.5729 93.452 24.362 93.452C24.0361 93.452 23.7772 93.5791 23.5855 93.8334C23.3938 94.0878 23.2979 94.4311 23.2979 94.8634C23.2979 95.8107 23.6079 96.2844 24.2278 96.2844C24.4579 96.2844 24.672 96.1954 24.8701 96.0174C25.0682 95.833 25.1833 95.6232 25.2152 95.3879Z" fill="#6D6F71"/>
<path d="M28.7962 92.7081V97.0378H27.5787V92.7081H28.7962ZM27.4349 91.6018C27.4349 91.3983 27.5052 91.2235 27.6458 91.0773C27.7928 90.9247 27.9654 90.8484 28.1635 90.8484C28.3744 90.8484 28.5534 90.9215 28.7004 91.0677C28.8537 91.214 28.9304 91.392 28.9304 91.6018C28.9304 91.8243 28.8569 92.0055 28.7099 92.1454C28.5693 92.2853 28.3872 92.3552 28.1635 92.3552C27.9526 92.3552 27.7769 92.2853 27.6362 92.1454C27.502 91.9992 27.4349 91.818 27.4349 91.6018Z" fill="#6D6F71"/>
<path d="M33.5986 96.4847C33.1448 96.9297 32.608 97.1523 31.9881 97.1523C31.2467 97.1523 30.6587 96.917 30.2242 96.4465C29.8471 96.0333 29.6586 95.5151 29.6586 94.892C29.6586 94.1927 29.9014 93.6204 30.3871 93.1754C30.8089 92.7876 31.3234 92.5936 31.9306 92.5936C32.6016 92.5936 33.1417 92.8035 33.5507 93.2231L33.1864 93.8716C32.8604 93.5855 32.5057 93.4424 32.1223 93.4424C31.7644 93.4424 31.4704 93.5823 31.2403 93.862C31.0103 94.1354 30.8952 94.4883 30.8952 94.9206C30.8952 95.3212 31.0071 95.6518 31.2307 95.9125C31.4608 96.1668 31.7516 96.294 32.1031 96.294C32.5249 96.294 32.886 96.1382 33.1864 95.8266L33.5986 96.4847Z" fill="#6D6F71"/>
<path d="M37.9275 97.0378H36.9593L36.8634 96.6277C36.4416 96.9774 36.0134 97.1523 35.5788 97.1523C34.6138 97.1523 34.1313 96.685 34.1313 95.7503C34.1313 95.2862 34.3326 94.9238 34.7352 94.6631C35.1442 94.3961 35.7482 94.2626 36.5471 94.2626H36.7484V94.2435C36.7484 93.9701 36.6909 93.7826 36.5758 93.6808C36.4608 93.5791 36.2531 93.5283 35.9527 93.5283C35.5309 93.5283 35.1442 93.6618 34.7927 93.9288C34.6777 93.719 34.569 93.5124 34.4668 93.3089C34.8311 93.0292 35.1474 92.8416 35.4158 92.7462C35.6907 92.6445 36.0166 92.5936 36.3937 92.5936C37.4162 92.5936 37.9275 93.2294 37.9275 94.501V97.0378ZM36.71 94.9969H36.5662C36.2019 94.9969 35.908 95.0605 35.6843 95.1877C35.4606 95.3148 35.3487 95.4833 35.3487 95.6931C35.3487 96.0873 35.5213 96.2844 35.8664 96.2844C36.0773 96.2844 36.2627 96.224 36.4224 96.1032C36.5822 95.9824 36.6781 95.8298 36.71 95.6454V94.9969Z" fill="#6D6F71"/>
<path d="M40.3429 90.8865V97.0378H39.135V91.516L40.3429 90.8865Z" fill="#6D6F71"/>
<path d="M48.2033 96.3607C47.6729 96.8884 47.0498 97.1523 46.334 97.1523C45.305 97.1523 44.5381 96.7708 44.0332 96.0078C43.6689 95.4611 43.4868 94.8189 43.4868 94.0814C43.4868 93.1213 43.736 92.3489 44.2345 91.7639C44.7266 91.179 45.4105 90.8865 46.286 90.8865C46.8996 90.8865 47.5131 91.144 48.1267 91.659L47.6377 92.4506C47.1776 92.12 46.759 91.9547 46.3819 91.9547C45.8578 91.9547 45.452 92.174 45.1644 92.6127C44.9152 92.9878 44.7906 93.4774 44.7906 94.0814C44.7906 94.6155 44.9375 95.0732 45.2315 95.4547C45.5447 95.8553 45.9633 96.0555 46.4874 96.0555C46.8325 96.0555 47.2415 95.9061 47.7144 95.6073L48.2033 96.3607Z" fill="#6D6F71"/>
<path d="M50.3149 92.7081V97.0378H49.0974V92.7081H50.3149ZM48.9536 91.6018C48.9536 91.3983 49.0239 91.2235 49.1645 91.0773C49.3115 90.9247 49.4841 90.8484 49.6822 90.8484C49.8931 90.8484 50.0721 90.9215 50.2191 91.0677C50.3724 91.214 50.4491 91.392 50.4491 91.6018C50.4491 91.8243 50.3756 92.0055 50.2286 92.1454C50.088 92.2853 49.9059 92.3552 49.6822 92.3552C49.4713 92.3552 49.2956 92.2853 49.155 92.1454C49.0207 91.9992 48.9536 91.818 48.9536 91.6018Z" fill="#6D6F71"/>
<path d="M54.1874 93.6713H52.9412V95.8171C52.9412 96.135 53.0466 96.294 53.2575 96.294C53.4493 96.294 53.6889 96.2113 53.9765 96.046L54.3792 96.6564C53.9254 97.0124 53.4237 97.1904 52.8741 97.1904C52.1072 97.1904 51.7237 96.7708 51.7237 95.9316V93.6713H51.1197V92.7081H51.7333V91.9356C52.0528 91.7639 52.4587 91.5509 52.9508 91.2966V92.7081H54.1874V93.6713Z" fill="#6D6F71"/>
<path d="M56.3488 92.7081V97.0378H55.1313V92.7081H56.3488ZM54.9875 91.6018C54.9875 91.3983 55.0578 91.2235 55.1984 91.0773C55.3454 90.9247 55.518 90.8484 55.7161 90.8484C55.927 90.8484 56.106 90.9215 56.2529 91.0677C56.4063 91.214 56.483 91.392 56.483 91.6018C56.483 91.8243 56.4095 92.0055 56.2625 92.1454C56.1219 92.2853 55.9398 92.3552 55.7161 92.3552C55.5052 92.3552 55.3294 92.2853 55.1888 92.1454C55.0546 91.9992 54.9875 91.818 54.9875 91.6018Z" fill="#6D6F71"/>
<path d="M61.5251 95.264H58.5341C58.5596 95.5564 58.6779 95.8012 58.8888 95.9983C59.1061 96.189 59.3617 96.2844 59.6557 96.2844C60.0711 96.2844 60.5057 96.1573 60.9595 95.9029L61.2662 96.5419C60.8061 96.9488 60.2309 97.1523 59.5407 97.1523C58.7993 97.1523 58.2209 96.9425 57.8055 96.5228C57.4093 96.1286 57.2111 95.585 57.2111 94.892C57.2111 94.2117 57.4348 93.6491 57.8822 93.204C58.2848 92.7971 58.7961 92.5936 59.416 92.5936C60.1063 92.5936 60.6431 92.8257 61.0266 93.2898C61.3589 93.684 61.5251 94.1958 61.5251 94.8253V95.264ZM58.467 94.377H60.3172C60.2852 93.754 59.9816 93.4424 59.4065 93.4424C58.8504 93.4424 58.5373 93.754 58.467 94.377Z" fill="#6D6F71"/>
<path d="M64.9893 93.7571C64.6762 93.5537 64.3183 93.452 63.9156 93.452C63.6089 93.452 63.4555 93.5823 63.4555 93.843C63.4555 94.0846 63.6632 94.2562 64.0786 94.358C64.5963 94.4851 64.9478 94.6282 65.1331 94.7871C65.4015 95.016 65.5358 95.3593 65.5358 95.8171C65.5358 96.224 65.3888 96.5483 65.0948 96.7899C64.8072 97.0315 64.4173 97.1523 63.9252 97.1523C63.2286 97.1523 62.6406 96.9552 62.1613 96.561L62.6023 95.8934C62.9346 96.1541 63.334 96.2844 63.8006 96.2844C63.9859 96.2844 64.1361 96.2399 64.2512 96.1509C64.3662 96.0619 64.4237 95.9443 64.4237 95.798C64.4237 95.531 64.1968 95.3562 63.7431 95.2735C62.7716 95.0891 62.2859 94.6186 62.2859 93.862C62.2859 93.4996 62.4329 93.1976 62.7269 92.956C63.0273 92.7144 63.4012 92.5936 63.8485 92.5936C64.4557 92.5936 64.9829 92.7685 65.4303 93.1182L64.9893 93.7571Z" fill="#6D6F71"/>
<path d="M68.7757 97.0378V91.0105C68.8652 90.9914 69.1176 90.966 69.533 90.9342C69.9484 90.9024 70.2648 90.8865 70.4821 90.8865C72.0287 90.8865 72.802 91.516 72.802 92.7748C72.802 93.5569 72.5336 94.1291 71.9968 94.4915C71.6389 94.7394 71.2171 94.8634 70.7313 94.8634C70.3479 94.8634 70.1146 94.838 70.0315 94.7871V97.0378H68.7757ZM70.0315 91.9547V93.7762C70.1977 93.8398 70.4054 93.8716 70.6546 93.8716C70.9103 93.8716 71.1116 93.7826 71.2586 93.6045C71.4056 93.4202 71.4791 93.169 71.4791 92.8511C71.4791 92.209 71.1947 91.8879 70.6259 91.8879C70.2999 91.8879 70.1018 91.9102 70.0315 91.9547Z" fill="#6D6F71"/>
<path d="M74.7676 92.7081L74.8827 93.0896C74.9466 92.956 75.068 92.8416 75.247 92.7462C75.4323 92.6445 75.6208 92.5936 75.8126 92.5936C76.3878 92.5936 76.8159 92.8639 77.0972 93.4043L76.081 93.9574C75.8701 93.7158 75.6464 93.595 75.4099 93.595C75.1926 93.595 75.0329 93.7063 74.9306 93.9288V97.0378H73.7419V92.7081H74.7676Z" fill="#6D6F71"/>
<path d="M79.2791 92.5936C79.9948 92.5936 80.5509 92.8448 80.9471 93.3471C81.2794 93.7667 81.4456 94.2785 81.4456 94.8825C81.4456 95.5882 81.1996 96.1604 80.7074 96.5991C80.2984 96.9679 79.8223 97.1523 79.2791 97.1523C78.6463 97.1523 78.1159 96.917 77.6877 96.4465C77.3042 96.0206 77.1125 95.4992 77.1125 94.8825C77.1125 94.1831 77.3266 93.6173 77.7548 93.1849C78.1447 92.7907 78.6527 92.5936 79.2791 92.5936ZM79.2791 96.2558C79.899 96.2558 80.2089 95.798 80.2089 94.8825C80.2089 93.9288 79.899 93.452 79.2791 93.452C78.6591 93.452 78.3492 93.9288 78.3492 94.8825C78.3492 95.798 78.6591 96.2558 79.2791 96.2558Z" fill="#6D6F71"/>
<path d="M85.1299 96.5133C84.8423 96.9393 84.4365 97.1523 83.9124 97.1523C83.2733 97.1523 82.778 96.9266 82.4265 96.4752C82.1261 96.0937 81.9759 95.6105 81.9759 95.0256C81.9759 94.1927 82.2188 93.5505 82.7045 93.0991C83.0752 92.7621 83.513 92.5936 84.0179 92.5936C84.4205 92.5936 84.7624 92.6922 85.0436 92.8893C85.229 93.0164 85.3216 93.1118 85.3216 93.1754L85.4175 92.7081H86.3474V96.5896C86.3474 97.3208 86.1652 97.8834 85.8009 98.2776C85.4431 98.6655 84.9318 98.8594 84.2671 98.8594C83.5769 98.8594 82.9793 98.6305 82.4744 98.1727L82.7812 97.5624C83.171 97.8167 83.6088 97.9438 84.0945 97.9438C84.7848 97.9438 85.1299 97.467 85.1299 96.5133ZM85.1299 94.1768C85.1043 93.9797 85.0053 93.8112 84.8327 93.6713C84.6665 93.5251 84.4812 93.452 84.2767 93.452C83.9571 93.452 83.7015 93.5791 83.5098 93.8334C83.318 94.0878 83.2222 94.4311 83.2222 94.8634C83.2222 95.8107 83.5353 96.2844 84.1617 96.2844C84.4237 96.2844 84.6506 96.1859 84.8423 95.9888C85.034 95.7853 85.1299 95.5469 85.1299 95.2735V94.1768Z" fill="#6D6F71"/>
<path d="M88.5789 92.7081L88.694 93.0896C88.7579 92.956 88.8793 92.8416 89.0583 92.7462C89.2436 92.6445 89.4321 92.5936 89.6239 92.5936C90.1991 92.5936 90.6273 92.8639 90.9085 93.4043L89.8923 93.9574C89.6814 93.7158 89.4577 93.595 89.2212 93.595C89.0039 93.595 88.8442 93.7063 88.7419 93.9288V97.0378H87.5532V92.7081H88.5789Z" fill="#6D6F71"/>
<path d="M94.7762 97.0378H93.808L93.7121 96.6277C93.2903 96.9774 92.8621 97.1523 92.4275 97.1523C91.4625 97.1523 90.98 96.685 90.98 95.7503C90.98 95.2862 91.1813 94.9238 91.5839 94.6631C91.993 94.3961 92.5969 94.2626 93.3958 94.2626H93.5971V94.2435C93.5971 93.9701 93.5396 93.7826 93.4245 93.6808C93.3095 93.5791 93.1018 93.5283 92.8014 93.5283C92.3796 93.5283 91.993 93.6618 91.6415 93.9288C91.5264 93.719 91.4178 93.5124 91.3155 93.3089C91.6798 93.0292 91.9962 92.8416 92.2646 92.7462C92.5394 92.6445 92.8653 92.5936 93.2424 92.5936C94.265 92.5936 94.7762 93.2294 94.7762 94.501V97.0378ZM93.5588 94.9969H93.415C93.0507 94.9969 92.7567 95.0605 92.533 95.1877C92.3093 95.3148 92.1975 95.4833 92.1975 95.6931C92.1975 96.0873 92.37 96.2844 92.7151 96.2844C92.926 96.2844 93.1114 96.224 93.2712 96.1032C93.4309 95.9824 93.5268 95.8298 93.5588 95.6454V94.9969Z" fill="#6D6F71"/>
<path d="M97.1437 93.1277C97.5016 92.7717 97.9489 92.5936 98.4858 92.5936C98.8564 92.5936 99.1824 92.6731 99.4636 92.8321C99.7512 92.9847 99.9493 93.1913 100.058 93.452C100.199 93.1976 100.416 92.991 100.71 92.8321C101.01 92.6731 101.336 92.5936 101.688 92.5936C102.71 92.5936 103.222 93.2104 103.222 94.4438V97.0378H102.004V94.7681C102.004 94.3421 101.94 94.0433 101.812 93.8716C101.691 93.6936 101.483 93.6045 101.189 93.6045C100.767 93.6045 100.425 93.7699 100.163 94.1005V97.0378H98.9555V94.6345C98.9555 94.2594 98.8884 93.9956 98.7542 93.843C98.62 93.684 98.3899 93.6045 98.064 93.6045C97.8722 93.6045 97.6901 93.6332 97.5175 93.6904C97.3514 93.7476 97.2427 93.8175 97.1916 93.9002V97.0378H95.9837V92.7081H97.0094L97.0957 93.1277H97.1437Z" fill="#6D6F71"/>
<path d="M1.24625 77.3442C1.05452 77.3442 0.901132 77.2869 0.786094 77.1725C0.671055 77.0581 0.613536 76.9023 0.613536 76.7052C0.613536 76.2919 0.82444 76.0853 1.24625 76.0853C1.43798 76.0853 1.58816 76.1425 1.69681 76.257C1.81185 76.365 1.86937 76.5145 1.86937 76.7052C1.86937 77.1312 1.66166 77.3442 1.24625 77.3442ZM2.72257 77.3442C2.53084 77.3442 2.37745 77.2869 2.26242 77.1725C2.14738 77.0581 2.08986 76.9023 2.08986 76.7052C2.08986 76.2919 2.30076 76.0853 2.72257 76.0853C2.9143 76.0853 3.06449 76.1425 3.17313 76.257C3.28817 76.365 3.34569 76.5145 3.34569 76.7052C3.34569 77.1312 3.13798 77.3442 2.72257 77.3442ZM4.34269 81.5785H5.20547V82.7325H4.22765C3.63329 82.7325 3.17313 82.5354 2.84719 82.1412C2.57238 82.351 2.23685 82.4559 1.84061 82.4559C1.25264 82.4559 0.782898 82.2366 0.431393 81.7979C0.143798 81.4355 0 81 0 80.4913C0 79.8619 0.204512 79.3501 0.613536 78.9559C0.958651 78.6253 1.35809 78.46 1.81185 78.46C2.04832 78.46 2.26561 78.5045 2.46373 78.5935V78.3455L3.66205 77.7161V80.8919C3.66205 81.1398 3.71317 81.3179 3.81543 81.4259C3.92408 81.5277 4.09983 81.5785 4.34269 81.5785ZM2.46373 79.7951C2.29757 79.6553 2.10903 79.5853 1.89813 79.5853C1.68723 79.5853 1.51467 79.6712 1.38046 79.8428C1.25264 80.0145 1.18873 80.2402 1.18873 80.5199C1.18873 80.7997 1.25264 81.0222 1.38046 81.1875C1.50828 81.3528 1.68403 81.4355 1.90771 81.4355C2.15057 81.4355 2.33911 81.3528 2.47332 81.1875C2.46693 81.1367 2.46373 81.0572 2.46373 80.9491V79.7951Z" fill="#6D6F71"/>
<path d="M7.94691 81.5785H8.8097V82.7325H7.83188C7.36533 82.7325 6.97868 82.6085 6.67191 82.3606C6.36514 82.6085 5.97848 82.7325 5.51194 82.7325H4.53412V81.5785H5.3969C5.63976 81.5785 5.81232 81.5277 5.91457 81.4259C6.01683 81.3179 6.06796 81.1398 6.06796 80.8919V79.1276L7.27586 78.4981V80.8919C7.27586 81.1398 7.32699 81.3179 7.42924 81.4259C7.5315 81.5277 7.70406 81.5785 7.94691 81.5785ZM5.46401 83.6004C5.65574 83.6004 5.80593 83.6544 5.91457 83.7625C6.02961 83.8769 6.08713 84.0295 6.08713 84.2203C6.08713 84.6462 5.87942 84.8592 5.46401 84.8592C5.27228 84.8592 5.11889 84.802 5.00386 84.6876C4.88882 84.5731 4.8313 84.4173 4.8313 84.2203C4.8313 83.807 5.0422 83.6004 5.46401 83.6004ZM6.94033 83.6004C7.13206 83.6004 7.28225 83.6544 7.3909 83.7625C7.50593 83.8769 7.56345 84.0295 7.56345 84.2203C7.56345 84.6462 7.35575 84.8592 6.94033 84.8592C6.7486 84.8592 6.59522 84.802 6.48018 84.6876C6.36514 84.5731 6.30762 84.4173 6.30762 84.2203C6.30762 83.807 6.51852 83.6004 6.94033 83.6004Z" fill="#6D6F71"/>
<path d="M11.549 81.5785H12.4118V82.7325H11.4339C10.9674 82.7325 10.5807 82.6085 10.274 82.3606C9.9672 82.6085 9.58054 82.7325 9.114 82.7325H8.13617V81.5785H8.99896C9.24182 81.5785 9.41437 81.5277 9.51663 81.4259C9.61889 81.3179 9.67001 81.1398 9.67001 80.8919V79.1276L10.8779 78.4981V80.8919C10.8779 81.1398 10.929 81.3179 11.0313 81.4259C11.1336 81.5277 11.3061 81.5785 11.549 81.5785ZM10.3315 83.6004C10.5232 83.6004 10.6734 83.6544 10.782 83.7625C10.8971 83.8769 10.9546 84.0295 10.9546 84.2203C10.9546 84.6462 10.7469 84.8592 10.3315 84.8592C10.1398 84.8592 9.98637 84.802 9.87133 84.6876C9.75629 84.5731 9.69877 84.4173 9.69877 84.2203C9.69877 84.0359 9.75629 83.8865 9.87133 83.772C9.98637 83.6576 10.1398 83.6004 10.3315 83.6004Z" fill="#6D6F71"/>
<path d="M20.0881 81.5785H20.9509V82.7325H19.973C19.5129 82.7325 19.1358 82.6149 18.8418 82.3796C18.5478 82.6149 18.1804 82.7325 17.7394 82.7325H11.7382V81.5785H13.4542L13.5692 81.2543V77.2202L14.7771 76.5812V79.3278C15.429 78.6666 16.1768 78.336 17.0204 78.336C17.7809 78.336 18.3849 78.5967 18.8322 79.118C19.2157 79.5567 19.4074 80.1003 19.4074 80.7488V80.9491C19.4074 81.3687 19.6343 81.5785 20.0881 81.5785ZM17.6914 81.5785C17.9023 81.5785 18.0398 81.5372 18.1037 81.4546C18.174 81.3719 18.2091 81.1971 18.2091 80.93V80.7488C18.2091 80.3674 18.0973 80.0558 17.8736 79.8142C17.6563 79.5726 17.3751 79.4518 17.03 79.4518C16.589 79.4518 16.1672 79.6139 15.7646 79.9382C15.3683 80.2624 15.0392 80.7107 14.7771 81.2829V81.5785H17.6914Z" fill="#6D6F71"/>
<path d="M20.2833 82.7325V81.5785H20.8873C21.1813 81.5785 21.389 81.515 21.5104 81.3878C21.6382 81.2606 21.7021 81.0445 21.7021 80.7393V77.2202L22.9004 76.5812V80.7488C22.9004 81.3655 22.7119 81.8583 22.3348 82.227C21.9897 82.564 21.5296 82.7325 20.9544 82.7325H20.2833Z" fill="#6D6F71"/>
<path d="M24.5302 82.7325V77.2202L25.7381 76.5812V82.7325H24.5302Z" fill="#6D6F71"/>
<path d="M31.8917 78.603C31.7 78.603 31.5466 78.5458 31.4315 78.4314C31.3165 78.3169 31.259 78.1612 31.259 77.9641C31.259 77.7797 31.3165 77.6303 31.4315 77.5158C31.5466 77.4014 31.7 77.3442 31.8917 77.3442C32.0834 77.3442 32.2336 77.4014 32.3423 77.5158C32.4573 77.6239 32.5148 77.7733 32.5148 77.9641C32.5148 78.39 32.3071 78.603 31.8917 78.603ZM34.5471 82.1221C34.5471 82.8851 34.2819 83.4923 33.7515 83.9437C33.2785 84.3442 32.6746 84.5445 31.9396 84.5445C31.0768 84.5445 30.409 84.2425 29.936 83.6385C29.5654 83.168 29.38 82.6149 29.38 81.9791C29.38 81.4768 29.4983 81.0381 29.7347 80.663L30.8851 80.4246C30.6295 80.8569 30.5016 81.3115 30.5016 81.7883C30.5016 82.2715 30.639 82.6626 30.9139 82.9614C31.1759 83.2475 31.5178 83.3905 31.9396 83.3905C32.3806 83.3905 32.7225 83.2793 32.9654 83.0568C33.2146 82.8342 33.3392 82.5227 33.3392 82.1221V79.1276L34.5471 78.4981V82.1221Z" fill="#6D6F71"/>
<path d="M35.412 82.7325L36.016 81.5785H37.5306C37.8566 81.5785 38.0196 81.391 38.0196 81.0159C38.0196 80.3165 37.6808 79.7792 37.0034 79.4041L37.5978 78.3837C38.5948 78.9622 39.1316 79.7475 39.2083 80.7393C39.2338 81.0572 39.3042 81.2765 39.4192 81.3973C39.5406 81.5181 39.7451 81.5785 40.0327 81.5785H40.7613V82.7325H39.9656C39.4927 82.7325 39.0932 82.6022 38.7673 82.3415C38.5308 82.6022 38.1921 82.7325 37.7511 82.7325H35.412Z" fill="#6D6F71"/>
<path d="M46.1881 81.5785H47.0413V82.7325H46.0635C45.6033 82.7325 45.2262 82.6149 44.9323 82.3796C44.5871 82.742 44.1334 82.9232 43.571 82.9232C42.9958 82.9232 42.542 82.742 42.2097 82.3796C41.9029 82.6149 41.5226 82.7325 41.0689 82.7325H40.0911V81.5785H40.9539C41.1967 81.5785 41.3693 81.5277 41.4715 81.4259C41.5738 81.3179 41.6249 81.1398 41.6249 80.8919V80.6153C41.6249 79.8714 41.8198 79.2929 42.2097 78.8796C42.5484 78.5172 43.0022 78.336 43.571 78.336C44.2165 78.336 44.715 78.5712 45.0665 79.0417C45.3604 79.4423 45.5074 79.9668 45.5074 80.6153V80.8919C45.5074 81.1398 45.5586 81.3179 45.6608 81.4259C45.7695 81.5277 45.9452 81.5785 46.1881 81.5785ZM43.571 81.7693C44.0567 81.7693 44.2995 81.3751 44.2995 80.5867C44.2995 79.8301 44.0567 79.4518 43.571 79.4518C43.0789 79.4518 42.8328 79.8301 42.8328 80.5867C42.8328 81.3751 43.0789 81.7693 43.571 81.7693Z" fill="#6D6F71"/>
<path d="M46.3706 82.7325V81.5785H46.9746C47.2685 81.5785 47.4762 81.515 47.5977 81.3878C47.7255 81.2606 47.7894 81.0445 47.7894 80.7393V77.2202L48.9877 76.5812V80.7488C48.9877 81.3655 48.7992 81.8583 48.4221 82.227C48.077 82.564 47.6168 82.7325 47.0417 82.7325H46.3706Z" fill="#6D6F71"/>
<path d="M50.6175 82.7325V77.2202L51.8254 76.5812V82.7325H50.6175Z" fill="#6D6F71"/>
<path d="M61.5451 81.5785H62.5421V82.7325H61.4301C61.2384 82.7325 61.0275 82.6848 60.7974 82.5894C60.6568 83.2189 60.3277 83.7148 59.81 84.0772C59.3434 84.3951 58.7906 84.554 58.1515 84.554C57.244 84.554 56.541 84.2552 56.0425 83.6576C55.659 83.1998 55.4673 82.6562 55.4673 82.0268C55.4673 81.5308 55.5823 81.0922 55.8124 80.7107L57.0011 80.4436C56.7391 80.8569 56.6081 81.3306 56.6081 81.8646C56.6081 82.3351 56.7455 82.7071 57.0203 82.9805C57.3015 83.2602 57.6786 83.4001 58.1515 83.4001C58.6181 83.4001 58.9887 83.2697 59.2636 83.0091C59.5384 82.7484 59.6758 82.3924 59.6758 81.9409V77.2202L60.8741 76.5812V80.8919C60.8741 81.1398 60.9252 81.3179 61.0275 81.4259C61.1297 81.5277 61.3023 81.5785 61.5451 81.5785Z" fill="#6D6F71"/>
<path d="M65.2869 81.5785H66.1497V82.7325H65.1719C64.7054 82.7325 64.3187 82.6085 64.0119 82.3606C63.7052 82.6085 63.3185 82.7325 62.852 82.7325H61.8742V81.5785H62.7369C62.9798 81.5785 63.1524 81.5277 63.2546 81.4259C63.3569 81.3179 63.408 81.1398 63.408 80.8919V79.1276L64.6159 78.4981V80.8919C64.6159 81.1398 64.667 81.3179 64.7693 81.4259C64.8715 81.5277 65.0441 81.5785 65.2869 81.5785ZM62.804 83.6004C62.9958 83.6004 63.146 83.6544 63.2546 83.7625C63.3696 83.8769 63.4272 84.0295 63.4272 84.2203C63.4272 84.6462 63.2195 84.8592 62.804 84.8592C62.6123 84.8592 62.4589 84.802 62.3439 84.6876C62.2289 84.5731 62.1713 84.4173 62.1713 84.2203C62.1713 83.807 62.3822 83.6004 62.804 83.6004ZM64.2804 83.6004C64.4721 83.6004 64.6223 83.6544 64.7309 83.7625C64.846 83.8769 64.9035 84.0295 64.9035 84.2203C64.9035 84.6462 64.6958 84.8592 64.2804 84.8592C64.0886 84.8592 63.9353 84.802 63.8202 84.6876C63.7052 84.5731 63.6477 84.4173 63.6477 84.2203C63.6477 83.807 63.8586 83.6004 64.2804 83.6004Z" fill="#6D6F71"/>
<path d="M69.1287 77.5349C68.9369 77.5349 68.7836 77.4777 68.6685 77.3632C68.5535 77.2488 68.496 77.093 68.496 76.8959C68.496 76.7115 68.5535 76.5621 68.6685 76.4477C68.7836 76.3332 68.9369 76.276 69.1287 76.276C69.3204 76.276 69.4706 76.3332 69.5792 76.4477C69.6943 76.5558 69.7518 76.7052 69.7518 76.8959C69.7518 77.3219 69.5441 77.5349 69.1287 77.5349ZM70.1832 81.5785H72.8195L72.8386 82.7325H70.0681C69.7422 82.7325 69.4354 82.653 69.1478 82.4941C68.8475 82.653 68.5407 82.7325 68.2275 82.7325H65.4762V81.5785H68.0837C67.7961 81.3814 67.5565 81.1939 67.3648 81.0159C67.2561 80.9205 67.0899 80.7425 66.8663 80.4818C66.796 80.3991 66.7384 80.3324 66.6937 80.2815V79.7379C66.9749 79.3119 67.336 78.9718 67.777 78.7175C68.2243 78.4631 68.6813 78.336 69.1478 78.336C69.608 78.336 70.0618 78.4663 70.5091 78.727C70.9565 78.9813 71.3272 79.3247 71.6212 79.757V80.2815C71.193 80.7965 70.7136 81.2288 70.1832 81.5785ZM69.1383 81.1208C69.6176 80.7456 69.9723 80.3673 70.2024 79.9859C69.8189 79.6298 69.4578 79.4518 69.1191 79.4518C68.7931 79.4518 68.4544 79.6298 68.1029 79.9859C68.3522 80.4246 68.6973 80.8029 69.1383 81.1208Z" fill="#6D6F71"/>
<path d="M77.6128 76.257C77.2293 76.257 77.0376 76.063 77.0376 75.6752C77.0376 75.3001 77.2293 75.1125 77.6128 75.1125C77.9899 75.1125 78.1784 75.3001 78.1784 75.6752C78.1784 76.063 77.9899 76.257 77.6128 76.257ZM76.8842 77.6589C76.6925 77.6589 76.5391 77.6017 76.4241 77.4872C76.309 77.3728 76.2515 77.217 76.2515 77.0199C76.2515 76.8355 76.309 76.6861 76.4241 76.5717C76.5391 76.4572 76.6925 76.4 76.8842 76.4C77.076 76.4 77.2261 76.4572 77.3348 76.5717C77.4498 76.6797 77.5074 76.8292 77.5074 77.0199C77.5074 77.4459 77.2996 77.6589 76.8842 77.6589ZM78.3606 77.6589C78.1688 77.6589 78.0154 77.6017 77.9004 77.4872C77.7854 77.3728 77.7278 77.217 77.7278 77.0199C77.7278 76.8355 77.7854 76.6861 77.9004 76.5717C78.0154 76.4572 78.1688 76.4 78.3606 76.4C78.5523 76.4 78.7025 76.4572 78.8111 76.5717C78.9262 76.6797 78.9837 76.8292 78.9837 77.0199C78.9837 77.4459 78.776 77.6589 78.3606 77.6589ZM72.1677 82.7325V81.5785H73.1838C73.4267 81.5785 73.5993 81.5277 73.7015 81.4259C73.8102 81.3179 73.8645 81.1398 73.8645 80.8919V79.633L75.0724 79.0036V80.8919C75.0724 81.1398 75.1235 81.3179 75.2258 81.4259C75.328 81.5277 75.5006 81.5785 75.7434 81.5785H76.3953C76.6382 81.5785 76.8107 81.5277 76.913 81.4259C77.0152 81.3179 77.0664 81.1398 77.0664 80.8919V79.3851L78.2743 78.7461V80.8919C78.2743 81.1398 78.3254 81.3179 78.4277 81.4259C78.5363 81.5277 78.7121 81.5785 78.9549 81.5785H79.6068C79.8497 81.5785 80.0222 81.5277 80.1245 81.4259C80.2267 81.3179 80.2779 81.1398 80.2779 80.8919V79.1276L81.4858 78.4981V80.7393C81.4858 81.0445 81.5465 81.2606 81.6679 81.3878C81.7957 81.515 82.0066 81.5785 82.3006 81.5785H83.1826V82.7325H82.2335C81.6967 82.7325 81.2653 82.5799 80.9393 82.2747C80.6517 82.5735 80.2651 82.7261 79.7794 82.7325H78.8303C78.3574 82.7325 77.9707 82.5926 77.6703 82.3129C77.3955 82.5863 77.0312 82.7261 76.5775 82.7325H75.6284C75.1555 82.7325 74.7688 82.5926 74.4684 82.3129C74.1681 82.5926 73.7814 82.7325 73.3085 82.7325H72.1677Z" fill="#6D6F71"/>
<path d="M83.2005 77.5349C83.0087 77.5349 82.8553 77.4777 82.7403 77.3632C82.6253 77.2488 82.5678 77.093 82.5678 76.8959C82.5678 76.4827 82.7787 76.276 83.2005 76.276C83.3922 76.276 83.5424 76.3332 83.651 76.4477C83.7661 76.5558 83.8236 76.7052 83.8236 76.8959C83.8236 77.3219 83.6159 77.5349 83.2005 77.5349ZM84.6768 77.5349C84.4851 77.5349 84.3317 77.4777 84.2166 77.3632C84.1016 77.2488 84.0441 77.093 84.0441 76.8959C84.0441 76.4827 84.255 76.276 84.6768 76.276C84.8685 76.276 85.0187 76.3332 85.1273 76.4477C85.2424 76.5558 85.2999 76.7052 85.2999 76.8959C85.2999 77.3219 85.0922 77.5349 84.6768 77.5349ZM82.5102 82.7325V81.5785H83.373C83.6159 81.5785 83.7884 81.5277 83.8907 81.4259C83.9929 81.3179 84.0441 81.1398 84.0441 80.8919V79.1276L85.252 78.4981V80.9491C85.252 81.5277 85.073 81.9791 84.7151 82.3033C84.402 82.5894 83.9929 82.7325 83.4881 82.7325H82.5102Z" fill="#6D6F71"/>
<path d="M94.7995 81.5785H95.4227V82.7325H94.7899C94.2787 82.7325 93.8633 82.6721 93.5437 82.5513C93.2305 82.4305 92.9398 82.2207 92.6713 81.9219C92.4924 81.9854 92.1696 82.0713 91.7031 82.1794C91.1023 82.3192 90.6901 82.4877 90.4664 82.6848C90.1916 82.9391 90.0542 83.2984 90.0542 83.7625C90.0542 84.6907 90.5431 85.1549 91.5209 85.1549C92.1473 85.1549 92.7352 84.9832 93.2849 84.6399V85.7748C92.7289 86.1308 92.0993 86.3088 91.3963 86.3088C90.6294 86.3088 90.0159 86.0672 89.5557 85.584C89.1147 85.1199 88.8942 84.5095 88.8942 83.7529C88.8942 82.9582 89.1275 82.3351 89.5941 81.8837C89.7986 81.6866 90.0191 81.5372 90.2555 81.4355C90.4984 81.3338 90.9266 81.2098 91.5401 81.0635C92.0961 80.93 92.4892 80.7743 92.7193 80.5962C92.2783 79.8269 91.7478 79.4423 91.1279 79.4423C90.6038 79.4423 90.0446 79.7188 89.4503 80.272V79.2134C89.9807 78.6285 90.5847 78.336 91.2621 78.336C91.767 78.336 92.2559 78.5172 92.7288 78.8796C93.2018 79.242 93.6204 79.757 93.9847 80.4246V80.9014C93.8632 81.0922 93.7354 81.2447 93.6012 81.3592C93.8505 81.5054 94.2499 81.5785 94.7995 81.5785ZM90.9553 83.7148C90.9553 83.3588 91.1343 83.1807 91.4922 83.1807C91.8501 83.1807 92.029 83.3588 92.029 83.7148C92.029 84.0772 91.8501 84.2584 91.4922 84.2584C91.1343 84.2584 90.9553 84.0772 90.9553 83.7148Z" fill="#6D6F71"/>
<path d="M96.2826 80.1003C96.2826 79.5281 96.4615 79.0799 96.8194 78.7556C97.1326 78.4759 97.5352 78.336 98.0273 78.336C98.66 78.336 99.1522 78.5681 99.5037 79.0322C99.804 79.42 99.9542 79.9191 99.9542 80.5295C99.9542 81.2352 99.7657 81.7915 99.3886 82.1984C99.0499 82.5545 98.6185 82.7325 98.0944 82.7325C97.5832 82.7325 97.1646 82.6212 96.8386 82.3987C96.5318 82.6212 96.1612 82.7325 95.7266 82.7325H94.7488V81.5785H95.6115C95.8544 81.5785 96.027 81.5277 96.1292 81.4259C96.2315 81.3179 96.2826 81.1398 96.2826 80.8919V80.1003ZM97.4905 81.0445C97.4905 81.4005 97.679 81.5785 98.0561 81.5785C98.529 81.5785 98.7655 81.2161 98.7655 80.4913C98.7655 79.7983 98.5194 79.4518 98.0273 79.4518C97.6694 79.4518 97.4905 79.6616 97.4905 80.0812V81.0445Z" fill="#6D6F71"/>
<path d="M103.203 82.7325C102.621 82.7325 102.171 82.5481 101.851 82.1794C101.576 81.8615 101.439 81.4514 101.439 80.9491V77.2106L102.647 76.5812V80.8919C102.647 81.1398 102.698 81.3179 102.8 81.4259C102.903 81.5277 103.075 81.5785 103.318 81.5785H104.181V82.7325H103.203Z" fill="#6D6F71"/>
<path d="M105.673 77.5349C105.482 77.5349 105.328 77.4777 105.213 77.3632C105.098 77.2488 105.041 77.093 105.041 76.8959C105.041 76.7115 105.098 76.5621 105.213 76.4477C105.328 76.3332 105.482 76.276 105.673 76.276C105.865 76.276 106.015 76.3332 106.124 76.4477C106.239 76.5558 106.297 76.7052 106.297 76.8959C106.297 77.3219 106.089 77.5349 105.673 77.5349ZM103.507 82.7325V81.5785H104.37C104.613 81.5785 104.785 81.5277 104.887 81.4259C104.99 81.3179 105.041 81.1398 105.041 80.8919V79.1276L106.249 78.4981V80.9491C106.249 81.5277 106.07 81.9791 105.712 82.3033C105.399 82.5894 104.99 82.7325 104.485 82.7325H103.507Z" fill="#6D6F71"/>
<path d="M110.282 81.5785H111.145V82.7325H110.167C109.949 82.7325 109.748 82.7039 109.563 82.6467C109.48 83.257 109.234 83.7402 108.825 84.0963C108.454 84.4142 108.01 84.5731 107.492 84.5731C107.089 84.5731 106.696 84.4714 106.313 84.2679V83.2189C106.645 83.4033 106.971 83.4954 107.291 83.4954C107.642 83.4954 107.914 83.381 108.106 83.1521C108.304 82.9296 108.403 82.6181 108.403 82.2175V79.1276L109.189 78.7175L109.601 78.4981V78.5077L109.611 78.4981V80.8919C109.611 81.1398 109.662 81.3179 109.764 81.4259C109.866 81.5277 110.039 81.5785 110.282 81.5785Z" fill="#6D6F71"/>
<path d="M110.477 82.7325V81.5785H111.34C111.583 81.5785 111.755 81.5277 111.857 81.4259C111.96 81.3179 112.011 81.1398 112.011 80.8919V79.1276L113.219 78.4981V80.9491C113.219 81.5277 113.04 81.9791 112.682 82.3033C112.369 82.5894 111.96 82.7325 111.455 82.7325H110.477ZM112.509 84.8592C112.318 84.8592 112.164 84.802 112.049 84.6876C111.934 84.5731 111.877 84.4173 111.877 84.2203C111.877 84.0359 111.934 83.8865 112.049 83.772C112.164 83.6576 112.318 83.6004 112.509 83.6004C112.701 83.6004 112.851 83.6544 112.96 83.7625C113.075 83.8769 113.132 84.0295 113.132 84.2203C113.132 84.6462 112.925 84.8592 112.509 84.8592Z" fill="#6D6F71"/>
<path d="M0.431393 88.2162H113.312V87.5009H0.431393V88.2162Z" fill="#26B3BB"/>
<defs>
<clipPath id="clip0_12_412">
<rect width="123" height="99" fill="white" transform="translate(136.312)"/>
</clipPath>
</defs>
</svg>
