<svg width="297" height="118" viewBox="0 0 297 118" fill="none" xmlns="http://www.w3.org/2000/svg">
<g clip-path="url(#clip0_12_328)">
<path d="M296.532 104.078H151.715V104.825H296.532V104.078Z" fill="white"/>
<path d="M220.724 10.3916C220.931 12.5315 223.253 14.1202 225.341 13.5968C226.826 13.2791 227.917 12.0176 228.293 10.5972C227.88 11.1578 227.522 11.784 226.93 12.1764C225.463 13.1857 223.225 12.4568 222.604 10.8121C221.871 9.14871 223.112 7.06482 224.908 6.84054C225.877 6.62561 226.732 7.19565 227.551 7.60682C226.742 6.63496 225.491 6.0182 224.212 6.13034C222.116 6.22378 220.376 8.31702 220.733 10.3916M224.156 0.000134949C224.626 1.60744 225.162 3.19606 225.905 4.70058C226.798 3.74741 227.786 2.75686 229.121 2.47651C231.171 1.97189 233.315 2.90637 234.64 4.44827C232.487 3.74741 229.864 4.15858 228.406 5.99951C230.456 5.50423 232.722 5.59768 234.575 6.68168C236.305 7.59747 237.527 9.37299 237.687 11.3354C237.066 10.6719 236.54 9.91499 235.788 9.39168C234.17 8.25161 232.102 7.85913 230.146 8.10209C231.979 8.55064 233.719 9.47578 234.96 10.9055C236.869 13.0455 237.33 16.2508 236.361 18.9047C236.173 17.1292 235.797 15.3163 234.763 13.8211C233.71 12.2232 232.055 10.999 230.174 10.5598C231.876 12.111 233.258 14.0828 233.775 16.3442C234.311 18.7178 234.029 21.3063 232.826 23.4463C232.938 21.1755 232.929 18.7832 231.838 16.718C231.265 15.5593 230.437 14.522 229.441 13.6903C230.418 16.0172 230.879 18.615 230.315 21.1007C229.92 22.8856 229.083 24.605 227.804 25.932C228.416 23.6332 228.754 21.1755 228.124 18.8486C227.814 17.6618 227.118 16.5965 226.159 15.8209C225.482 22.6333 224.88 29.455 224.165 36.258C223.488 29.4457 222.868 22.6239 222.21 15.8116C220.921 16.8302 220.188 18.3907 220.009 19.998C219.718 21.9885 220.047 24.007 220.583 25.932C218.279 23.5397 217.386 19.998 217.988 16.7834C218.166 15.7088 218.571 14.6995 218.947 13.681C217.235 15.092 216.06 17.1292 215.684 19.3065C215.421 20.6709 215.515 22.0633 215.543 23.4369C214.104 20.8391 213.954 17.5871 215.082 14.8397C215.731 13.167 216.906 11.7746 218.194 10.5504C215.853 11.0831 213.907 12.8399 212.938 14.9986C212.365 16.2227 212.167 17.5684 211.988 18.886C211.293 16.9423 211.368 14.7276 212.167 12.8306C213.23 10.3822 215.627 8.66278 218.223 8.11144C216.276 7.8124 214.198 8.25161 212.581 9.37299C211.829 9.88695 211.302 10.6439 210.7 11.3167C210.813 9.11133 212.383 7.20499 214.386 6.36396C216.116 5.55096 218.11 5.54161 219.953 5.99016C218.495 4.13054 215.872 3.73806 213.709 4.42023C214.941 3.04655 216.793 2.11206 218.683 2.36437C220.216 2.4952 221.486 3.51379 222.398 4.68189C223.244 3.2241 223.761 1.60744 224.147 -0.0185547" fill="white"/>
<path d="M200.817 32.0432C206.252 30.9032 211.988 31.7816 217.037 33.987C221.212 35.8185 224.917 38.5566 228.368 41.4815C227.512 42.2478 226.647 42.9954 225.81 43.7803C222.407 41.0516 218.927 38.351 214.941 36.5194C211.001 34.6691 206.666 33.445 202.275 33.5384C199.294 33.5945 196.36 34.1832 193.464 34.828C195.655 33.3422 198.241 32.5852 200.808 32.0432" fill="white"/>
<path d="M234.019 32.959C238.787 31.3797 244.005 31.062 248.886 32.3422C250.945 32.8655 253.013 33.5477 254.781 34.7532C252.355 34.3233 249.957 33.7439 247.494 33.6037C242.868 33.2206 238.241 34.3513 234.038 36.2296C231.612 37.2949 229.374 38.7247 227.164 40.1825C226.252 39.4162 225.303 38.706 224.362 37.9865C227.4 36.0054 230.521 34.0616 234.01 32.9683" fill="white"/>
<path d="M201.993 36.5568C203.14 36.3605 204.306 36.2484 205.472 36.2017C205.604 37.1642 205.726 38.1267 205.848 39.0892C204.654 39.0518 203.469 39.1453 202.294 39.2948C202.191 38.379 202.087 37.4632 201.993 36.5568Z" fill="white"/>
<path d="M239.53 39.5381C239.445 40.4072 239.342 41.2763 239.229 42.1453C242.529 42.2108 245.83 42.1453 249.13 42.1827C249.253 41.295 249.328 40.4072 249.394 39.5101C246.159 38.8092 242.765 38.7438 239.53 39.5381ZM231.603 39.5195C235.167 37.3515 239.351 36.0899 243.545 36.2488C246.798 36.3796 250.071 37.2487 252.863 38.9401C252.61 40.9212 252.205 44.8834 252.205 44.8834H235.581C235.581 44.8834 235.891 42.1734 236.023 40.8184C231.406 43.1733 227.682 46.8551 224.259 50.6585C222.604 48.9203 219.003 45.7524 219.003 45.7524L222.153 43.7246C222.153 43.7246 223.573 45.1077 224.259 45.8179C226.46 43.463 228.792 41.1641 231.603 39.5101" fill="white"/>
<path d="M208.744 36.398C212.627 36.7438 216.154 38.7062 219.134 41.1078C218.053 41.818 216.953 42.4908 215.881 43.201C214.781 42.332 213.634 41.5096 212.374 40.8835C212.486 42.2105 212.759 44.8925 212.759 44.8925H196.266C196.266 44.8925 195.89 40.8929 195.646 38.9585C196.633 38.3044 197.742 37.8558 198.843 37.4259C199.021 39.0052 199.153 40.5938 199.322 42.1731C202.67 42.1544 206.017 42.1918 209.365 42.1451C209.139 40.2294 208.97 38.3044 208.763 36.3887" fill="white"/>
<path d="M215.279 43.8648C217.16 42.6967 220.884 40.2764 220.884 40.2764L223.704 42.435C223.704 42.435 220.338 44.6311 218.655 45.7151C218.918 48.0419 219.163 50.3781 219.435 52.705C221.015 53.6768 222.595 54.658 224.184 55.6299C225.783 54.658 227.362 53.6768 228.97 52.7143C229.215 50.6491 229.403 48.5652 229.647 46.5C229.516 46.3879 229.243 46.1729 229.111 46.0608C229.986 45.3039 230.823 44.4909 231.801 43.8461C232.242 44.0797 232.628 44.3974 233.023 44.6965C232.647 47.9578 232.327 51.2191 231.951 54.4805C229.356 56.0691 226.77 57.6858 224.184 59.2837C221.589 57.7045 219.031 56.0598 216.426 54.4992C216.013 50.9575 215.627 47.4158 215.289 43.8648" fill="white"/>
<path d="M196.398 47.0417C201.927 47.0604 207.466 47.0137 212.995 47.0697C213.098 48.1631 213.239 49.2471 213.362 50.3404C208.989 50.3404 204.617 50.3404 200.244 50.3404C200.705 55.0409 201.213 59.732 201.655 64.4231C203.987 65.9276 206.356 67.3667 208.707 68.8432C209.281 67.9367 209.854 67.0303 210.409 66.1145C208.51 64.9183 206.591 63.7596 204.711 62.5448C204.447 59.5451 204.09 56.5547 203.855 53.555C207.146 53.5737 210.428 53.555 213.719 53.555C213.822 54.6484 213.907 55.7511 214.029 56.8351C215.515 57.7135 216.963 58.6386 218.449 59.517C217.894 60.4795 217.301 61.414 216.69 62.3392C214.941 61.2178 213.164 60.1431 211.396 59.0498C210.541 58.6293 210.889 57.4985 210.691 56.7323C209.6 56.7323 208.51 56.7323 207.428 56.7323C207.579 57.9378 207.663 59.1526 207.833 60.3581C207.833 60.7412 208.246 60.8627 208.5 61.0589C210.672 62.3579 214.979 65.0305 214.979 65.0305L209.788 73.4034L198.495 66.4415C198.495 66.4415 197.094 53.3868 196.398 47.051" fill="white"/>
<path d="M220.113 68.1893C221.467 69.0584 222.849 69.8994 224.212 70.7591C225.548 69.8714 227.005 69.1331 228.275 68.1613C227.917 67.1614 227.428 66.2269 227.014 65.255C226.084 65.8251 225.153 66.4044 224.222 66.9745C223.281 66.4044 222.341 65.8251 221.401 65.255C220.959 66.2269 220.555 67.2081 220.131 68.1893M238.364 50.3407C238.185 52.0602 238.007 53.7796 237.837 55.4991C238.862 56.1438 239.878 56.8073 240.931 57.396C241.166 55.0412 241.411 52.6863 241.646 50.3314C240.555 50.3314 239.455 50.3314 238.364 50.3314M235.44 47.042H252.008L249.883 66.4231C249.883 66.4231 232.769 77.0295 224.194 82.3C220.573 80.0759 216.963 77.8145 213.333 75.5998C213.737 74.5531 214.189 73.5252 214.659 72.5066C217.837 74.4971 221.034 76.4501 224.222 78.4406C226.479 77.0575 228.716 75.6652 230.964 74.2728C230.531 73.2822 230.089 72.301 229.685 71.3011C227.833 72.3758 226.037 73.5626 224.203 74.6746C221.448 72.9458 218.683 71.2357 215.938 69.4882C217.254 66.4605 218.58 63.4421 219.868 60.4144C221.335 61.2741 222.774 62.1993 224.222 63.087C225.679 62.2086 227.109 61.2741 228.575 60.4144C230.287 64.4514 232.064 68.4603 233.747 72.5066C238.12 69.8807 242.426 67.1333 246.77 64.442C247.231 59.7323 247.758 55.0412 248.19 50.3314C247.109 50.3407 246.028 50.3407 244.946 50.3314C244.485 54.4057 244.147 58.4987 243.677 62.5731C240.593 60.648 237.49 58.751 234.396 56.8354C234.744 53.574 235.101 50.3127 235.449 47.042" fill="white"/>
<path d="M229.958 59.5453C230.814 58.994 231.688 58.4706 232.544 57.938C233.428 58.6482 234.302 59.3677 235.158 60.1153C234.067 60.8255 232.948 61.4984 231.848 62.1805C231.218 61.3021 230.597 60.4237 229.967 59.5546" fill="white"/>
<path d="M233.737 64.853C235.073 63.9653 236.455 63.1429 237.818 62.2832C238.73 63.0214 239.633 63.769 240.536 64.526C238.928 65.5352 237.31 66.5351 235.693 67.535C235.035 66.6472 234.396 65.7314 233.737 64.853Z" fill="white"/>
<path d="M156.369 97.9075H157.432V99.4214H156.219C155.57 99.4214 155.062 99.2251 154.686 98.8233C154.395 99.0102 154.037 99.1037 153.624 99.1037C152.947 99.1037 152.401 98.8514 151.997 98.3467C151.659 97.9262 151.489 97.4403 151.489 96.8703C151.489 96.1507 151.734 95.562 152.213 95.1134C152.608 94.7396 153.06 94.5527 153.586 94.5527C153.784 94.5527 153.981 94.5808 154.169 94.6368V94.4219L155.749 93.5996V97.2814C155.749 97.515 155.796 97.6739 155.89 97.7674C155.984 97.8608 156.144 97.9075 156.379 97.9075H156.369ZM152.806 93.3192C152.561 93.3192 152.364 93.2445 152.213 93.095C152.063 92.9454 151.988 92.7492 151.988 92.4969C151.988 92.2446 152.063 92.067 152.213 91.9268C152.364 91.7867 152.561 91.7119 152.806 91.7119C153.05 91.7119 153.238 91.7867 153.379 91.9268C153.52 92.067 153.596 92.2633 153.596 92.4969C153.596 92.7492 153.52 92.9454 153.379 93.095C153.238 93.2445 153.041 93.3192 152.806 93.3192ZM154.16 96.16C154.019 96.0759 153.868 96.0292 153.69 96.0292C153.483 96.0292 153.323 96.104 153.21 96.2628C153.088 96.4217 153.031 96.6366 153.031 96.8983C153.031 97.4777 153.257 97.7767 153.718 97.7767C153.925 97.7767 154.075 97.7206 154.179 97.6085C154.179 97.5524 154.169 97.4683 154.169 97.3468V96.16H154.16ZM154.611 93.3192C154.376 93.3192 154.179 93.2445 154.028 93.095C153.878 92.9454 153.802 92.7492 153.802 92.4969C153.802 92.2446 153.878 92.067 154.028 91.9268C154.179 91.7867 154.367 91.7119 154.611 91.7119C154.856 91.7119 155.044 91.7867 155.194 91.9268C155.345 92.067 155.42 92.2633 155.42 92.4969C155.42 92.7492 155.345 92.9454 155.203 93.095C155.062 93.2445 154.865 93.3192 154.62 93.3192H154.611ZM160.742 97.9075H161.795V99.4214H160.591C160.084 99.4214 159.661 99.2999 159.331 99.0569C158.984 99.2999 158.56 99.4214 158.062 99.4214H156.849V97.9075H157.912C158.147 97.9075 158.306 97.8608 158.401 97.7674C158.495 97.6739 158.542 97.515 158.542 97.2814V95.3938L160.112 94.5621V97.2814C160.112 97.515 160.159 97.6739 160.244 97.7674C160.338 97.8608 160.497 97.9075 160.742 97.9075ZM157.799 100.347C158.034 100.347 158.231 100.421 158.382 100.571C158.532 100.72 158.607 100.907 158.607 101.15C158.607 101.393 158.532 101.589 158.382 101.739C158.231 101.888 158.043 101.963 157.799 101.963C157.554 101.963 157.357 101.888 157.206 101.739C157.056 101.589 156.981 101.393 156.981 101.16C156.981 100.926 157.056 100.73 157.206 100.58C157.357 100.431 157.554 100.356 157.799 100.356V100.347ZM159.614 100.347C159.849 100.347 160.046 100.421 160.187 100.561C160.328 100.702 160.403 100.898 160.403 101.141C160.403 101.384 160.328 101.58 160.187 101.73C160.046 101.879 159.849 101.954 159.614 101.954C159.378 101.954 159.172 101.879 159.021 101.73C158.871 101.58 158.795 101.384 158.795 101.15C158.795 100.917 158.871 100.72 159.021 100.571C159.172 100.421 159.369 100.347 159.614 100.347ZM164.945 97.9075H165.998V99.4214H164.795C164.24 99.4214 163.788 99.2812 163.45 98.9915C163.055 99.2812 162.566 99.4214 162.002 99.4214H161.221V97.9075H161.927C162.228 97.9075 162.444 97.8421 162.566 97.7206C162.688 97.5991 162.745 97.3749 162.745 97.0572V93.2912L164.324 92.4595V97.2814C164.324 97.515 164.371 97.6739 164.456 97.7674C164.55 97.8608 164.71 97.9075 164.954 97.9075H164.945ZM165.425 99.4214V97.9075H167.061C168.246 97.9075 169.186 97.5805 169.9 96.917C169.44 96.1787 168.904 95.8143 168.293 95.8143C167.738 95.8143 167.089 96.132 166.356 96.7581V95.3938C166.967 94.7116 167.672 94.3658 168.452 94.3658H168.471C169.054 94.3658 169.609 94.5714 170.154 94.9826C170.7 95.3938 171.179 95.9825 171.602 96.7488V97.3188C171.076 97.9916 170.418 98.5056 169.628 98.87C168.838 99.2345 167.982 99.412 167.051 99.412H165.425V99.4214ZM168.81 93.5902C168.565 93.5902 168.368 93.5155 168.217 93.366C168.067 93.2164 167.992 93.0202 167.992 92.7772C167.992 92.5343 168.067 92.338 168.217 92.1978C168.368 92.0577 168.565 91.9829 168.81 91.9829C169.054 91.9829 169.242 92.0577 169.383 92.1978C169.524 92.338 169.6 92.5343 169.6 92.7772C169.6 93.0202 169.524 93.2164 169.383 93.366C169.242 93.5155 169.045 93.5902 168.81 93.5902ZM173.126 99.4214V93.2912L174.705 92.4595V99.4214H173.126ZM175.787 99.4214L176.577 97.9075H178.194C178.486 97.9075 178.627 97.7487 178.627 97.4216C178.627 96.7114 178.269 96.1507 177.564 95.7582L178.335 94.4406C179.454 95.0854 180.065 95.9545 180.178 97.0572C180.225 97.4029 180.3 97.6272 180.404 97.7393C180.507 97.8515 180.714 97.9075 181.015 97.9075H181.88V99.4214H180.93C180.404 99.4214 179.952 99.2906 179.595 99.0289C179.322 99.2906 178.956 99.4214 178.476 99.4214H175.768H175.787ZM181.306 99.4214V97.9075H182.012C182.313 97.9075 182.529 97.8421 182.651 97.7206C182.773 97.5991 182.83 97.3749 182.83 97.0572V93.2912L184.409 92.4595V97.0665C184.409 97.8047 184.184 98.3841 183.732 98.814C183.319 99.2158 182.773 99.4214 182.096 99.4214H181.316H181.306ZM186.356 99.4214V93.2912L187.936 92.4595V99.4214H186.356ZM194.612 99.4214C193.907 99.4214 193.352 99.1878 192.947 98.7112C192.609 98.3 192.44 97.786 192.44 97.1599C192.44 96.4591 192.656 95.861 193.098 95.3564C193.493 94.9078 194.01 94.5808 194.659 94.3752C195.411 94.6182 195.985 95.0106 196.38 95.5433C196.718 96.0199 196.887 96.5619 196.887 97.1599C196.887 97.8888 196.662 98.4589 196.229 98.8794C195.834 99.2438 195.336 99.4307 194.715 99.4307H194.602L194.612 99.4214ZM193.709 93.3192C193.465 93.3192 193.267 93.2445 193.117 93.095C192.966 92.9454 192.891 92.7492 192.891 92.4969C192.891 92.2446 192.966 92.067 193.117 91.9268C193.267 91.7867 193.465 91.7119 193.7 91.7119C193.935 91.7119 194.132 91.7867 194.273 91.9268C194.414 92.067 194.49 92.2633 194.49 92.4969C194.49 92.7492 194.414 92.9454 194.273 93.095C194.132 93.2445 193.935 93.3192 193.7 93.3192H193.709ZM194.01 97.1413C194.01 97.6552 194.217 97.9075 194.621 97.9075H194.743C195.157 97.9075 195.364 97.6552 195.364 97.1599C195.364 96.5806 195.138 96.1414 194.678 95.8423C194.236 96.1414 194.019 96.5712 194.019 97.1413H194.01ZM195.524 93.3192C195.279 93.3192 195.082 93.2445 194.931 93.095C194.781 92.9454 194.706 92.7492 194.706 92.4969C194.706 92.2446 194.781 92.067 194.931 91.9268C195.082 91.7867 195.279 91.7119 195.524 91.7119C195.768 91.7119 195.956 91.7867 196.097 91.9268C196.239 92.067 196.314 92.2633 196.314 92.4969C196.314 92.7492 196.239 92.9454 196.097 93.095C195.956 93.2445 195.759 93.3192 195.524 93.3192ZM200.686 98.6925C200.686 99.3093 200.564 99.8513 200.31 100.309C200.056 100.767 199.699 101.103 199.238 101.309C198.937 101.449 198.608 101.524 198.251 101.524C197.771 101.524 197.301 101.402 196.85 101.15V99.7858C197.226 99.9914 197.593 100.104 197.95 100.104C198.129 100.104 198.298 100.076 198.448 100.019C198.89 99.8699 199.106 99.4681 199.106 98.814V95.4125L200.696 94.5714V98.7018L200.686 98.6925ZM202.642 99.4214V93.2912L204.222 92.4595V99.4214H202.642ZM209.017 98.6925C209.017 99.3093 208.895 99.8513 208.641 100.309C208.387 100.767 208.03 101.103 207.569 101.309C207.268 101.449 206.939 101.524 206.582 101.524C206.102 101.524 205.632 101.402 205.181 101.15V99.7858C205.557 99.9914 205.924 100.104 206.281 100.104C206.46 100.104 206.629 100.076 206.779 100.019C207.221 99.8699 207.438 99.4681 207.438 98.814V95.4125L209.027 94.5714V98.7018L209.017 98.6925ZM208.227 93.5902C207.983 93.5902 207.786 93.5155 207.635 93.366C207.485 93.2164 207.409 93.0202 207.409 92.7772C207.409 92.5343 207.485 92.338 207.635 92.1978C207.786 92.0577 207.983 91.9829 208.227 91.9829C208.472 91.9829 208.66 92.0577 208.801 92.1978C208.942 92.338 209.017 92.5343 209.017 92.7772C209.017 93.0202 208.942 93.2164 208.801 93.366C208.66 93.5155 208.463 93.5902 208.227 93.5902ZM216.295 99.4214H215.007C214.96 100.066 214.669 100.589 214.142 100.973C213.709 101.3 213.192 101.459 212.609 101.459C212.139 101.459 211.66 101.328 211.189 101.057V99.683C211.622 99.926 212.036 100.047 212.431 100.047C212.675 100.047 212.901 99.9821 213.108 99.8419C213.315 99.7017 213.427 99.5429 213.456 99.3653C213.296 99.3653 213.108 99.3373 212.882 99.3093C212.158 99.2158 211.594 98.9168 211.18 98.4028C210.842 97.9729 210.672 97.459 210.672 96.8796C210.672 96.0759 210.898 95.4405 211.349 94.9826C211.744 94.5621 212.28 94.3565 212.938 94.3565C213.634 94.3565 214.17 94.5621 214.556 94.9826C214.885 95.347 215.045 95.8143 215.045 96.3937V97.8982H216.324V99.412L216.295 99.4214ZM213.437 96.4124C213.437 96.0199 213.258 95.833 212.901 95.833C212.431 95.833 212.196 96.1694 212.196 96.8329C212.196 97.4964 212.609 97.8795 213.437 97.8795V96.4124ZM215.712 99.4214V97.9075H216.775C217.01 97.9075 217.17 97.8608 217.264 97.7674C217.358 97.6739 217.405 97.515 217.405 97.2814V95.3938L218.975 94.5621V97.3468C218.975 98.0197 218.768 98.543 218.345 98.9261C217.978 99.2532 217.499 99.4214 216.925 99.4214H215.712ZM217.734 101.954C217.489 101.954 217.292 101.879 217.142 101.73C216.991 101.58 216.916 101.384 216.916 101.141C216.916 100.898 216.991 100.702 217.142 100.561C217.292 100.421 217.489 100.347 217.734 100.347C217.978 100.347 218.167 100.421 218.308 100.561C218.449 100.702 218.524 100.898 218.524 101.141C218.524 101.384 218.449 101.58 218.308 101.73C218.167 101.879 217.969 101.954 217.734 101.954ZM227.852 97.9075H228.914V99.4214H227.701C227.052 99.4214 226.545 99.2251 226.169 98.8233C225.877 99.0102 225.52 99.1037 225.106 99.1037C224.429 99.1037 223.884 98.8514 223.479 98.3467C223.141 97.9262 222.971 97.4403 222.971 96.8703C222.971 96.1507 223.216 95.562 223.696 95.1134C224.09 94.7396 224.542 94.5527 225.068 94.5527C225.266 94.5527 225.463 94.5808 225.651 94.6368V94.4219L227.231 93.5996V97.2814C227.231 97.515 227.278 97.6739 227.372 97.7674C227.466 97.8608 227.626 97.9075 227.861 97.9075H227.852ZM224.288 93.3192C224.043 93.3192 223.846 93.2445 223.696 93.095C223.545 92.9454 223.47 92.7492 223.47 92.4969C223.47 92.2446 223.545 92.067 223.696 91.9268C223.846 91.7867 224.043 91.7119 224.288 91.7119C224.532 91.7119 224.72 91.7867 224.862 91.9268C225.003 92.067 225.078 92.2633 225.078 92.4969C225.078 92.7492 225.003 92.9454 224.862 93.095C224.72 93.2445 224.523 93.3192 224.288 93.3192ZM225.651 96.16C225.51 96.0759 225.36 96.0292 225.181 96.0292C224.974 96.0292 224.814 96.104 224.702 96.2628C224.579 96.4217 224.523 96.6366 224.523 96.8983C224.523 97.4777 224.749 97.7767 225.209 97.7767C225.416 97.7767 225.567 97.7206 225.67 97.6085C225.67 97.5524 225.661 97.4683 225.661 97.3468V96.16H225.651ZM226.093 93.3192C225.858 93.3192 225.661 93.2445 225.51 93.095C225.36 92.9454 225.285 92.7492 225.285 92.4969C225.285 92.2446 225.36 92.067 225.51 91.9268C225.661 91.7867 225.849 91.7119 226.093 91.7119C226.338 91.7119 226.526 91.7867 226.676 91.9268C226.827 92.067 226.902 92.2633 226.902 92.4969C226.902 92.7492 226.827 92.9454 226.686 93.095C226.545 93.2445 226.347 93.3192 226.103 93.3192H226.093ZM232.234 97.9075H233.287V99.4214H232.083C231.575 99.4214 231.152 99.2999 230.823 99.0569C230.475 99.2999 230.052 99.4214 229.554 99.4214H228.341V97.9075H229.403C229.638 97.9075 229.798 97.8608 229.892 97.7674C229.986 97.6739 230.033 97.515 230.033 97.2814V95.3938L231.604 94.5621V97.2814C231.604 97.515 231.651 97.6739 231.735 97.7674C231.829 97.8608 231.989 97.9075 232.234 97.9075ZM229.29 100.347C229.525 100.347 229.723 100.421 229.873 100.571C230.024 100.72 230.099 100.907 230.099 101.15C230.099 101.393 230.024 101.589 229.873 101.739C229.723 101.888 229.535 101.963 229.29 101.963C229.046 101.963 228.848 101.888 228.698 101.739C228.548 101.589 228.472 101.393 228.472 101.16C228.472 100.926 228.548 100.73 228.698 100.58C228.848 100.431 229.046 100.356 229.29 100.356V100.347ZM231.105 100.347C231.34 100.347 231.538 100.421 231.679 100.561C231.82 100.702 231.895 100.898 231.895 101.141C231.895 101.384 231.82 101.58 231.679 101.73C231.538 101.879 231.34 101.954 231.105 101.954C230.87 101.954 230.663 101.879 230.513 101.73C230.362 101.58 230.287 101.384 230.287 101.15C230.287 100.917 230.362 100.72 230.513 100.571C230.663 100.421 230.861 100.347 231.105 100.347ZM236.606 97.9075H237.659V99.4214H236.456C235.948 99.4214 235.525 99.2999 235.195 99.0569C234.848 99.2999 234.424 99.4214 233.926 99.4214H232.713V97.9075H233.776C234.011 97.9075 234.171 97.8608 234.265 97.7674C234.359 97.6739 234.406 97.515 234.406 97.2814V95.3938L235.976 94.5621V97.2814C235.976 97.515 236.023 97.6739 236.108 97.7674C236.202 97.8608 236.361 97.9075 236.606 97.9075ZM235.327 100.347C235.562 100.347 235.76 100.421 235.901 100.561C236.042 100.702 236.117 100.898 236.117 101.141C236.117 101.384 236.042 101.58 235.901 101.73C235.76 101.879 235.562 101.954 235.327 101.954C235.092 101.954 234.885 101.879 234.735 101.73C234.584 101.58 234.509 101.384 234.509 101.141C234.509 100.898 234.584 100.702 234.735 100.561C234.885 100.421 235.083 100.347 235.327 100.347ZM247.09 97.9075V99.4214H246.056C245.576 99.4214 245.163 99.2999 244.805 99.0663C244.476 99.2999 244.072 99.4214 243.574 99.4214H237.076V97.9075H238.769V93.2912L240.339 92.4595V95.3844C241.072 94.7116 241.89 94.3658 242.803 94.3658C243.715 94.3658 244.373 94.6649 244.899 95.2723C245.341 95.7863 245.558 96.403 245.558 97.1413V97.3468C245.558 97.7206 245.765 97.9075 246.188 97.9075H247.072H247.09ZM243.527 97.9075C243.733 97.9075 243.856 97.8702 243.922 97.7954C243.978 97.7206 244.006 97.5524 244.006 97.2908V97.1413C244.006 96.7488 243.893 96.4404 243.677 96.1974C243.461 95.9545 243.179 95.833 242.831 95.833C242.342 95.833 241.872 96.0199 241.43 96.3843C240.988 96.7581 240.63 97.2627 240.358 97.8982H243.527V97.9075ZM246.507 99.4214V97.9075H247.213C247.514 97.9075 247.73 97.8421 247.852 97.7206C247.974 97.5991 248.031 97.3749 248.031 97.0572V93.2912L249.61 92.4595V97.0665C249.61 97.8047 249.385 98.3841 248.933 98.814C248.52 99.2158 247.974 99.4214 247.297 99.4214H246.517H246.507ZM251.557 99.4214V93.2912L253.137 92.4595V99.4214H251.557ZM259.738 99.4214C259.108 99.4214 258.609 99.2065 258.252 98.7859C257.932 98.4215 257.772 97.9449 257.772 97.3655V96.375L259.352 95.5433V97.2814C259.352 97.515 259.399 97.6833 259.484 97.7767C259.578 97.8702 259.738 97.9169 259.963 97.9169H263.471C263.706 97.9169 263.865 97.8702 263.95 97.7767C264.044 97.6833 264.082 97.515 264.082 97.2814V95.4031L265.661 94.5714V97.3655C265.661 98.0384 265.455 98.5523 265.031 98.9355C264.665 99.2625 264.185 99.4307 263.612 99.4307H259.738V99.4214ZM260.753 94.3939C260.509 94.3939 260.311 94.3191 260.161 94.1696C260.01 94.0201 259.935 93.8238 259.935 93.5715C259.935 93.3192 260.01 93.1417 260.161 93.0015C260.311 92.8613 260.509 92.7866 260.753 92.7866C260.998 92.7866 261.186 92.8613 261.327 93.0015C261.468 93.1417 261.543 93.3379 261.543 93.5715C261.543 93.8238 261.468 94.0201 261.327 94.1696C261.186 94.3191 260.988 94.3939 260.753 94.3939ZM262.568 94.3939C262.323 94.3939 262.126 94.3191 261.975 94.1696C261.825 94.0201 261.75 93.8238 261.75 93.5715C261.75 93.3192 261.825 93.1417 261.975 93.0015C262.126 92.8613 262.323 92.7866 262.568 92.7866C262.812 92.7866 263 92.8613 263.141 93.0015C263.282 93.1417 263.358 93.3379 263.358 93.5715C263.358 93.8238 263.282 94.0201 263.141 94.1696C263 94.3191 262.803 94.3939 262.568 94.3939ZM269.677 99.4214C269.009 99.4214 268.492 99.2065 268.116 98.7859C267.787 98.4121 267.627 97.9356 267.627 97.3468V93.2912L269.206 92.4595V97.2814C269.206 97.515 269.253 97.6739 269.347 97.7674C269.442 97.8608 269.601 97.9075 269.836 97.9075H270.899V99.4214H269.686H269.677ZM271.999 96.403C271.999 95.7395 272.206 95.2256 272.62 94.8518C272.986 94.5247 273.457 94.3658 274.03 94.3658C274.764 94.3658 275.328 94.6368 275.732 95.1602C276.08 95.6181 276.249 96.1881 276.249 96.8889C276.249 97.6833 276.024 98.3187 275.591 98.7859C275.206 99.2065 274.707 99.412 274.105 99.412C273.532 99.412 273.071 99.2999 272.714 99.085C272.385 99.2999 271.99 99.412 271.52 99.412H270.307V97.8982H271.369C271.604 97.8982 271.764 97.8515 271.858 97.758C271.952 97.6646 271.999 97.5057 271.999 97.2721V96.3937V96.403ZM273.569 97.487C273.569 97.7674 273.72 97.9075 274.03 97.9075C274.482 97.9075 274.707 97.5524 274.707 96.8422C274.707 96.1694 274.482 95.8423 274.03 95.8423C273.729 95.8423 273.569 96.0199 273.569 96.375V97.4964V97.487ZM277.18 99.4214L277.97 97.9075H279.587C279.879 97.9075 280.02 97.7487 280.02 97.4216C280.02 96.7114 279.663 96.1507 278.957 95.7582L279.728 94.4406C280.847 95.0854 281.459 95.9545 281.571 97.0572C281.619 97.4029 281.694 97.6272 281.797 97.7393C281.901 97.8515 282.107 97.9075 282.408 97.9075H283.273V99.4214H282.324C281.797 99.4214 281.346 99.2906 280.988 99.0289C280.716 99.2906 280.349 99.4214 279.87 99.4214H277.161H277.18ZM288.52 97.7393C288.774 97.8515 289.179 97.8982 289.752 97.8982H290.73V99.412H289.743C289.188 99.412 288.737 99.3466 288.389 99.2251C288.041 99.1037 287.731 98.8887 287.439 98.5897C286.518 99.141 285.483 99.412 284.336 99.412H282.709V97.8982H284.345C285.53 97.8982 286.471 97.5711 287.185 96.9076C286.724 96.1694 286.188 95.8049 285.577 95.8049C285.022 95.8049 284.374 96.1227 283.64 96.7488V95.3844C284.251 94.7023 284.957 94.3565 285.737 94.3565H285.756C286.339 94.3565 286.894 94.5621 287.439 94.9733C287.984 95.3844 288.464 95.9732 288.887 96.7394V97.3095C288.765 97.459 288.643 97.5992 288.53 97.73L288.52 97.7393ZM286.076 93.5902C285.831 93.5902 285.634 93.5155 285.483 93.366C285.333 93.2164 285.258 93.0202 285.258 92.7772C285.258 92.5343 285.333 92.338 285.483 92.1978C285.634 92.0577 285.831 91.9829 286.076 91.9829C286.32 91.9829 286.508 92.0577 286.649 92.1978C286.79 92.338 286.865 92.5343 286.865 92.7772C286.865 93.0202 286.79 93.2164 286.649 93.366C286.508 93.5155 286.311 93.5902 286.076 93.5902ZM290.147 99.4214V97.9075H290.852C291.153 97.9075 291.369 97.8421 291.492 97.7206C291.614 97.5991 291.67 97.3749 291.67 97.0572V93.2912L293.25 92.4595V97.0665C293.25 97.8047 293.024 98.3841 292.573 98.814C292.159 99.2158 291.614 99.4214 290.937 99.4214H290.157H290.147ZM295.197 99.4214V93.2912L296.776 92.4595V99.4214H295.197Z" fill="white"/>
<path d="M172.946 108.377C173.633 110.246 174.206 112.003 174.648 113.657C175.062 112.161 175.607 110.405 176.294 108.377H178.381V115.292H176.933V109.676C176.585 111.152 176.021 113.03 175.241 115.292H174.046C173.219 112.797 172.655 110.937 172.363 109.732V115.292H170.943V108.377H172.946ZM184.634 113.264H181.202C181.23 113.601 181.371 113.881 181.616 114.096C181.86 114.32 182.152 114.432 182.49 114.432C182.97 114.432 183.468 114.283 183.985 113.993L184.333 114.722C183.807 115.189 183.149 115.423 182.349 115.423C181.503 115.423 180.835 115.18 180.356 114.703C179.904 114.255 179.669 113.629 179.669 112.834C179.669 112.04 179.923 111.414 180.44 110.9C180.901 110.433 181.484 110.199 182.199 110.199C182.989 110.199 183.609 110.461 184.042 110.993C184.427 111.442 184.615 112.031 184.615 112.75V113.255L184.634 113.264ZM182.208 111.171C181.569 111.171 181.212 111.526 181.127 112.246H183.252C183.214 111.535 182.866 111.171 182.208 111.171ZM189.364 115.292L189.167 114.769C189.054 114.956 188.856 115.114 188.593 115.236C188.33 115.357 188.057 115.423 187.775 115.423C186.994 115.423 186.393 115.161 185.979 114.647C185.631 114.217 185.462 113.666 185.462 112.984C185.462 112.031 185.744 111.292 186.299 110.778C186.712 110.395 187.22 110.199 187.803 110.199C188.311 110.199 188.734 110.339 189.082 110.61V109.022L190.464 108.255V115.283H189.355L189.364 115.292ZM189.091 113.404V112.012C189.044 111.769 188.922 111.573 188.743 111.414C188.565 111.255 188.348 111.18 188.113 111.18C187.737 111.18 187.446 111.33 187.22 111.619C187.004 111.909 186.891 112.302 186.891 112.797C186.891 113.881 187.248 114.423 187.954 114.423C188.217 114.423 188.461 114.32 188.687 114.114C188.913 113.909 189.044 113.666 189.082 113.395L189.091 113.404ZM191.752 109.059C191.752 108.825 191.837 108.62 191.997 108.452C192.166 108.283 192.354 108.199 192.589 108.199C192.834 108.199 193.041 108.283 193.21 108.452C193.379 108.62 193.464 108.825 193.464 109.059C193.464 109.311 193.379 109.526 193.219 109.685C193.05 109.844 192.843 109.928 192.589 109.928C192.345 109.928 192.147 109.844 191.987 109.685C191.828 109.517 191.752 109.311 191.752 109.068V109.059ZM193.313 110.33V115.292H191.912V110.33H193.313ZM198.936 114.656C198.419 115.17 197.799 115.423 197.093 115.423C196.247 115.423 195.57 115.152 195.072 114.61C194.639 114.133 194.423 113.544 194.423 112.825C194.423 112.021 194.705 111.367 195.26 110.853C195.739 110.405 196.332 110.19 197.028 110.19C197.799 110.19 198.419 110.433 198.889 110.909L198.476 111.657C198.099 111.33 197.695 111.162 197.253 111.162C196.839 111.162 196.501 111.32 196.238 111.638C195.974 111.956 195.843 112.358 195.843 112.853C195.843 113.311 195.974 113.685 196.238 113.984C196.501 114.283 196.83 114.423 197.234 114.423C197.714 114.423 198.137 114.245 198.476 113.89L198.946 114.647L198.936 114.656ZM204.014 115.292H202.904L202.792 114.825C202.312 115.227 201.814 115.423 201.315 115.423C200.206 115.423 199.651 114.89 199.651 113.815C199.651 113.283 199.886 112.872 200.347 112.573C200.817 112.264 201.513 112.115 202.425 112.115H202.66V112.096C202.66 111.778 202.594 111.563 202.462 111.451C202.331 111.339 202.096 111.274 201.748 111.274C201.268 111.274 200.817 111.423 200.413 111.732C200.281 111.489 200.159 111.255 200.036 111.021C200.45 110.704 200.817 110.489 201.127 110.367C201.438 110.255 201.814 110.199 202.246 110.199C203.422 110.199 204.005 110.928 204.005 112.386V115.292H204.014ZM202.613 112.956H202.444C202.03 112.956 201.691 113.03 201.428 113.171C201.174 113.32 201.043 113.507 201.043 113.75C201.043 114.199 201.24 114.432 201.635 114.432C201.879 114.432 202.086 114.367 202.274 114.227C202.453 114.086 202.566 113.909 202.604 113.703V112.956H202.613ZM206.891 108.246V115.292H205.509V108.965L206.891 108.246ZM213.295 108.246C214.075 108.246 214.799 108.48 215.476 108.947C215.345 109.143 215.138 109.442 214.865 109.835C214.282 109.582 213.756 109.451 213.295 109.451C212.684 109.451 212.383 109.676 212.383 110.134C212.383 110.339 212.449 110.498 212.59 110.61C212.731 110.722 213.022 110.872 213.455 111.04C214.245 111.348 214.818 111.675 215.166 112.031C215.514 112.386 215.693 112.816 215.693 113.32C215.693 114.03 215.429 114.572 214.893 114.956C214.451 115.273 213.906 115.423 213.257 115.423C212.486 115.423 211.668 115.142 210.794 114.591L211.433 113.703C211.856 113.984 212.402 114.133 213.069 114.133C213.821 114.133 214.198 113.834 214.198 113.227C214.198 112.834 213.793 112.498 212.975 112.217C211.659 111.778 211.01 111.077 211.01 110.115C211.01 109.536 211.226 109.068 211.668 108.723C212.082 108.395 212.627 108.227 213.304 108.227L213.295 108.246ZM221.541 113.264H218.109C218.137 113.601 218.278 113.881 218.523 114.096C218.767 114.32 219.059 114.432 219.397 114.432C219.877 114.432 220.375 114.283 220.893 113.993L221.24 114.722C220.714 115.189 220.056 115.423 219.256 115.423C218.41 115.423 217.742 115.18 217.263 114.703C216.812 114.255 216.577 113.629 216.577 112.834C216.577 112.04 216.83 111.414 217.348 110.9C217.808 110.433 218.391 110.199 219.106 110.199C219.896 110.199 220.516 110.461 220.949 110.993C221.334 111.442 221.523 112.031 221.523 112.75V113.255L221.541 113.264ZM219.115 111.171C218.476 111.171 218.119 111.526 218.034 112.246H220.159C220.121 111.535 219.774 111.171 219.115 111.171ZM223.883 110.33L224.014 110.769C224.09 110.62 224.231 110.479 224.437 110.367C224.644 110.255 224.861 110.199 225.077 110.199C225.735 110.199 226.224 110.507 226.553 111.124L225.387 111.76C225.143 111.479 224.889 111.348 224.616 111.348C224.362 111.348 224.184 111.479 224.071 111.732V115.292H222.707V110.33H223.883ZM231.584 111.433C230.897 113.105 230.38 114.395 230.014 115.292H228.932L226.986 110.33H228.387L229.449 113.61L230.578 110.33H232.026L231.819 110.844L231.574 111.433H231.584ZM232.731 109.059C232.731 108.825 232.816 108.62 232.975 108.452C233.145 108.283 233.333 108.199 233.568 108.199C233.812 108.199 234.019 108.283 234.188 108.452C234.358 108.62 234.442 108.825 234.442 109.059C234.442 109.311 234.358 109.526 234.198 109.685C234.029 109.844 233.822 109.928 233.568 109.928C233.323 109.928 233.126 109.844 232.966 109.685C232.806 109.517 232.731 109.311 232.731 109.068V109.059ZM234.292 110.33V115.292H232.891V110.33H234.292ZM239.906 114.656C239.388 115.17 238.768 115.423 238.063 115.423C237.216 115.423 236.539 115.152 236.041 114.61C235.608 114.133 235.392 113.544 235.392 112.825C235.392 112.021 235.674 111.367 236.229 110.853C236.709 110.405 237.301 110.19 237.997 110.19C238.768 110.19 239.388 110.433 239.859 110.909L239.445 111.657C239.069 111.33 238.664 111.162 238.222 111.162C237.809 111.162 237.47 111.32 237.207 111.638C236.944 111.956 236.812 112.358 236.812 112.853C236.812 113.311 236.944 113.685 237.207 113.984C237.47 114.283 237.799 114.423 238.204 114.423C238.683 114.423 239.106 114.245 239.445 113.89L239.915 114.647L239.906 114.656ZM245.585 113.264H242.153C242.181 113.601 242.322 113.881 242.567 114.096C242.811 114.32 243.103 114.432 243.441 114.432C243.921 114.432 244.419 114.283 244.936 113.993L245.284 114.722C244.758 115.189 244.099 115.423 243.3 115.423C242.454 115.423 241.786 115.18 241.307 114.703C240.855 114.255 240.62 113.629 240.62 112.834C240.62 112.04 240.874 111.414 241.391 110.9C241.852 110.433 242.435 110.199 243.15 110.199C243.939 110.199 244.56 110.461 244.993 110.993C245.378 111.442 245.566 112.031 245.566 112.75V113.255L245.585 113.264ZM243.159 111.171C242.52 111.171 242.162 111.526 242.078 112.246H244.203C244.165 111.535 243.817 111.171 243.159 111.171ZM249.666 111.535C249.309 111.302 248.895 111.19 248.434 111.19C248.086 111.19 247.908 111.339 247.908 111.638C247.908 111.918 248.143 112.115 248.622 112.227C249.215 112.376 249.619 112.535 249.835 112.722C250.146 112.984 250.296 113.376 250.296 113.9C250.296 114.367 250.127 114.741 249.798 115.012C249.468 115.292 249.017 115.423 248.453 115.423C247.654 115.423 246.977 115.198 246.431 114.741L246.939 113.974C247.325 114.273 247.776 114.423 248.312 114.423C248.528 114.423 248.697 114.376 248.829 114.273C248.961 114.171 249.027 114.04 249.027 113.872C249.027 113.563 248.763 113.367 248.246 113.273C247.127 113.059 246.572 112.526 246.572 111.657C246.572 111.246 246.742 110.9 247.08 110.62C247.419 110.339 247.851 110.208 248.359 110.208C249.055 110.208 249.657 110.405 250.174 110.806L249.666 111.535ZM256.464 113.236H253.521V112.143H256.464V113.236ZM262.144 108.377C262.83 110.246 263.404 112.003 263.846 113.657C264.26 112.161 264.805 110.405 265.491 108.377H267.579V115.292H266.131V109.676C265.783 111.152 265.219 113.03 264.438 115.292H263.244C262.417 112.797 261.852 110.937 261.561 109.732V115.292H260.141V108.377H262.144ZM269.798 109.236C270.362 108.573 271.114 108.246 272.064 108.246C273.136 108.246 273.964 108.666 274.537 109.517C274.988 110.18 275.224 110.984 275.224 111.918C275.224 112.993 274.923 113.862 274.33 114.507C273.766 115.114 273.014 115.423 272.064 115.423C270.983 115.423 270.155 115.03 269.591 114.245C269.14 113.629 268.905 112.853 268.905 111.918C268.905 110.825 269.206 109.937 269.798 109.236ZM270.409 111.918C270.409 113.46 270.964 114.227 272.073 114.227C272.6 114.227 273.004 114.03 273.296 113.629C273.578 113.236 273.728 112.657 273.728 111.918C273.728 111.124 273.569 110.507 273.258 110.059C272.967 109.666 272.572 109.47 272.083 109.47C271.556 109.47 271.143 109.685 270.86 110.115C270.569 110.545 270.428 111.143 270.428 111.918H270.409ZM277.96 108.377V115.292H276.54V108.377H277.96Z" fill="white"/>
</g>
<path d="M61.9907 9.81818C62.1187 11.7818 64.2943 13.3527 66.2139 12.8291C67.6217 12.5673 68.6455 11.3891 68.9014 9.94909C68.5175 10.4727 68.1336 11.1273 67.6217 11.3891C66.2139 12.3054 64.1663 11.6509 63.6544 10.08C63.0146 8.50909 64.1663 6.54545 65.83 6.28363C66.7258 6.02182 67.4937 6.67636 68.2615 7.06909C67.4937 6.15273 66.3419 5.49818 65.1901 5.62909C63.2705 5.62909 61.6068 7.72363 61.9907 9.68727M65.0622 0C65.4461 1.57091 65.958 3.01091 66.7258 4.45091C67.4937 3.53454 68.5175 2.61818 69.6693 2.35636C71.5889 1.83273 73.5086 2.74909 74.7883 4.18909C72.7407 3.53454 70.4371 3.92727 69.0294 5.62909C70.949 5.10545 72.9966 5.23636 74.6603 6.28363C76.196 7.2 77.3478 8.77091 77.4758 10.7345C76.9639 10.08 76.452 9.42545 75.6841 8.90182C74.1484 7.85454 72.3568 7.46182 70.4371 7.72363C72.1008 8.11636 73.7645 9.03272 74.9163 10.3418C76.7079 12.4364 77.0919 15.4473 76.196 17.9345C76.0681 16.2327 75.6841 14.5309 74.7883 13.0909C73.7645 11.52 72.3568 10.4727 70.5651 9.94909C72.1008 11.3891 73.3806 13.3527 73.8925 15.4473C74.4044 17.6727 74.1484 20.16 72.9966 22.1236C72.9966 20.0291 72.9966 17.6727 72.1008 15.7091C71.5889 14.6618 70.8211 13.6145 69.9252 12.8291C70.8211 15.0545 71.205 17.5418 70.6931 19.8982C70.3092 21.6 69.5413 23.1709 68.3895 24.48C68.9014 22.2545 69.2854 20.0291 68.6455 17.8036C68.3895 16.6254 67.7497 15.7091 66.8538 14.9236C66.2139 21.3382 65.702 27.8836 65.0622 34.2982C64.4223 27.8836 63.9104 21.3382 63.2705 14.9236C62.1187 15.84 61.4788 17.4109 61.2229 18.8509C60.9669 20.6836 61.2229 22.6473 61.7348 24.48C59.5592 22.2545 58.7913 18.8509 59.3032 15.84C59.4312 14.7927 59.8151 13.8764 60.1991 12.96C58.6634 14.2691 57.5116 16.2327 57.2557 18.3273C56.9997 19.6364 57.1277 20.9454 57.1277 22.2545C55.8479 19.7673 55.7199 16.7564 56.7437 14.1382C57.3836 12.5673 58.4074 11.2582 59.5592 10.08C57.3836 10.6036 55.592 12.3055 54.6961 14.2691C54.1842 15.4473 53.9283 16.7564 53.8003 17.9345C53.1604 16.1018 53.2884 14.0073 53.9283 12.1745C54.9521 9.81818 57.1277 8.24727 59.5592 7.72363C57.7675 7.46182 55.8479 7.72363 54.3122 8.90182C53.6723 9.42545 53.1604 10.08 52.5205 10.7345C52.5205 8.64 54.0563 6.80727 55.8479 6.02182C57.3836 5.23636 59.3033 5.23636 60.9669 5.62909C59.5592 3.92727 57.2556 3.53454 55.208 4.18909C56.3598 2.88 58.0235 1.96364 59.8152 2.22545C61.2229 2.35636 62.3747 3.27273 63.2705 4.45091C64.0384 3.14182 64.5503 1.57091 64.9342 0" fill="white"/>
<path d="M43.6902 30.3708C48.6813 29.3236 53.9283 30.109 58.6634 32.2036C62.5026 33.9054 65.958 36.5236 69.0294 39.2727C68.2616 39.9272 67.4937 40.7127 66.7258 41.4981C63.6544 38.8799 60.455 36.3927 56.7437 34.5599C53.1604 32.8581 49.1932 31.6799 45.098 31.6799C41.0028 31.6799 39.723 32.3345 37.0355 32.8581C39.0831 31.4181 41.3867 30.7636 43.8182 30.2399" fill="white"/>
<path d="M74.1484 31.2874C78.4996 29.8474 83.3626 29.4546 87.8418 30.6328C89.7614 31.1565 91.6811 31.811 93.2168 32.8583C91.0412 32.4655 88.7376 31.9419 86.562 31.811C82.3388 31.4183 77.9877 32.4656 74.1484 34.2983C71.8448 35.3456 69.7972 36.6546 67.8776 38.0946C66.9818 37.4401 66.2139 36.6546 65.3181 36.0001C68.1335 34.1674 70.949 32.3346 74.1484 31.2874Z" fill="white"/>
<path d="M44.7138 34.6909C45.7376 34.56 46.8894 34.429 47.9132 34.429C47.9132 35.3454 48.1692 36.2618 48.2972 37.1781C47.1454 37.1781 46.1216 37.1781 44.9698 37.309C44.9698 36.3927 44.8418 35.6072 44.7138 34.6909Z" fill="white"/>
<path d="M79.2676 37.4401C79.2676 38.2255 79.1397 39.1419 79.0117 39.9273H88.0979C88.0979 39.1419 88.2259 38.2255 88.3539 37.4401C85.4104 36.7855 82.2111 36.7855 79.2676 37.4401ZM71.973 37.4401C75.3004 35.3455 79.1396 34.1673 82.9789 34.2983C85.9224 34.4292 88.9938 35.2146 91.5533 36.9164C91.2973 38.7492 90.9134 42.5455 90.9134 42.5455H75.6843C75.6843 42.5455 75.9403 39.9273 76.0682 38.7492C71.845 40.9746 68.3897 44.5092 65.1903 48.0437C63.6546 46.3419 60.3272 43.4619 60.3272 43.4619L63.2707 41.4982L65.1903 43.4619C67.2379 41.2364 69.4135 39.011 71.973 37.4401Z" fill="white"/>
<path d="M50.9848 34.4291C54.5681 34.6909 57.7675 36.6545 60.583 38.88C59.5592 39.5345 58.5354 40.1891 57.6396 40.8436C56.6158 40.0582 55.592 39.2727 54.4402 38.6182C54.4402 39.9272 54.8241 42.4145 54.8241 42.4145H39.595C39.595 42.4145 39.2111 38.6182 39.0831 36.7854C39.9789 36.1309 41.0027 35.7382 42.0265 35.3454C42.1545 36.7854 42.2825 38.3563 42.4105 39.7963H51.6247C51.3688 37.9636 51.2408 36.1309 51.1128 34.2982" fill="white"/>
<path d="M56.9999 41.4983C58.7916 40.3201 62.1189 38.0946 62.1189 38.0946L64.6785 40.1892C64.6785 40.1892 61.6071 42.2837 60.0713 43.331C60.3273 45.5564 60.5832 47.7819 60.8392 50.0073C62.2469 50.9237 63.7826 51.8401 65.1904 52.7564C66.5981 51.8401 68.1338 50.9237 69.5415 50.0073C69.7975 48.0437 69.9255 46.0801 70.1814 44.1164C70.0534 44.1164 69.7975 43.8546 69.6695 43.7237C70.4374 43.0692 71.2052 42.2837 72.1011 41.6292C72.485 41.891 72.8689 42.1528 73.2528 42.4146C72.8689 45.5564 72.613 48.5673 72.229 51.7092C69.7975 53.2801 67.4939 54.7201 65.0624 56.291C62.6309 54.7201 60.3273 53.2801 57.8958 51.7092C57.5118 48.3055 57.1279 45.0328 56.872 41.6292" fill="white"/>
<path d="M39.5951 44.509H54.8242C54.8242 45.5563 55.0802 46.6036 55.2081 47.6508H43.1784C43.5624 52.1017 44.0743 56.5526 44.4582 61.0036C46.6338 62.4436 48.8093 63.7526 50.9849 65.1926C51.4968 64.2763 52.0087 63.4908 52.5206 62.5745C50.729 61.3963 48.9373 60.349 47.2736 59.1708C47.0177 56.2908 46.7617 53.5417 46.5058 50.6617H55.5921C55.5921 51.709 55.72 52.7563 55.848 53.8036C57.2557 54.589 58.5355 55.5054 59.9432 56.2908C59.4313 57.2072 58.9194 58.1236 58.2795 58.909C56.6159 57.8617 55.0802 56.8145 53.4165 55.7672C52.6486 55.3745 52.9046 54.3272 52.7766 53.5417H49.7052C49.8332 54.7199 49.9611 55.8981 50.0891 56.9454C50.0891 57.3381 50.473 57.469 50.729 57.5999C52.7766 58.7781 56.7438 61.3963 56.7438 61.3963L52.0087 69.3817L41.6427 62.8363C41.6427 62.8363 40.363 50.3999 39.7231 44.509H39.5951Z" fill="white"/>
<path d="M61.3509 64.5381C62.6306 65.3236 63.9104 66.109 65.0621 67.0254C66.3419 66.2399 67.6217 65.4545 68.7734 64.5381C68.3895 63.6217 68.0056 62.7054 67.6217 61.789C66.7258 62.3126 65.958 62.8363 65.0621 63.3599C64.1663 62.8363 63.2705 62.3126 62.5026 61.789C62.1187 62.7054 61.7348 63.6217 61.3509 64.5381ZM78.2436 47.6508C78.1157 49.2217 77.9877 50.9236 77.7317 52.4945C78.6276 53.149 79.6514 53.8036 80.5472 54.3272C80.8032 52.1017 80.9311 49.8763 81.1871 47.6508H78.1157M75.5561 44.509H90.7853L88.8656 62.8363C88.8656 62.8363 73.1246 72.9163 65.1901 77.8908C61.8628 75.7963 58.5354 73.7017 55.208 71.6072C55.592 70.5599 55.9759 69.6436 56.3598 68.7272C59.3032 70.5599 62.2467 72.5236 65.1901 74.3563C67.2377 73.0472 69.2853 71.7381 71.4609 70.429C71.077 69.5126 70.6931 68.5963 70.3092 67.549C68.6455 68.5963 66.9818 69.6435 65.3181 70.6908C62.7586 69.1199 60.1991 67.4181 57.7675 65.7163C58.9193 62.8363 60.1991 59.9563 61.3509 57.0763C62.7586 57.8617 64.0383 58.7781 65.3181 59.5636C66.7258 58.7781 68.0056 57.8617 69.2853 57.0763C70.8211 60.8726 72.4847 64.669 74.0204 68.5963C77.9877 66.109 81.9549 63.4908 86.0502 61.0036C86.4341 56.5526 86.946 52.1017 87.3299 47.6508H84.3865C84.0026 51.5781 83.6186 55.3745 83.2347 59.3017C80.4192 57.469 77.6038 55.6363 74.6603 53.8036C74.9163 50.6617 75.3002 47.6508 75.6841 44.509" fill="white"/>
<path d="M70.4373 56.4219C71.2051 55.8983 71.973 55.3746 72.8688 54.851C73.6367 55.5056 74.5325 56.1601 75.3004 56.9456C74.2766 57.6001 73.2528 58.2546 72.229 58.9092C71.7171 58.1237 71.0772 57.2074 70.4373 56.4219Z" fill="white"/>
<path d="M73.8926 61.3963C75.1723 60.6108 76.4521 59.8254 77.6038 58.909C78.4997 59.5636 79.2675 60.349 80.1634 61.0036C78.6277 61.9199 77.2199 62.9672 75.6842 63.8836C75.0443 63.0981 74.5324 62.1818 73.8926 61.3963Z" fill="white"/>
<path d="M14.8031 113.609C15.2165 112.06 15.7701 110.236 16.4639 108.136H18.5676V115.309H17.1061V109.484C16.7592 111.018 16.1908 112.96 15.401 115.309H14.1942C13.3601 112.718 12.7954 110.795 12.5002 109.541V115.309H11.0719V108.136H13.087C13.7808 110.07 14.3529 111.894 14.8031 113.609Z" fill="white"/>
<path d="M24.7447 113.201H21.2903C21.3198 113.549 21.4564 113.84 21.7 114.074C21.9509 114.301 22.2462 114.414 22.5857 114.414C23.0655 114.414 23.5674 114.263 24.0915 113.961L24.4458 114.72C23.9143 115.203 23.25 115.445 22.4529 115.445C21.5966 115.445 20.9286 115.196 20.4488 114.697C19.9912 114.229 19.7624 113.583 19.7624 112.759C19.7624 111.951 20.0207 111.282 20.5374 110.753C21.0024 110.27 21.5929 110.028 22.3089 110.028C23.1061 110.028 23.7261 110.304 24.169 110.855C24.5528 111.324 24.7447 111.932 24.7447 112.68V113.201ZM21.2128 112.147H23.3497C23.3128 111.407 22.9622 111.037 22.2979 111.037C21.6557 111.037 21.294 111.407 21.2128 112.147Z" fill="white"/>
<path d="M29.399 115.309L29.1997 114.765C29.0816 114.962 28.8897 115.124 28.624 115.253C28.3582 115.381 28.0851 115.445 27.8046 115.445C27.0149 115.445 26.4133 115.177 25.9999 114.641C25.653 114.195 25.4796 113.621 25.4796 112.918C25.4796 111.928 25.76 111.165 26.321 110.629C26.7417 110.228 27.2474 110.028 27.8379 110.028C28.3472 110.028 28.7753 110.172 29.1222 110.459V108.816L30.5173 108.022V115.309H29.399ZM29.1222 113.349V111.909C29.0705 111.66 28.9524 111.456 28.7679 111.297C28.5908 111.131 28.3804 111.048 28.1368 111.048C27.7604 111.048 27.4614 111.199 27.24 111.501C27.0185 111.804 26.9078 112.212 26.9078 112.725C26.9078 113.851 27.2658 114.414 27.9818 114.414C28.2475 114.414 28.4948 114.308 28.7236 114.097C28.9524 113.877 29.0853 113.628 29.1222 113.349Z" fill="white"/>
<path d="M33.2581 110.164V115.309H31.8519V110.164H33.2581ZM31.6859 108.85C31.6859 108.608 31.7671 108.4 31.9295 108.226C32.0992 108.045 32.2985 107.954 32.5273 107.954C32.7709 107.954 32.9776 108.041 33.1474 108.215C33.3245 108.389 33.4131 108.6 33.4131 108.85C33.4131 109.114 33.3282 109.329 33.1584 109.496C32.996 109.662 32.7857 109.745 32.5273 109.745C32.2838 109.745 32.0808 109.662 31.9184 109.496C31.7634 109.322 31.6859 109.106 31.6859 108.85Z" fill="white"/>
<path d="M38.8046 114.652C38.2805 115.181 37.6605 115.445 36.9445 115.445C36.0883 115.445 35.4092 115.166 34.9073 114.607C34.4718 114.115 34.254 113.5 34.254 112.759C34.254 111.928 34.5345 111.248 35.0955 110.719C35.5827 110.259 36.1768 110.028 36.8781 110.028C37.6531 110.028 38.2768 110.277 38.7492 110.776L38.3285 111.547C37.952 111.207 37.5424 111.037 37.0995 111.037C36.6862 111.037 36.3466 111.203 36.0809 111.535C35.8152 111.86 35.6823 112.28 35.6823 112.793C35.6823 113.269 35.8115 113.662 36.0698 113.972C36.3355 114.274 36.6714 114.425 37.0774 114.425C37.5645 114.425 37.9816 114.24 38.3285 113.87L38.8046 114.652Z" fill="white"/>
<path d="M43.8042 115.309H42.686L42.5753 114.822C42.0881 115.237 41.5935 115.445 41.0916 115.445C39.977 115.445 39.4198 114.89 39.4198 113.779C39.4198 113.228 39.6523 112.797 40.1173 112.487C40.5897 112.17 41.2872 112.011 42.2099 112.011H42.4424V111.989C42.4424 111.664 42.376 111.441 42.2431 111.32C42.1102 111.199 41.8703 111.139 41.5234 111.139C41.0363 111.139 40.5897 111.297 40.1837 111.615C40.0509 111.365 39.9254 111.12 39.8073 110.878C40.228 110.546 40.5934 110.323 40.9034 110.21C41.2208 110.089 41.5972 110.028 42.0327 110.028C43.2137 110.028 43.8042 110.784 43.8042 112.295V115.309ZM42.3981 112.884H42.232C41.8113 112.884 41.4718 112.96 41.2134 113.111C40.9551 113.262 40.8259 113.462 40.8259 113.711C40.8259 114.18 41.0252 114.414 41.4238 114.414C41.6674 114.414 41.8814 114.342 42.0659 114.199C42.2505 114.055 42.3612 113.874 42.3981 113.655V112.884Z" fill="white"/>
<path d="M46.5938 108V115.309H45.1988V108.748L46.5938 108Z" fill="white"/>
<path d="M55.6723 114.505C55.0596 115.132 54.34 115.445 53.5133 115.445C52.3249 115.445 51.4391 114.992 50.856 114.085C50.4353 113.436 50.2249 112.672 50.2249 111.796C50.2249 110.655 50.5128 109.737 51.0885 109.042C51.6569 108.347 52.4467 108 53.4579 108C54.1665 108 54.8751 108.306 55.5837 108.918L55.019 109.858C54.4876 109.465 54.0041 109.269 53.5686 109.269C52.9633 109.269 52.4946 109.53 52.1625 110.051C51.8746 110.497 51.7307 111.078 51.7307 111.796C51.7307 112.431 51.9004 112.975 52.24 113.428C52.6017 113.904 53.0851 114.142 53.6904 114.142C54.089 114.142 54.5614 113.964 55.1076 113.609L55.6723 114.505Z" fill="white"/>
<path d="M58.111 110.164V115.309H56.7049V110.164H58.111ZM56.5388 108.85C56.5388 108.608 56.62 108.4 56.7824 108.226C56.9522 108.045 57.1515 107.954 57.3803 107.954C57.6239 107.954 57.8305 108.041 58.0003 108.215C58.1775 108.389 58.266 108.6 58.266 108.85C58.266 109.114 58.1811 109.329 58.0114 109.496C57.849 109.662 57.6386 109.745 57.3803 109.745C57.1367 109.745 56.9337 109.662 56.7713 109.496C56.6163 109.322 56.5388 109.106 56.5388 108.85Z" fill="white"/>
<path d="M62.5836 111.309H61.1442V113.859C61.1442 114.236 61.266 114.425 61.5096 114.425C61.731 114.425 62.0078 114.327 62.34 114.131L62.805 114.856C62.2809 115.279 61.7015 115.49 61.0667 115.49C60.181 115.49 59.7381 114.992 59.7381 113.995V111.309H59.0406V110.164H59.7492V109.246C60.1182 109.042 60.5869 108.789 61.1553 108.487V110.164H62.5836V111.309Z" fill="white"/>
<path d="M65.0798 110.164V115.309H63.6737V110.164H65.0798ZM63.5076 108.85C63.5076 108.608 63.5888 108.4 63.7512 108.226C63.921 108.045 64.1203 107.954 64.3491 107.954C64.5927 107.954 64.7994 108.041 64.9691 108.215C65.1463 108.389 65.2348 108.6 65.2348 108.85C65.2348 109.114 65.15 109.329 64.9802 109.496C64.8178 109.662 64.6074 109.745 64.3491 109.745C64.1055 109.745 63.9025 109.662 63.7401 109.496C63.5851 109.322 63.5076 109.106 63.5076 108.85Z" fill="white"/>
<path d="M71.0581 113.201H67.6037C67.6332 113.549 67.7698 113.84 68.0134 114.074C68.2643 114.301 68.5596 114.414 68.8991 114.414C69.3789 114.414 69.8808 114.263 70.4049 113.961L70.7592 114.72C70.2277 115.203 69.5634 115.445 68.7663 115.445C67.91 115.445 67.242 115.196 66.7622 114.697C66.3046 114.229 66.0758 113.583 66.0758 112.759C66.0758 111.951 66.3341 111.282 66.8508 110.753C67.3158 110.27 67.9063 110.028 68.6223 110.028C69.4195 110.028 70.0395 110.304 70.4824 110.855C70.8662 111.324 71.0581 111.932 71.0581 112.68V113.201ZM67.5262 112.147H69.6631C69.6262 111.407 69.2756 111.037 68.6113 111.037C67.9691 111.037 67.6074 111.407 67.5262 112.147Z" fill="white"/>
<path d="M75.0592 111.411C74.6975 111.169 74.2841 111.048 73.8191 111.048C73.4648 111.048 73.2877 111.203 73.2877 111.513C73.2877 111.8 73.5276 112.004 74.0073 112.125C74.6052 112.276 75.0112 112.446 75.2252 112.635C75.5353 112.907 75.6903 113.315 75.6903 113.859C75.6903 114.342 75.5205 114.727 75.181 115.015C74.8488 115.302 74.3985 115.445 73.8302 115.445C73.0256 115.445 72.3465 115.211 71.793 114.743L72.3023 113.949C72.6861 114.259 73.1474 114.414 73.6862 114.414C73.9003 114.414 74.0738 114.361 74.2066 114.255C74.3395 114.149 74.4059 114.01 74.4059 113.836C74.4059 113.519 74.1439 113.311 73.6198 113.213C72.4979 112.994 71.9369 112.434 71.9369 111.535C71.9369 111.105 72.1067 110.746 72.4462 110.459C72.7931 110.172 73.2249 110.028 73.7416 110.028C74.4428 110.028 75.0518 110.236 75.5685 110.651L75.0592 111.411Z" fill="white"/>
<path d="M79.4322 115.309V108.147C79.5356 108.124 79.8271 108.094 80.3069 108.056C80.7867 108.019 81.1521 108 81.403 108C83.1893 108 84.0824 108.748 84.0824 110.243C84.0824 111.173 83.7724 111.853 83.1524 112.283C82.739 112.578 82.2519 112.725 81.6909 112.725C81.248 112.725 80.9786 112.695 80.8826 112.635V115.309H79.4322ZM80.8826 109.269V111.433C81.0745 111.509 81.3144 111.547 81.6023 111.547C81.8976 111.547 82.1301 111.441 82.2998 111.229C82.4696 111.01 82.5545 110.712 82.5545 110.334C82.5545 109.571 82.226 109.19 81.5691 109.19C81.1926 109.19 80.9638 109.216 80.8826 109.269Z" fill="white"/>
<path d="M86.3526 110.164L86.4854 110.617C86.5593 110.459 86.6995 110.323 86.9062 110.21C87.1202 110.089 87.338 110.028 87.5594 110.028C88.2237 110.028 88.7183 110.349 89.0431 110.991L87.8694 111.649C87.6259 111.362 87.3675 111.218 87.0944 111.218C86.8434 111.218 86.6589 111.35 86.5408 111.615V115.309H85.1679V110.164H86.3526Z" fill="white"/>
<path d="M91.563 110.028C92.3897 110.028 93.0319 110.327 93.4896 110.923C93.8734 111.422 94.0653 112.03 94.0653 112.748C94.0653 113.587 93.7811 114.267 93.2128 114.788C92.7404 115.226 92.1904 115.445 91.563 115.445C90.8323 115.445 90.2197 115.166 89.7251 114.607C89.2822 114.1 89.0608 113.481 89.0608 112.748C89.0608 111.917 89.3081 111.245 89.8026 110.731C90.2529 110.262 90.8397 110.028 91.563 110.028ZM91.563 114.38C92.279 114.38 92.637 113.836 92.637 112.748C92.637 111.615 92.279 111.048 91.563 111.048C90.8471 111.048 90.4891 111.615 90.4891 112.748C90.4891 113.836 90.8471 114.38 91.563 114.38Z" fill="white"/>
<path d="M98.3204 114.686C97.9883 115.192 97.5196 115.445 96.9143 115.445C96.1762 115.445 95.6041 115.177 95.1982 114.641C94.8513 114.187 94.6778 113.613 94.6778 112.918C94.6778 111.928 94.9583 111.165 95.5193 110.629C95.9474 110.228 96.453 110.028 97.0361 110.028C97.5011 110.028 97.896 110.145 98.2208 110.379C98.4348 110.531 98.5419 110.644 98.5419 110.719L98.6526 110.164H99.7266V114.777C99.7266 115.645 99.5162 116.314 99.0955 116.782C98.6821 117.243 98.0916 117.474 97.324 117.474C96.5268 117.474 95.8366 117.202 95.2535 116.658L95.6078 115.932C96.0581 116.235 96.5637 116.386 97.1247 116.386C97.9219 116.386 98.3204 115.819 98.3204 114.686ZM98.3204 111.909C98.2909 111.675 98.1765 111.475 97.9772 111.309C97.7853 111.135 97.5712 111.048 97.335 111.048C96.966 111.048 96.6707 111.199 96.4493 111.501C96.2278 111.804 96.1171 112.212 96.1171 112.725C96.1171 113.851 96.4788 114.414 97.2022 114.414C97.5048 114.414 97.7668 114.297 97.9883 114.063C98.2097 113.821 98.3204 113.538 98.3204 113.213V111.909Z" fill="white"/>
<path d="M102.304 110.164L102.437 110.617C102.511 110.459 102.651 110.323 102.857 110.21C103.072 110.089 103.289 110.028 103.511 110.028C104.175 110.028 104.67 110.349 104.994 110.991L103.821 111.649C103.577 111.362 103.319 111.218 103.046 111.218C102.795 111.218 102.61 111.35 102.492 111.615V115.309H101.119V110.164H102.304Z" fill="white"/>
<path d="M109.461 115.309H108.343L108.232 114.822C107.745 115.237 107.251 115.445 106.749 115.445C105.634 115.445 105.077 114.89 105.077 113.779C105.077 113.228 105.309 112.797 105.775 112.487C106.247 112.17 106.944 112.011 107.867 112.011H108.1V111.989C108.1 111.664 108.033 111.441 107.9 111.32C107.767 111.199 107.528 111.139 107.181 111.139C106.693 111.139 106.247 111.297 105.841 111.615C105.708 111.365 105.583 111.12 105.465 110.878C105.885 110.546 106.251 110.323 106.561 110.21C106.878 110.089 107.254 110.028 107.69 110.028C108.871 110.028 109.461 110.784 109.461 112.295V115.309ZM108.055 112.884H107.889C107.469 112.884 107.129 112.96 106.871 113.111C106.612 113.262 106.483 113.462 106.483 113.711C106.483 114.18 106.682 114.414 107.081 114.414C107.325 114.414 107.539 114.342 107.723 114.199C107.908 114.055 108.018 113.874 108.055 113.655V112.884Z" fill="white"/>
<path d="M112.196 110.663C112.609 110.24 113.126 110.028 113.746 110.028C114.174 110.028 114.55 110.123 114.875 110.311C115.207 110.493 115.436 110.738 115.562 111.048C115.724 110.746 115.975 110.5 116.314 110.311C116.661 110.123 117.038 110.028 117.444 110.028C118.625 110.028 119.215 110.761 119.215 112.227V115.309H117.809V112.612C117.809 112.106 117.735 111.751 117.588 111.547C117.447 111.335 117.208 111.229 116.868 111.229C116.381 111.229 115.986 111.426 115.683 111.819V115.309H114.288V112.453C114.288 112.008 114.211 111.694 114.056 111.513C113.901 111.324 113.635 111.229 113.259 111.229C113.037 111.229 112.827 111.263 112.628 111.331C112.436 111.399 112.31 111.483 112.251 111.581V115.309H110.856V110.164H112.041L112.14 110.663H112.196Z" fill="white"/>
<path d="M1.43935 91.9074C1.21791 91.9074 1.04076 91.8394 0.907896 91.7034C0.775033 91.5674 0.708602 91.3823 0.708602 91.1481C0.708602 90.657 0.952183 90.4115 1.43935 90.4115C1.66078 90.4115 1.83424 90.4794 1.95973 90.6154C2.09259 90.7439 2.15902 90.9214 2.15902 91.1481C2.15902 91.6543 1.91913 91.9074 1.43935 91.9074ZM3.14442 91.9074C2.92298 91.9074 2.74583 91.8394 2.61297 91.7034C2.48011 91.5674 2.41367 91.3823 2.41367 91.1481C2.41367 90.657 2.65726 90.4115 3.14442 90.4115C3.36586 90.4115 3.53932 90.4794 3.6648 90.6154C3.79766 90.7439 3.86409 90.9214 3.86409 91.1481C3.86409 91.6543 3.6242 91.9074 3.14442 91.9074ZM5.01557 96.939H6.01204V98.3103H4.88271C4.19625 98.3103 3.6648 98.0761 3.28835 97.6077C2.97096 97.857 2.58344 97.9816 2.1258 97.9816C1.44673 97.9816 0.904205 97.721 0.498235 97.1997C0.166078 96.769 0 96.2515 0 95.6471C0 94.8992 0.236201 94.291 0.708602 93.8226C1.10719 93.4297 1.56852 93.2333 2.09259 93.2333C2.3657 93.2333 2.61666 93.2862 2.84548 93.3919V93.0973L4.22947 92.3493V96.1231C4.22947 96.4177 4.28852 96.6293 4.40662 96.7577C4.5321 96.8786 4.73508 96.939 5.01557 96.939ZM2.84548 94.8198C2.65356 94.6536 2.43582 94.5705 2.19224 94.5705C1.94865 94.5705 1.74936 94.6725 1.59435 94.8765C1.44673 95.0805 1.37292 95.3487 1.37292 95.6811C1.37292 96.0135 1.44673 96.278 1.59435 96.4744C1.74198 96.6708 1.94496 96.769 2.20331 96.769C2.4838 96.769 2.70154 96.6708 2.85655 96.4744C2.84917 96.414 2.84548 96.3195 2.84548 96.1911V94.8198Z" fill="white"/>
<path d="M9.17826 96.939H10.1747V98.3103H9.04539C8.50656 98.3103 8.06 98.1629 7.7057 97.8683C7.35139 98.1629 6.90483 98.3103 6.366 98.3103H5.23666V96.939H6.23313C6.51362 96.939 6.71291 96.8786 6.83102 96.7577C6.94912 96.6293 7.00817 96.4177 7.00817 96.1231V94.0265L8.40323 93.2786V96.1231C8.40323 96.4177 8.46227 96.6293 8.58037 96.7577C8.69847 96.8786 8.89777 96.939 9.17826 96.939ZM6.31064 99.3415C6.53207 99.3415 6.70553 99.4057 6.83102 99.5342C6.96388 99.6702 7.03031 99.8515 7.03031 100.078C7.03031 100.584 6.79042 100.837 6.31064 100.837C6.0892 100.837 5.91205 100.769 5.77918 100.633C5.64632 100.497 5.57989 100.312 5.57989 100.078C5.57989 99.5871 5.82347 99.3415 6.31064 99.3415ZM8.01571 99.3415C8.23715 99.3415 8.41061 99.4057 8.53609 99.5342C8.66895 99.6702 8.73538 99.8515 8.73538 100.078C8.73538 100.584 8.49549 100.837 8.01571 100.837C7.79427 100.837 7.61712 100.769 7.48426 100.633C7.35139 100.497 7.28496 100.312 7.28496 100.078C7.28496 99.5871 7.52855 99.3415 8.01571 99.3415Z" fill="white"/>
<path d="M13.3384 96.939H14.3349V98.3103H13.2056C12.6667 98.3103 12.2202 98.1629 11.8659 97.8683C11.5116 98.1629 11.065 98.3103 10.5262 98.3103H9.39684V96.939H10.3933C10.6738 96.939 10.8731 96.8786 10.9912 96.7577C11.1093 96.6293 11.1683 96.4177 11.1683 96.1231V94.0265L12.5634 93.2786V96.1231C12.5634 96.4177 12.6225 96.6293 12.7406 96.7577C12.8587 96.8786 13.0579 96.939 13.3384 96.939ZM11.9323 99.3415C12.1537 99.3415 12.3272 99.4057 12.4527 99.5342C12.5855 99.6702 12.652 99.8515 12.652 100.078C12.652 100.584 12.4121 100.837 11.9323 100.837C11.7109 100.837 11.5337 100.769 11.4009 100.633C11.268 100.497 11.2016 100.312 11.2016 100.078C11.2016 99.8591 11.268 99.6815 11.4009 99.5455C11.5337 99.4095 11.7109 99.3415 11.9323 99.3415Z" fill="white"/>
<path d="M23.2006 96.939H24.1971V98.3103H23.0678C22.5363 98.3103 22.1008 98.1705 21.7613 97.891C21.4218 98.1705 20.9973 98.3103 20.488 98.3103H13.557V96.939H15.5389L15.6718 96.5537V91.76L17.0668 91.0007V94.2645C17.8197 93.4788 18.6833 93.0859 19.6576 93.0859C20.536 93.0859 21.2335 93.3957 21.7502 94.0152C22.1931 94.5365 22.4145 95.1825 22.4145 95.9531V96.1911C22.4145 96.6897 22.6766 96.939 23.2006 96.939ZM20.4327 96.939C20.6762 96.939 20.8349 96.8899 20.9088 96.7917C20.99 96.6935 21.0306 96.4857 21.0306 96.1684V95.9531C21.0306 95.4998 20.9014 95.1296 20.643 94.8425C20.3921 94.5554 20.0673 94.4119 19.6687 94.4119C19.1594 94.4119 18.6722 94.6045 18.2072 94.9898C17.7496 95.3751 17.3694 95.9078 17.0668 96.5877V96.939H20.4327Z" fill="white"/>
<path d="M23.4261 98.3103V96.939H24.1237C24.4632 96.939 24.7031 96.8635 24.8433 96.7124C24.991 96.5613 25.0648 96.3044 25.0648 95.9418V91.76L26.4488 91.0007V95.9531C26.4488 96.6859 26.231 97.2714 25.7955 97.7096C25.3969 98.1101 24.8655 98.3103 24.2012 98.3103H23.4261Z" fill="white"/>
<path d="M28.3311 98.3103V91.76L29.7261 91.0007V98.3103H28.3311Z" fill="white"/>
<path d="M36.8332 93.4033C36.6117 93.4033 36.4346 93.3353 36.3017 93.1993C36.1689 93.0633 36.1024 92.8782 36.1024 92.644C36.1024 92.4249 36.1689 92.2473 36.3017 92.1113C36.4346 91.9754 36.6117 91.9074 36.8332 91.9074C37.0546 91.9074 37.2281 91.9754 37.3536 92.1113C37.4864 92.2398 37.5529 92.4173 37.5529 92.644C37.5529 93.1502 37.313 93.4033 36.8332 93.4033ZM39.9001 97.585C39.9001 98.4916 39.5938 99.2131 38.9811 99.7495C38.4349 100.225 37.7374 100.463 36.8885 100.463C35.8921 100.463 35.1207 100.105 34.5745 99.3869C34.1464 98.8278 33.9323 98.1705 33.9323 97.415C33.9323 96.8181 34.0689 96.2968 34.342 95.8511L35.6706 95.5678C35.3754 96.0815 35.2278 96.6217 35.2278 97.1883C35.2278 97.7625 35.3864 98.2272 35.7038 98.5823C36.0065 98.9222 36.4014 99.0922 36.8885 99.0922C37.3978 99.0922 37.7927 98.96 38.0732 98.6956C38.3611 98.4311 38.505 98.061 38.505 97.585V94.0265L39.9001 93.2786V97.585Z" fill="white"/>
<path d="M40.899 98.3103L41.5965 96.939H43.3459C43.7223 96.939 43.9105 96.7161 43.9105 96.2704C43.9105 95.4393 43.5193 94.8009 42.7369 94.3552L43.4234 93.1426C44.5749 93.8301 45.1949 94.7632 45.2835 95.9418C45.313 96.3195 45.3942 96.5802 45.527 96.7237C45.6673 96.8673 45.9035 96.939 46.2356 96.939H47.0771V98.3103H46.1581C45.6119 98.3103 45.1506 98.1554 44.7742 97.8456C44.501 98.1554 44.1098 98.3103 43.6005 98.3103H40.899Z" fill="white"/>
<path d="M53.3447 96.939H54.3301V98.3103H53.2008C52.6694 98.3103 52.2339 98.1705 51.8943 97.891C51.4957 98.3216 50.9717 98.5369 50.3221 98.5369C49.6578 98.5369 49.1337 98.3216 48.7499 97.891C48.3956 98.1705 47.9564 98.3103 47.4324 98.3103H46.303V96.939H47.2995C47.58 96.939 47.7793 96.8786 47.8974 96.7577C48.0155 96.6293 48.0745 96.4177 48.0745 96.1231V95.7944C48.0745 94.9105 48.2997 94.223 48.7499 93.7319C49.1411 93.3013 49.6652 93.0859 50.3221 93.0859C51.0676 93.0859 51.6434 93.3655 52.0493 93.9246C52.3889 94.4005 52.5586 95.0238 52.5586 95.7944V96.1231C52.5586 96.4177 52.6177 96.6293 52.7358 96.7577C52.8613 96.8786 53.0643 96.939 53.3447 96.939ZM50.3221 97.1657C50.8831 97.1657 51.1636 96.6973 51.1636 95.7604C51.1636 94.8614 50.8831 94.4119 50.3221 94.4119C49.7538 94.4119 49.4696 94.8614 49.4696 95.7604C49.4696 96.6973 49.7538 97.1657 50.3221 97.1657Z" fill="white"/>
<path d="M53.5555 98.3103V96.939H54.2531C54.5926 96.939 54.8325 96.8635 54.9728 96.7124C55.1204 96.5613 55.1942 96.3044 55.1942 95.9418V91.76L56.5782 91.0007V95.9531C56.5782 96.6859 56.3604 97.2714 55.9249 97.7096C55.5263 98.1101 54.9945 98.3103 54.3301 98.3103H53.5555Z" fill="white"/>
<path d="M58.4605 98.3103V91.76L59.8555 91.0007V98.3103H58.4605Z" fill="white"/>
<path d="M71.0813 96.939H72.2328V98.3103H70.9485C70.727 98.3103 70.4834 98.2536 70.2177 98.1403C70.0553 98.8882 69.6752 99.4775 69.0773 99.9082C68.5385 100.286 67.9 100.475 67.1619 100.475C66.1137 100.475 65.3018 100.12 64.7261 99.4095C64.2832 98.8656 64.0617 98.2196 64.0617 97.4717C64.0617 96.8824 64.1946 96.3611 64.4603 95.9078L65.8332 95.5905C65.5306 96.0815 65.3793 96.6444 65.3793 97.279C65.3793 97.8381 65.538 98.28 65.8554 98.6049C66.1802 98.9373 66.6157 99.1036 67.1619 99.1036C67.7007 99.1036 68.1288 98.9487 68.4462 98.6389C68.7636 98.3292 68.9223 97.9061 68.9223 97.3697V91.76L70.3063 91.0007V96.1231C70.3063 96.4177 70.3653 96.6293 70.4834 96.7577C70.6015 96.8786 70.8008 96.939 71.0813 96.939Z" fill="white"/>
<path d="M75.4029 96.939H76.3994V98.3103H75.27C74.7312 98.3103 74.2846 98.1629 73.9303 97.8683C73.576 98.1629 73.1295 98.3103 72.5906 98.3103H71.4613V96.939H72.4578C72.7383 96.939 72.9376 96.8786 73.0557 96.7577C73.1738 96.6293 73.2328 96.4177 73.2328 96.1231V94.0265L74.6279 93.2786V96.1231C74.6279 96.4177 74.6869 96.6293 74.805 96.7577C74.9231 96.8786 75.1224 96.939 75.4029 96.939ZM72.5353 99.3415C72.7567 99.3415 72.9302 99.4057 73.0557 99.5342C73.1885 99.6702 73.255 99.8515 73.255 100.078C73.255 100.584 73.0151 100.837 72.5353 100.837C72.3139 100.837 72.1367 100.769 72.0038 100.633C71.871 100.497 71.8045 100.312 71.8045 100.078C71.8045 99.5871 72.0481 99.3415 72.5353 99.3415ZM74.2404 99.3415C74.4618 99.3415 74.6353 99.4057 74.7607 99.5342C74.8936 99.6702 74.96 99.8515 74.96 100.078C74.96 100.584 74.7201 100.837 74.2404 100.837C74.0189 100.837 73.8418 100.769 73.7089 100.633C73.576 100.497 73.5096 100.312 73.5096 100.078C73.5096 99.5871 73.7532 99.3415 74.2404 99.3415Z" fill="white"/>
<path d="M79.8399 92.134C79.6185 92.134 79.4413 92.066 79.3084 91.93C79.1756 91.794 79.1091 91.6089 79.1091 91.3747C79.1091 91.1556 79.1756 90.9781 79.3084 90.8421C79.4413 90.7061 79.6185 90.6381 79.8399 90.6381C80.0613 90.6381 80.2348 90.7061 80.3603 90.8421C80.4931 90.9705 80.5596 91.1481 80.5596 91.3747C80.5596 91.8809 80.3197 92.134 79.8399 92.134ZM81.0578 96.939H84.1026L84.1247 98.3103H80.9249C80.5485 98.3103 80.1942 98.2158 79.862 98.027C79.5151 98.2158 79.1608 98.3103 78.7991 98.3103H75.6215V96.939H78.6331C78.3009 96.7048 78.0241 96.4819 77.8027 96.2704C77.6772 96.1571 77.4853 95.9455 77.2269 95.6358C77.1457 95.5376 77.0793 95.4582 77.0276 95.3978V94.7518C77.3524 94.2457 77.7695 93.8414 78.2788 93.5392C78.7954 93.237 79.3232 93.0859 79.862 93.0859C80.3935 93.0859 80.9176 93.2408 81.4342 93.5506C81.9509 93.8528 82.379 94.2608 82.7186 94.7745V95.3978C82.224 96.0098 81.6704 96.5235 81.0578 96.939ZM79.851 96.3951C80.4046 95.9493 80.8142 95.4998 81.0799 95.0465C80.6371 94.6234 80.22 94.4119 79.8288 94.4119C79.4524 94.4119 79.0612 94.6234 78.6552 95.0465C78.9431 95.5678 79.3417 96.0173 79.851 96.3951Z" fill="white"/>
<path d="M89.6386 90.6154C89.1957 90.6154 88.9743 90.385 88.9743 89.9242C88.9743 89.4784 89.1957 89.2555 89.6386 89.2555C90.0741 89.2555 90.2918 89.4784 90.2918 89.9242C90.2918 90.385 90.0741 90.6154 89.6386 90.6154ZM88.7971 92.2813C88.5757 92.2813 88.3986 92.2133 88.2657 92.0773C88.1328 91.9414 88.0664 91.7563 88.0664 91.522C88.0664 91.3029 88.1328 91.1254 88.2657 90.9894C88.3986 90.8534 88.5757 90.7854 88.7971 90.7854C89.0186 90.7854 89.192 90.8534 89.3175 90.9894C89.4504 91.1178 89.5168 91.2954 89.5168 91.522C89.5168 92.0282 89.2769 92.2813 88.7971 92.2813ZM90.5022 92.2813C90.2808 92.2813 90.1036 92.2133 89.9708 92.0773C89.8379 91.9414 89.7715 91.7563 89.7715 91.522C89.7715 91.3029 89.8379 91.1254 89.9708 90.9894C90.1036 90.8534 90.2808 90.7854 90.5022 90.7854C90.7237 90.7854 90.8971 90.8534 91.0226 90.9894C91.1555 91.1178 91.2219 91.2954 91.2219 91.522C91.2219 92.0282 90.982 92.2813 90.5022 92.2813ZM83.3498 98.3103V96.939H84.5234C84.8039 96.939 85.0032 96.8786 85.1213 96.7577C85.2468 96.6293 85.3095 96.4177 85.3095 96.1231V94.6272L86.7046 93.8792V96.1231C86.7046 96.4177 86.7636 96.6293 86.8817 96.7577C86.9998 96.8786 87.1991 96.939 87.4796 96.939H88.2325C88.513 96.939 88.7123 96.8786 88.8304 96.7577C88.9485 96.6293 89.0075 96.4177 89.0075 96.1231V94.3325L90.4026 93.5732V96.1231C90.4026 96.4177 90.4616 96.6293 90.5797 96.7577C90.7052 96.8786 90.9082 96.939 91.1887 96.939H91.9416C92.2221 96.939 92.4213 96.8786 92.5394 96.7577C92.6575 96.6293 92.7166 96.4177 92.7166 96.1231V94.0265L94.1117 93.2786V95.9418C94.1117 96.3044 94.1818 96.5613 94.322 96.7124C94.4696 96.8635 94.7132 96.939 95.0528 96.939H96.0714V98.3103H94.9753C94.3552 98.3103 93.857 98.1289 93.4806 97.7663C93.1484 98.1214 92.7018 98.3027 92.1409 98.3103H91.0447C90.4985 98.3103 90.052 98.1441 89.705 97.8116C89.3876 98.1365 88.9669 98.3027 88.4428 98.3103H87.3467C86.8005 98.3103 86.354 98.1441 86.007 97.8116C85.6601 98.1441 85.2135 98.3103 84.6673 98.3103H83.3498Z" fill="white"/>
<path d="M96.0921 92.134C95.8706 92.134 95.6935 92.066 95.5606 91.93C95.4277 91.794 95.3613 91.6089 95.3613 91.3747C95.3613 90.8836 95.6049 90.6381 96.0921 90.6381C96.3135 90.6381 96.4869 90.7061 96.6124 90.8421C96.7453 90.9705 96.8117 91.1481 96.8117 91.3747C96.8117 91.8809 96.5718 92.134 96.0921 92.134ZM97.7971 92.134C97.5757 92.134 97.3985 92.066 97.2657 91.93C97.1328 91.794 97.0664 91.6089 97.0664 91.3747C97.0664 90.8836 97.31 90.6381 97.7971 90.6381C98.0186 90.6381 98.192 90.7061 98.3175 90.8421C98.4504 90.9705 98.5168 91.1481 98.5168 91.3747C98.5168 91.8809 98.2769 92.134 97.7971 92.134ZM95.2949 98.3103V96.939H96.2913C96.5718 96.939 96.7711 96.8786 96.8892 96.7577C97.0073 96.6293 97.0664 96.4177 97.0664 96.1231V94.0265L98.4614 93.2786V96.1911C98.4614 96.8786 98.2548 97.415 97.8414 97.8003C97.4797 98.1403 97.0073 98.3103 96.4242 98.3103H95.2949Z" fill="white"/>
<path d="M109.488 96.939H110.208V98.3103H109.477C108.887 98.3103 108.407 98.2385 108.038 98.095C107.676 97.9514 107.34 97.7021 107.03 97.347C106.824 97.4225 106.451 97.5245 105.912 97.653C105.218 97.8192 104.742 98.0194 104.484 98.2536C104.166 98.5558 104.008 98.9827 104.008 99.5342C104.008 100.637 104.572 101.189 105.702 101.189C106.425 101.189 107.104 100.985 107.739 100.577V101.925C107.097 102.348 106.37 102.56 105.558 102.56C104.672 102.56 103.963 102.273 103.432 101.699C102.923 101.147 102.668 100.422 102.668 99.5229C102.668 98.5785 102.937 97.8381 103.476 97.3017C103.713 97.0675 103.967 96.8899 104.24 96.769C104.521 96.6482 105.015 96.5008 105.724 96.3271C106.366 96.1684 106.82 95.9833 107.086 95.7718C106.576 94.8576 105.964 94.4005 105.248 94.4005C104.643 94.4005 103.997 94.7292 103.31 95.3865V94.1285C103.923 93.4335 104.62 93.0859 105.403 93.0859C105.986 93.0859 106.551 93.3013 107.097 93.7319C107.643 94.1625 108.127 94.7745 108.547 95.5678V96.1344C108.407 96.3611 108.259 96.5424 108.104 96.6784C108.392 96.8521 108.854 96.939 109.488 96.939ZM105.049 99.4775C105.049 99.0544 105.255 98.8429 105.669 98.8429C106.082 98.8429 106.289 99.0544 106.289 99.4775C106.289 99.9082 106.082 100.123 105.669 100.123C105.255 100.123 105.049 99.9082 105.049 99.4775Z" fill="white"/>
<path d="M111.201 95.1825C111.201 94.5025 111.408 93.9699 111.821 93.5846C112.183 93.2522 112.648 93.0859 113.216 93.0859C113.947 93.0859 114.515 93.3617 114.921 93.9132C115.268 94.3741 115.442 94.9671 115.442 95.6924C115.442 96.531 115.224 97.1921 114.789 97.6756C114.397 98.0987 113.899 98.3103 113.294 98.3103C112.703 98.3103 112.22 98.1781 111.843 97.9136C111.489 98.1781 111.061 98.3103 110.559 98.3103H109.43V96.939H110.426C110.707 96.939 110.906 96.8786 111.024 96.7577C111.142 96.6293 111.201 96.4177 111.201 96.1231V95.1825ZM112.596 96.3044C112.596 96.7275 112.814 96.939 113.25 96.939C113.796 96.939 114.069 96.5084 114.069 95.6471C114.069 94.8236 113.785 94.4119 113.216 94.4119C112.803 94.4119 112.596 94.6612 112.596 95.1598V96.3044Z" fill="white"/>
<path d="M119.194 98.3103C118.522 98.3103 118.002 98.0912 117.633 97.653C117.315 97.2752 117.157 96.7879 117.157 96.1911V91.7487L118.552 91.0007V96.1231C118.552 96.4177 118.611 96.6293 118.729 96.7577C118.847 96.8786 119.046 96.939 119.327 96.939H120.323V98.3103H119.194Z" fill="white"/>
<path d="M122.047 92.134C121.826 92.134 121.649 92.066 121.516 91.93C121.383 91.794 121.316 91.6089 121.316 91.3747C121.316 91.1556 121.383 90.9781 121.516 90.8421C121.649 90.7061 121.826 90.6381 122.047 90.6381C122.269 90.6381 122.442 90.7061 122.568 90.8421C122.7 90.9705 122.767 91.1481 122.767 91.3747C122.767 91.8809 122.527 92.134 122.047 92.134ZM119.545 98.3103V96.939H120.541C120.822 96.939 121.021 96.8786 121.139 96.7577C121.257 96.6293 121.316 96.4177 121.316 96.1231V94.0265L122.711 93.2786V96.1911C122.711 96.8786 122.505 97.415 122.091 97.8003C121.73 98.1403 121.257 98.3103 120.674 98.3103H119.545Z" fill="white"/>
<path d="M127.369 96.939H128.366V98.3103H127.237C126.986 98.3103 126.753 98.2763 126.539 98.2083C126.443 98.9336 126.159 99.5078 125.687 99.9308C125.258 100.309 124.745 100.497 124.148 100.497C123.683 100.497 123.229 100.377 122.786 100.135V98.8882C123.17 99.1073 123.546 99.2169 123.915 99.2169C124.321 99.2169 124.635 99.0809 124.856 98.8089C125.085 98.5445 125.199 98.1743 125.199 97.6983V94.0265L126.107 93.5392L126.583 93.2786V93.2899L126.594 93.2786V96.1231C126.594 96.4177 126.653 96.6293 126.772 96.7577C126.89 96.8786 127.089 96.939 127.369 96.939Z" fill="white"/>
<path d="M127.595 98.3103V96.939H128.591C128.872 96.939 129.071 96.8786 129.189 96.7577C129.307 96.6293 129.366 96.4177 129.366 96.1231V94.0265L130.762 93.2786V96.1911C130.762 96.8786 130.555 97.415 130.142 97.8003C129.78 98.1403 129.307 98.3103 128.724 98.3103H127.595ZM129.942 100.837C129.721 100.837 129.544 100.769 129.411 100.633C129.278 100.497 129.211 100.312 129.211 100.078C129.211 99.8591 129.278 99.6815 129.411 99.5455C129.544 99.4095 129.721 99.3415 129.942 99.3415C130.164 99.3415 130.337 99.4057 130.463 99.5342C130.595 99.6702 130.662 99.8515 130.662 100.078C130.662 100.584 130.422 100.837 129.942 100.837Z" fill="white"/>
<path d="M0.498235 104.827H130.87V103.977H0.498235V104.827Z" fill="white"/>
<rect x="141.175" y="31.9448" width="1.03047" height="47.4017" fill="white"/>
<defs>
<clipPath id="clip0_12_328">
<rect width="145.296" height="117.474" fill="white" transform="translate(151.479)"/>
</clipPath>
</defs>
</svg>
