<svg width="131" height="131" viewBox="0 0 131 131" fill="none" xmlns="http://www.w3.org/2000/svg">
<path fill-rule="evenodd" clip-rule="evenodd" d="M5.4585 65.5002C5.4585 32.3408 32.3408 5.4585 65.5002 5.4585C98.6595 5.4585 125.542 32.3408 125.542 65.5002C125.542 98.6595 98.6595 125.542 65.5002 125.542C32.3408 125.542 5.4585 98.6595 5.4585 65.5002ZM65.5002 114.625C59.049 114.625 52.661 113.355 46.7008 110.886C40.7407 108.417 35.3252 104.798 30.7635 100.237C26.2019 95.6751 22.5833 90.2596 20.1146 84.2995C17.6458 78.3394 16.3752 71.9513 16.3752 65.5002C16.3752 59.049 17.6458 52.661 20.1146 46.7008C22.5833 40.7407 26.2019 35.3252 30.7635 30.7635C35.3252 26.2019 40.7407 22.5833 46.7008 20.1146C52.661 17.6458 59.049 16.3752 65.5002 16.3752C78.5289 16.3752 91.024 21.5508 100.237 30.7635C109.449 39.9763 114.625 52.4714 114.625 65.5002C114.625 78.5289 109.449 91.024 100.237 100.237C91.024 109.449 78.5289 114.625 65.5002 114.625Z" fill="#EF4343"/>
<path d="M42 42L89 89M89 42L42 89" stroke="#EF4343" stroke-width="6" stroke-linecap="round" stroke-linejoin="round"/>
</svg>
