<svg width="52" height="70" viewBox="0 0 52 70" fill="none" xmlns="http://www.w3.org/2000/svg">
<path d="M23.0763 8.77305C23.2514 10.5765 25.2176 11.9153 26.9848 11.4743C28.2425 11.2065 29.1658 10.1433 29.4842 8.94631C29.134 9.41882 28.8315 9.94647 28.33 10.2772C27.0882 11.1278 25.1937 10.5135 24.6684 9.12744C24.0475 7.72564 25.0982 5.96945 26.6186 5.78045C27.4385 5.59932 28.1629 6.07971 28.8554 6.42622C28.1708 5.60719 27.1121 5.08742 26.0295 5.18193C24.2544 5.26068 22.7818 7.02474 23.0843 8.77305M25.9818 0.0157505C26.3798 1.3703 26.8335 2.70909 27.4624 3.97701C28.2186 3.17373 29.0544 2.33896 30.1847 2.1027C31.92 1.67743 33.7349 2.46496 34.8573 3.76438C33.0345 3.17373 30.8136 3.52025 29.5798 5.07167C31.3151 4.65428 33.2335 4.73304 34.8016 5.64657C36.2663 6.41835 37.3011 7.91465 37.4364 9.56845C36.911 9.00931 36.4653 8.37141 35.8285 7.9304C34.4593 6.96961 32.7081 6.63885 31.0524 6.84361C32.6046 7.22162 34.0772 8.00128 35.128 9.20619C36.7439 11.0096 37.1339 13.7108 36.314 15.9474C36.1548 14.4511 35.8364 12.9233 34.9608 11.6633C34.0693 10.3166 32.6683 9.28494 31.0763 8.91481C32.517 10.2221 33.6872 11.8838 34.125 13.7896C34.5787 15.7899 34.3399 17.9714 33.321 19.7748C33.4165 17.8611 33.4086 15.845 32.4852 14.1046C31.9996 13.1281 31.2991 12.2539 30.4554 11.553C31.2832 13.514 31.6733 15.7033 31.1957 17.7981C30.8613 19.3023 30.1529 20.7513 29.0703 21.8696C29.5877 19.9323 29.8743 17.8611 29.341 15.9002C29.0783 14.9 28.4892 14.0022 27.6773 13.3486C27.1042 19.0897 26.5947 24.8386 25.9897 30.5718C25.4166 24.8307 24.8912 19.0818 24.334 13.3407C23.2435 14.1991 22.6226 15.5143 22.4714 16.8688C22.2246 18.5463 22.5032 20.2473 22.9569 21.8696C21.0067 19.8536 20.2505 16.8688 20.7599 14.1597C20.9112 13.2541 21.2535 12.4036 21.5719 11.5451C20.1231 12.7343 19.1281 14.4511 18.8097 16.2861C18.5868 17.4358 18.6664 18.6093 18.6903 19.7669C17.4724 17.5776 17.345 14.837 18.3002 12.5217C18.8495 11.112 19.8445 9.93859 20.935 8.90693C18.953 9.35582 17.3052 10.8364 16.4853 12.6556C15.9998 13.6872 15.8326 14.8213 15.6814 15.9317C15.0923 14.2936 15.156 12.4272 15.8326 10.8285C16.7321 8.76518 18.7619 7.31613 20.9589 6.85149C19.3112 6.59948 17.552 6.96961 16.1829 7.91465C15.546 8.34779 15.1003 8.98568 14.5908 9.5527C14.6863 7.69414 16.0157 6.08758 17.7112 5.37881C19.1759 4.69366 20.8634 4.68579 22.4236 5.0638C21.1898 3.49662 18.9689 3.16586 17.1381 3.74075C18.1808 2.58309 19.749 1.79556 21.349 2.00819C22.6465 2.11845 23.7211 2.97685 24.4932 3.96126C25.2096 2.73272 25.6474 1.3703 25.9738 0" fill="#C29F68"/>
<path d="M6.22483 27.0198C10.8258 26.059 15.6815 26.7993 19.9561 28.6579C23.4904 30.2014 26.6266 32.5089 29.548 34.9738C28.8236 35.6196 28.0913 36.2496 27.3829 36.9111C24.5013 34.6116 21.556 32.3356 18.1809 30.7921C14.8456 29.2328 11.176 28.2011 7.45865 28.2799C4.93528 28.3271 2.45172 28.8232 0 29.3666C1.85471 28.1145 4.04375 27.4766 6.21686 27.0198" fill="#C29F68"/>
<path d="M34.3323 27.792C38.3681 26.4611 42.7859 26.1934 46.9173 27.2723C48.6605 27.7133 50.4118 28.2882 51.9083 29.3041C49.8546 28.9418 47.8247 28.4536 45.7392 28.3354C41.8228 28.0125 37.9064 28.9655 34.3482 30.5484C32.2945 31.4462 30.4 32.6511 28.5293 33.8796C27.7572 33.2338 26.9532 32.6353 26.1572 32.0289C28.7284 30.3594 31.3711 28.7213 34.3243 27.7999" fill="#C29F68"/>
<path d="M7.21973 30.8237C8.19086 30.6583 9.17792 30.5638 10.165 30.5244C10.2764 31.3356 10.3799 32.1467 10.4834 32.9579C9.47244 32.9264 8.46947 33.0051 7.47445 33.1311C7.38689 32.3593 7.29933 31.5876 7.21973 30.8237Z" fill="#C29F68"/>
<path d="M38.9966 33.3361C38.925 34.0685 38.8374 34.8009 38.7419 35.5333C41.5359 35.5885 44.3299 35.5333 47.1239 35.5648C47.2274 34.8167 47.2911 34.0685 47.3468 33.3125C44.6085 32.7219 41.7349 32.6667 38.9966 33.3361ZM32.2862 33.3204C35.3031 31.4933 38.8454 30.4302 42.3956 30.564C45.1498 30.6743 47.9199 31.4067 50.2841 32.8321C50.0692 34.5017 49.7269 37.8408 49.7269 37.8408H35.6534C35.6534 37.8408 35.916 35.557 36.0275 34.415C32.1191 36.3996 28.9668 39.5025 26.0693 42.7077C24.6684 41.2429 21.6196 38.5732 21.6196 38.5732L24.2863 36.8643C24.2863 36.8643 25.4883 38.0298 26.0693 38.6283C27.932 36.6437 29.9061 34.7064 32.2862 33.3125" fill="#C29F68"/>
<path d="M12.9351 30.6895C16.2227 30.9809 19.2077 32.6347 21.7311 34.6587C20.8157 35.2572 19.8843 35.8242 18.9769 36.4227C18.0456 35.6903 17.0744 34.9973 16.0078 34.4696C16.1033 35.5879 16.3341 37.8481 16.3341 37.8481H2.37205C2.37205 37.8481 2.05364 34.4775 1.84668 32.8473C2.68249 32.2961 3.62179 31.9181 4.55312 31.5558C4.70437 32.8867 4.81581 34.2255 4.95909 35.5564C7.7929 35.5407 10.6267 35.5722 13.4605 35.5328C13.2695 33.9184 13.1262 32.2961 12.9511 30.6816" fill="#C29F68"/>
<path d="M18.4678 36.9821C20.0598 35.9977 23.212 33.958 23.212 33.958L25.6001 35.7772C25.6001 35.7772 22.7503 37.6279 21.3255 38.5414C21.5483 40.5024 21.7553 42.4712 21.9862 44.4321C23.3235 45.2511 24.6608 46.078 26.006 46.8971C27.3592 46.078 28.6965 45.2511 30.0577 44.44C30.2647 42.6996 30.4239 40.9434 30.6309 39.2029C30.5194 39.1084 30.2886 38.9273 30.1771 38.8328C30.9174 38.1949 31.6259 37.5098 32.4537 36.9664C32.8279 37.1632 33.1542 37.431 33.4885 37.683C33.1701 40.4315 32.8995 43.1799 32.5811 45.9284C30.3841 47.2672 28.1951 48.6296 26.006 49.9763C23.809 48.6454 21.6439 47.2593 19.4389 45.9442C19.0887 42.9594 18.7623 39.9747 18.4757 36.9821" fill="#C29F68"/>
<path d="M2.4834 39.6598C7.16396 39.6755 11.8525 39.6361 16.533 39.6834C16.6206 40.6048 16.74 41.5183 16.8435 42.4397C13.142 42.4397 9.44056 42.4397 5.73909 42.4397C6.12914 46.401 6.55899 50.3544 6.93311 54.3078C8.90723 55.5757 10.9132 56.7885 12.9032 58.0328C13.3888 57.2689 13.8743 56.505 14.344 55.7332C12.736 54.7251 11.1122 53.7486 9.52016 52.7248C9.29727 50.1969 8.99479 47.6768 8.79579 45.1488C11.5818 45.1646 14.3599 45.1488 17.146 45.1488C17.2335 46.0702 17.3052 46.9995 17.4086 47.913C18.6663 48.6533 19.8922 49.433 21.1499 50.1732C20.6803 50.9844 20.1788 51.7719 19.6614 52.5516C18.1808 51.6065 16.6763 50.7009 15.1798 49.7795C14.4554 49.4251 14.75 48.4722 14.5828 47.8264C13.6594 47.8264 12.7361 47.8264 11.8206 47.8264C11.948 48.8423 12.0196 49.8661 12.1629 50.882C12.1629 51.2049 12.5132 51.3073 12.7281 51.4727C14.5669 52.5673 18.2126 54.8196 18.2126 54.8196L13.8186 61.8759L4.25851 56.0088C4.25851 56.0088 3.07245 45.0071 2.4834 39.6676" fill="#26B3BB"/>
<path d="M22.5591 57.4819C23.7053 58.2143 24.8755 58.9231 26.0297 59.6476C27.16 58.8994 28.3939 58.2773 29.4685 57.4583C29.166 56.6156 28.7521 55.8281 28.4018 55.0091C27.6138 55.4894 26.8257 55.9777 26.0377 56.4581C25.2416 55.9777 24.4456 55.4894 23.6496 55.0091C23.2755 55.8281 22.9332 56.655 22.575 57.4819M38.0097 42.4401C37.8585 43.8892 37.7072 45.3382 37.5639 46.7873C38.4316 47.3307 39.2913 47.8898 40.1828 48.386C40.3818 46.4014 40.5888 44.4168 40.7878 42.4323C39.8644 42.4323 38.9331 42.4323 38.0097 42.4323M35.5341 39.6602H49.5599L47.7609 55.9935C47.7609 55.9935 33.2734 64.9319 26.0138 69.3735C22.9491 67.4992 19.8924 65.5934 16.8198 63.727C17.1621 62.8449 17.5442 61.9787 17.9422 61.1203C20.6327 62.7977 23.3392 64.4436 26.0377 66.1211C27.9481 64.9555 29.8426 63.7821 31.7451 62.6087C31.3789 61.7739 31.0048 60.947 30.6625 60.1044C29.0944 61.01 27.574 62.0102 26.0217 62.9473C23.6894 61.4904 21.3491 60.0492 19.0248 58.5766C20.1392 56.025 21.2616 53.4813 22.3521 50.9297C23.5939 51.6542 24.8118 52.4338 26.0377 53.182C27.2715 52.4417 28.4814 51.6542 29.7232 50.9297C31.1719 54.3318 32.6764 57.7103 34.1013 61.1203C37.8027 58.9073 41.4485 56.592 45.1261 54.3239C45.5161 50.3548 45.9619 46.4014 46.328 42.4323C45.4126 42.4401 44.4972 42.4401 43.5818 42.4323C43.1918 45.8659 42.9052 49.3152 42.5072 52.7489C39.8963 51.1265 37.2694 49.5279 34.6505 47.9134C34.9451 45.165 35.2475 42.4165 35.5421 39.6602" fill="#26B3BB"/>
<path d="M30.8931 50.1963C31.6174 49.7317 32.3577 49.2907 33.0821 48.8418C33.8304 49.4403 34.5706 50.0467 35.295 50.6767C34.3716 51.2753 33.4244 51.8423 32.4931 52.4172C31.9597 51.6769 31.4344 50.9366 30.901 50.2042" fill="#26B3BB"/>
<path d="M34.0933 54.6696C35.2236 53.9215 36.3937 53.2284 37.548 52.5039C38.3201 53.1261 39.0843 53.7561 39.8484 54.394C38.4873 55.2445 37.1181 56.0871 35.749 56.9298C35.1918 56.1817 34.6505 55.4099 34.0933 54.6696Z" fill="#26B3BB"/>
</svg>
