<svg width="14" height="15" viewBox="0 0 14 15" fill="none" xmlns="http://www.w3.org/2000/svg">
<g clip-path="url(#clip0_10_148)">
<path d="M12.1881 0.882324H10.9528V2.20585C10.9528 2.47056 10.7469 2.64703 10.541 2.64703C10.3352 2.64703 10.1293 2.47056 10.1293 2.20585V0.882324H3.54103V2.20585C3.54103 2.47056 3.33515 2.64703 3.12927 2.64703C2.92339 2.64703 2.7175 2.47056 2.7175 2.20585V0.882324H1.48221C0.864562 0.882324 0.411621 1.45585 0.411621 2.20585V3.79409H13.5881V2.20585C13.5881 1.45585 12.8469 0.882324 12.1881 0.882324ZM0.411621 4.72056V12.7941C0.411621 13.5882 0.864562 14.1176 1.52339 14.1176H12.2293C12.8881 14.1176 13.6293 13.5441 13.6293 12.7941V4.72056H0.411621ZM4.07633 12.1323H3.08809C2.92339 12.1323 2.75868 12 2.75868 11.7794V10.6764C2.75868 10.5 2.88221 10.3235 3.08809 10.3235H4.1175C4.28221 10.3235 4.44692 10.4559 4.44692 10.6764V11.7794C4.40574 12 4.28221 12.1323 4.07633 12.1323ZM4.07633 8.16174H3.08809C2.92339 8.16174 2.75868 8.02938 2.75868 7.8088V6.70585C2.75868 6.52938 2.88221 6.35291 3.08809 6.35291H4.1175C4.28221 6.35291 4.44692 6.48527 4.44692 6.70585V7.8088C4.40574 8.02938 4.28221 8.16174 4.07633 8.16174ZM7.37044 12.1323H6.34103C6.17633 12.1323 6.01162 12 6.01162 11.7794V10.6764C6.01162 10.5 6.13515 10.3235 6.34103 10.3235H7.37044C7.53515 10.3235 7.69986 10.4559 7.69986 10.6764V11.7794C7.69986 12 7.57633 12.1323 7.37044 12.1323ZM7.37044 8.16174H6.34103C6.17633 8.16174 6.01162 8.02938 6.01162 7.8088V6.70585C6.01162 6.52938 6.13515 6.35291 6.34103 6.35291H7.37044C7.53515 6.35291 7.69986 6.48527 7.69986 6.70585V7.8088C7.69986 8.02938 7.57633 8.16174 7.37044 8.16174ZM10.6646 12.1323H9.63515C9.47044 12.1323 9.30574 12 9.30574 11.7794V10.6764C9.30574 10.5 9.42927 10.3235 9.63515 10.3235H10.6646C10.8293 10.3235 10.994 10.4559 10.994 10.6764V11.7794C10.994 12 10.8704 12.1323 10.6646 12.1323ZM10.6646 8.16174H9.63515C9.47044 8.16174 9.30574 8.02938 9.30574 7.8088V6.70585C9.30574 6.52938 9.42927 6.35291 9.63515 6.35291H10.6646C10.8293 6.35291 10.994 6.48527 10.994 6.70585V7.8088C10.994 8.02938 10.8704 8.16174 10.6646 8.16174Z" fill="#4D8C99"/>
</g>
<defs>
<clipPath id="clip0_10_148">
<rect width="14" height="15" fill="white"/>
</clipPath>
</defs>
</svg>
